G75*
G70*
%OFA0B0*%
%FSLAX24Y24*%
%IPPOS*%
%LPD*%
%AMOC8*
5,1,8,0,0,1.08239X$1,22.5*
%
%ADD10C,0.0820*%
%ADD11C,0.0880*%
%ADD12R,0.1030X0.1030*%
%ADD13C,0.1030*%
%ADD14OC8,0.0760*%
%ADD15OC8,0.0820*%
%ADD16C,0.0730*%
%ADD17C,0.1380*%
%ADD18C,0.1880*%
%ADD19C,0.0820*%
%ADD20OC8,0.0840*%
D10*
X002150Y002227D03*
X003150Y002227D03*
X007150Y001227D03*
X007150Y004227D03*
X010650Y006227D03*
X010650Y008727D03*
X011650Y008727D03*
X013650Y006227D03*
X007150Y011227D03*
X007150Y014227D03*
X007150Y021227D03*
X007150Y024227D03*
X003150Y022227D03*
X002150Y022227D03*
X002150Y012227D03*
X003150Y012227D03*
D11*
X005650Y012723D03*
X005650Y011723D03*
X005650Y008723D03*
X005650Y006723D03*
X005650Y002723D03*
X005650Y001723D03*
X005650Y016723D03*
X005650Y018723D03*
X005650Y021723D03*
X005650Y022723D03*
X005650Y026723D03*
X005650Y028723D03*
D12*
X002450Y028427D03*
X002450Y018477D03*
X002450Y008477D03*
D13*
X002450Y006508D03*
X002450Y016508D03*
X002450Y026458D03*
D14*
X010150Y026727D03*
X010150Y025727D03*
X010150Y024727D03*
X010150Y023727D03*
X013150Y023727D03*
X013150Y024727D03*
X013150Y025727D03*
X013150Y026727D03*
D15*
X013650Y018727D03*
X013650Y017727D03*
X013650Y016727D03*
X014650Y016727D03*
X014650Y017727D03*
X014650Y018727D03*
D16*
X012150Y027727D03*
X011150Y027727D03*
D17*
X008950Y028877D03*
X014650Y028727D03*
X008950Y001877D03*
X014650Y001727D03*
D18*
X013569Y011737D03*
X011937Y013208D03*
X010686Y011727D03*
D19*
X014150Y009097D02*
X014150Y008357D01*
X015150Y008357D02*
X015150Y009097D01*
D20*
X013650Y007227D03*
X013150Y008227D03*
X012150Y006727D03*
X009150Y011227D03*
X008150Y012227D03*
X011650Y015727D03*
X012650Y017227D03*
X014150Y019727D03*
X015150Y015727D03*
X014650Y014227D03*
X010650Y022727D03*
X009150Y022227D03*
X009150Y021227D03*
X009650Y019727D03*
X007150Y022727D03*
X012650Y028727D03*
X014150Y025727D03*
X015150Y027227D03*
X006650Y002727D03*
M02*
