G75*
G70*
%OFA0B0*%
%FSLAX24Y24*%
%IPPOS*%
%LPD*%
%AMOC8*
5,1,8,0,0,1.08239X$1,22.5*
%
%ADD10C,0.0080*%
%ADD11C,0.0000*%
D10*
X001150Y000227D02*
X001150Y030227D01*
X016150Y030227D01*
X016150Y000227D01*
X001150Y000227D01*
D11*
X008300Y001877D02*
X008302Y001927D01*
X008308Y001977D01*
X008318Y002027D01*
X008331Y002075D01*
X008348Y002123D01*
X008369Y002169D01*
X008393Y002213D01*
X008421Y002255D01*
X008452Y002295D01*
X008486Y002332D01*
X008523Y002367D01*
X008562Y002398D01*
X008603Y002427D01*
X008647Y002452D01*
X008693Y002474D01*
X008740Y002492D01*
X008788Y002506D01*
X008837Y002517D01*
X008887Y002524D01*
X008937Y002527D01*
X008988Y002526D01*
X009038Y002521D01*
X009088Y002512D01*
X009136Y002500D01*
X009184Y002483D01*
X009230Y002463D01*
X009275Y002440D01*
X009318Y002413D01*
X009358Y002383D01*
X009396Y002350D01*
X009431Y002314D01*
X009464Y002275D01*
X009493Y002234D01*
X009519Y002191D01*
X009542Y002146D01*
X009561Y002099D01*
X009576Y002051D01*
X009588Y002002D01*
X009596Y001952D01*
X009600Y001902D01*
X009600Y001852D01*
X009596Y001802D01*
X009588Y001752D01*
X009576Y001703D01*
X009561Y001655D01*
X009542Y001608D01*
X009519Y001563D01*
X009493Y001520D01*
X009464Y001479D01*
X009431Y001440D01*
X009396Y001404D01*
X009358Y001371D01*
X009318Y001341D01*
X009275Y001314D01*
X009230Y001291D01*
X009184Y001271D01*
X009136Y001254D01*
X009088Y001242D01*
X009038Y001233D01*
X008988Y001228D01*
X008937Y001227D01*
X008887Y001230D01*
X008837Y001237D01*
X008788Y001248D01*
X008740Y001262D01*
X008693Y001280D01*
X008647Y001302D01*
X008603Y001327D01*
X008562Y001356D01*
X008523Y001387D01*
X008486Y001422D01*
X008452Y001459D01*
X008421Y001499D01*
X008393Y001541D01*
X008369Y001585D01*
X008348Y001631D01*
X008331Y001679D01*
X008318Y001727D01*
X008308Y001777D01*
X008302Y001827D01*
X008300Y001877D01*
X014000Y001727D02*
X014002Y001777D01*
X014008Y001827D01*
X014018Y001877D01*
X014031Y001925D01*
X014048Y001973D01*
X014069Y002019D01*
X014093Y002063D01*
X014121Y002105D01*
X014152Y002145D01*
X014186Y002182D01*
X014223Y002217D01*
X014262Y002248D01*
X014303Y002277D01*
X014347Y002302D01*
X014393Y002324D01*
X014440Y002342D01*
X014488Y002356D01*
X014537Y002367D01*
X014587Y002374D01*
X014637Y002377D01*
X014688Y002376D01*
X014738Y002371D01*
X014788Y002362D01*
X014836Y002350D01*
X014884Y002333D01*
X014930Y002313D01*
X014975Y002290D01*
X015018Y002263D01*
X015058Y002233D01*
X015096Y002200D01*
X015131Y002164D01*
X015164Y002125D01*
X015193Y002084D01*
X015219Y002041D01*
X015242Y001996D01*
X015261Y001949D01*
X015276Y001901D01*
X015288Y001852D01*
X015296Y001802D01*
X015300Y001752D01*
X015300Y001702D01*
X015296Y001652D01*
X015288Y001602D01*
X015276Y001553D01*
X015261Y001505D01*
X015242Y001458D01*
X015219Y001413D01*
X015193Y001370D01*
X015164Y001329D01*
X015131Y001290D01*
X015096Y001254D01*
X015058Y001221D01*
X015018Y001191D01*
X014975Y001164D01*
X014930Y001141D01*
X014884Y001121D01*
X014836Y001104D01*
X014788Y001092D01*
X014738Y001083D01*
X014688Y001078D01*
X014637Y001077D01*
X014587Y001080D01*
X014537Y001087D01*
X014488Y001098D01*
X014440Y001112D01*
X014393Y001130D01*
X014347Y001152D01*
X014303Y001177D01*
X014262Y001206D01*
X014223Y001237D01*
X014186Y001272D01*
X014152Y001309D01*
X014121Y001349D01*
X014093Y001391D01*
X014069Y001435D01*
X014048Y001481D01*
X014031Y001529D01*
X014018Y001577D01*
X014008Y001627D01*
X014002Y001677D01*
X014000Y001727D01*
X014000Y028727D02*
X014002Y028777D01*
X014008Y028827D01*
X014018Y028877D01*
X014031Y028925D01*
X014048Y028973D01*
X014069Y029019D01*
X014093Y029063D01*
X014121Y029105D01*
X014152Y029145D01*
X014186Y029182D01*
X014223Y029217D01*
X014262Y029248D01*
X014303Y029277D01*
X014347Y029302D01*
X014393Y029324D01*
X014440Y029342D01*
X014488Y029356D01*
X014537Y029367D01*
X014587Y029374D01*
X014637Y029377D01*
X014688Y029376D01*
X014738Y029371D01*
X014788Y029362D01*
X014836Y029350D01*
X014884Y029333D01*
X014930Y029313D01*
X014975Y029290D01*
X015018Y029263D01*
X015058Y029233D01*
X015096Y029200D01*
X015131Y029164D01*
X015164Y029125D01*
X015193Y029084D01*
X015219Y029041D01*
X015242Y028996D01*
X015261Y028949D01*
X015276Y028901D01*
X015288Y028852D01*
X015296Y028802D01*
X015300Y028752D01*
X015300Y028702D01*
X015296Y028652D01*
X015288Y028602D01*
X015276Y028553D01*
X015261Y028505D01*
X015242Y028458D01*
X015219Y028413D01*
X015193Y028370D01*
X015164Y028329D01*
X015131Y028290D01*
X015096Y028254D01*
X015058Y028221D01*
X015018Y028191D01*
X014975Y028164D01*
X014930Y028141D01*
X014884Y028121D01*
X014836Y028104D01*
X014788Y028092D01*
X014738Y028083D01*
X014688Y028078D01*
X014637Y028077D01*
X014587Y028080D01*
X014537Y028087D01*
X014488Y028098D01*
X014440Y028112D01*
X014393Y028130D01*
X014347Y028152D01*
X014303Y028177D01*
X014262Y028206D01*
X014223Y028237D01*
X014186Y028272D01*
X014152Y028309D01*
X014121Y028349D01*
X014093Y028391D01*
X014069Y028435D01*
X014048Y028481D01*
X014031Y028529D01*
X014018Y028577D01*
X014008Y028627D01*
X014002Y028677D01*
X014000Y028727D01*
X008300Y028877D02*
X008302Y028927D01*
X008308Y028977D01*
X008318Y029027D01*
X008331Y029075D01*
X008348Y029123D01*
X008369Y029169D01*
X008393Y029213D01*
X008421Y029255D01*
X008452Y029295D01*
X008486Y029332D01*
X008523Y029367D01*
X008562Y029398D01*
X008603Y029427D01*
X008647Y029452D01*
X008693Y029474D01*
X008740Y029492D01*
X008788Y029506D01*
X008837Y029517D01*
X008887Y029524D01*
X008937Y029527D01*
X008988Y029526D01*
X009038Y029521D01*
X009088Y029512D01*
X009136Y029500D01*
X009184Y029483D01*
X009230Y029463D01*
X009275Y029440D01*
X009318Y029413D01*
X009358Y029383D01*
X009396Y029350D01*
X009431Y029314D01*
X009464Y029275D01*
X009493Y029234D01*
X009519Y029191D01*
X009542Y029146D01*
X009561Y029099D01*
X009576Y029051D01*
X009588Y029002D01*
X009596Y028952D01*
X009600Y028902D01*
X009600Y028852D01*
X009596Y028802D01*
X009588Y028752D01*
X009576Y028703D01*
X009561Y028655D01*
X009542Y028608D01*
X009519Y028563D01*
X009493Y028520D01*
X009464Y028479D01*
X009431Y028440D01*
X009396Y028404D01*
X009358Y028371D01*
X009318Y028341D01*
X009275Y028314D01*
X009230Y028291D01*
X009184Y028271D01*
X009136Y028254D01*
X009088Y028242D01*
X009038Y028233D01*
X008988Y028228D01*
X008937Y028227D01*
X008887Y028230D01*
X008837Y028237D01*
X008788Y028248D01*
X008740Y028262D01*
X008693Y028280D01*
X008647Y028302D01*
X008603Y028327D01*
X008562Y028356D01*
X008523Y028387D01*
X008486Y028422D01*
X008452Y028459D01*
X008421Y028499D01*
X008393Y028541D01*
X008369Y028585D01*
X008348Y028631D01*
X008331Y028679D01*
X008318Y028727D01*
X008308Y028777D01*
X008302Y028827D01*
X008300Y028877D01*
M02*
