G75*
G70*
%OFA0B0*%
%FSLAX24Y24*%
%IPPOS*%
%LPD*%
%AMOC8*
5,1,8,0,0,1.08239X$1,22.5*
%
%ADD10C,0.0740*%
%ADD11C,0.0800*%
%ADD12R,0.0950X0.0950*%
%ADD13C,0.0950*%
%ADD14OC8,0.0680*%
%ADD15OC8,0.0740*%
%ADD16C,0.0650*%
%ADD17C,0.1800*%
%ADD18C,0.0740*%
%ADD19C,0.0140*%
%ADD20OC8,0.0760*%
%ADD21C,0.0100*%
D10*
X002150Y002227D03*
X003150Y002227D03*
X007150Y001227D03*
X007150Y004227D03*
X010650Y006227D03*
X010650Y008727D03*
X011650Y008727D03*
X013650Y006227D03*
X007150Y011227D03*
X007150Y014227D03*
X007150Y021227D03*
X007150Y024227D03*
X003150Y022227D03*
X002150Y022227D03*
X002150Y012227D03*
X003150Y012227D03*
D11*
X005650Y012723D03*
X005650Y011723D03*
X005650Y008723D03*
X005650Y006723D03*
X005650Y002723D03*
X005650Y001723D03*
X005650Y016723D03*
X005650Y018723D03*
X005650Y021723D03*
X005650Y022723D03*
X005650Y026723D03*
X005650Y028723D03*
D12*
X002450Y028427D03*
X002450Y018477D03*
X002450Y008477D03*
D13*
X002450Y006508D03*
X002450Y016508D03*
X002450Y026458D03*
D14*
X010150Y026727D03*
X010150Y025727D03*
X010150Y024727D03*
X010150Y023727D03*
X013150Y023727D03*
X013150Y024727D03*
X013150Y025727D03*
X013150Y026727D03*
D15*
X013650Y018727D03*
X013650Y017727D03*
X013650Y016727D03*
X014650Y016727D03*
X014650Y017727D03*
X014650Y018727D03*
D16*
X012150Y027727D03*
X011150Y027727D03*
D17*
X011937Y013208D03*
X010686Y011727D03*
X013569Y011737D03*
D18*
X014150Y009097D02*
X014150Y008357D01*
X015150Y008357D02*
X015150Y009097D01*
D19*
X015150Y008727D02*
X015650Y009227D01*
X015650Y013227D01*
X014650Y014227D01*
X013650Y014227D02*
X015150Y015727D01*
X014650Y016227D02*
X014650Y016727D01*
X014650Y016227D02*
X014150Y015727D01*
X013150Y015727D01*
X011650Y017227D01*
X011650Y023227D01*
X013150Y024727D01*
X013150Y025727D02*
X014150Y025727D01*
X015150Y025727D02*
X015150Y019227D01*
X014650Y018727D01*
X014150Y019227D02*
X014150Y019727D01*
X014150Y019227D02*
X013650Y018727D01*
X013650Y017727D02*
X013150Y017727D01*
X012150Y018727D01*
X012150Y022727D01*
X013150Y023727D01*
X011650Y025227D02*
X011650Y026727D01*
X011150Y027227D01*
X011150Y027727D01*
X010150Y027727D02*
X011150Y026727D01*
X010150Y025727D01*
X010150Y026727D02*
X009150Y026727D01*
X008650Y026227D01*
X008650Y022727D01*
X008150Y022227D01*
X009150Y021227D01*
X008650Y020727D02*
X008650Y015727D01*
X007150Y014227D01*
X006150Y014227D02*
X008150Y012227D01*
X008650Y012227D01*
X009150Y012727D01*
X009150Y019227D01*
X009650Y019727D01*
X008650Y020727D02*
X007650Y021727D01*
X007650Y022227D01*
X008150Y022727D01*
X008150Y026227D01*
X009150Y027227D01*
X009650Y027227D01*
X010150Y027727D01*
X011150Y029727D02*
X007650Y026227D01*
X007650Y024727D01*
X007150Y024227D01*
X006150Y023727D02*
X007150Y022727D01*
X005650Y022727D02*
X007150Y021227D01*
X005650Y021723D02*
X005650Y021727D01*
X005150Y022227D01*
X003150Y022227D01*
X002150Y022227D02*
X003650Y023727D01*
X006150Y023727D01*
X005650Y022727D02*
X005650Y022723D01*
X009150Y022227D02*
X010650Y020727D01*
X010650Y017227D01*
X011650Y016227D01*
X011650Y015727D01*
X012650Y015727D02*
X011150Y017227D01*
X011150Y021227D01*
X009150Y023227D01*
X009150Y024227D01*
X009650Y024727D01*
X010150Y024727D01*
X010150Y023727D02*
X010150Y023227D01*
X010650Y022727D01*
X010150Y023727D02*
X011650Y025227D01*
X013150Y027227D02*
X012650Y027727D01*
X012150Y027727D01*
X012650Y028227D02*
X012650Y028727D01*
X012650Y028227D02*
X015150Y025727D01*
X015150Y027227D02*
X015650Y027727D01*
X015650Y018727D01*
X014650Y017727D01*
X013650Y016727D02*
X013150Y017227D01*
X012650Y017227D01*
X012650Y015727D02*
X008150Y011227D01*
X008150Y005227D01*
X007150Y004227D01*
X006650Y002727D02*
X005650Y002727D01*
X005650Y002723D01*
X005650Y001727D02*
X005650Y001723D01*
X005650Y001227D01*
X004150Y001227D01*
X003150Y002227D01*
X002150Y002227D02*
X003650Y000727D01*
X005650Y000727D01*
X008650Y003727D01*
X008650Y010727D01*
X009150Y011227D01*
X010650Y008727D02*
X010150Y008227D01*
X010150Y006727D01*
X010650Y006227D01*
X011650Y007727D02*
X011650Y008727D01*
X012150Y008227D02*
X012150Y007727D01*
X013650Y006227D01*
X012150Y004727D01*
X009650Y004727D01*
X008650Y003727D01*
X012150Y007227D02*
X011650Y007727D01*
X012150Y008227D02*
X013150Y009227D01*
X013150Y011727D01*
X013569Y011737D01*
X013650Y012227D01*
X013650Y014227D01*
X013650Y008727D02*
X013150Y008227D01*
X013650Y008727D02*
X014150Y008727D01*
X015150Y008227D02*
X014150Y007227D01*
X013650Y007227D01*
X012150Y007227D02*
X012150Y006727D01*
X015150Y008227D02*
X015150Y008727D01*
X007150Y011227D02*
X005650Y012727D01*
X005650Y012723D01*
X005150Y012227D02*
X005650Y011727D01*
X005650Y011723D01*
X005150Y012227D02*
X003150Y012227D01*
X002150Y012227D02*
X004150Y014227D01*
X006150Y014227D01*
X013150Y026727D02*
X013150Y027227D01*
X011150Y029727D02*
X015150Y029727D01*
X015650Y029227D01*
X015650Y027727D01*
D20*
X015150Y027227D03*
X014150Y025727D03*
X012650Y028727D03*
X010650Y022727D03*
X009150Y022227D03*
X009150Y021227D03*
X009650Y019727D03*
X011650Y015727D03*
X012650Y017227D03*
X014150Y019727D03*
X015150Y015727D03*
X014650Y014227D03*
X013150Y008227D03*
X013650Y007227D03*
X012150Y006727D03*
X009150Y011227D03*
X008150Y012227D03*
X006650Y002727D03*
X007150Y022727D03*
D21*
X001340Y004627D02*
X001340Y000417D01*
X015960Y000417D01*
X015960Y030037D01*
X007250Y030037D01*
X007250Y024787D01*
X007261Y024787D01*
X007319Y024763D01*
X007390Y024834D01*
X007390Y026278D01*
X007430Y026374D01*
X007503Y026447D01*
X007503Y026447D01*
X009112Y028057D01*
X008787Y028057D01*
X008486Y028182D01*
X008486Y028182D01*
X008255Y028412D01*
X008255Y028412D01*
X008130Y028714D01*
X008130Y029040D01*
X008255Y029341D01*
X008255Y029341D01*
X008486Y029572D01*
X008486Y029572D01*
X008787Y029697D01*
X009113Y029697D01*
X009414Y029572D01*
X009414Y029572D01*
X009645Y029341D01*
X009645Y029341D01*
X009770Y029040D01*
X009770Y028714D01*
X011003Y029947D01*
X011098Y029987D01*
X015202Y029987D01*
X015297Y029947D01*
X015870Y029374D01*
X015910Y029278D01*
X015910Y018675D01*
X015870Y018579D01*
X015797Y018506D01*
X015210Y017919D01*
X015210Y017495D01*
X014942Y017227D01*
X015210Y016959D01*
X015210Y016495D01*
X015012Y016297D01*
X015386Y016297D01*
X015720Y015963D01*
X015720Y015491D01*
X015386Y015157D01*
X014948Y015157D01*
X014588Y014797D01*
X014886Y014797D01*
X015220Y014463D01*
X015220Y014024D01*
X015797Y013447D01*
X015870Y013374D01*
X015910Y013278D01*
X015910Y009175D01*
X015870Y009079D01*
X015710Y008919D01*
X015710Y008245D01*
X015625Y008039D01*
X015467Y007882D01*
X015261Y007797D01*
X015088Y007797D01*
X014370Y007079D01*
X014370Y007079D01*
X014297Y007006D01*
X014202Y006967D01*
X014196Y006967D01*
X013941Y006712D01*
X013967Y006701D01*
X014125Y006544D01*
X014210Y006338D01*
X014210Y006115D01*
X014125Y005909D01*
X013967Y005752D01*
X013761Y005667D01*
X013539Y005667D01*
X013481Y005690D01*
X012297Y004506D01*
X012202Y004467D01*
X009758Y004467D01*
X008870Y003579D01*
X008870Y003579D01*
X008797Y003506D01*
X008797Y003506D01*
X007078Y001787D01*
X007261Y001787D01*
X007467Y001701D01*
X007625Y001544D01*
X007710Y001338D01*
X007710Y001115D01*
X007625Y000909D01*
X007467Y000752D01*
X007261Y000667D01*
X007039Y000667D01*
X006833Y000752D01*
X006675Y000909D01*
X006590Y001115D01*
X006590Y001299D01*
X005797Y000506D01*
X005702Y000467D01*
X003598Y000467D01*
X003503Y000506D01*
X003430Y000579D01*
X003430Y000579D01*
X002319Y001690D01*
X002261Y001667D01*
X002039Y001667D01*
X001833Y001752D01*
X001675Y001909D01*
X001590Y002115D01*
X001590Y002338D01*
X001675Y002544D01*
X001833Y002701D01*
X002039Y002787D01*
X002261Y002787D01*
X002467Y002701D01*
X002625Y002544D01*
X002650Y002483D01*
X002675Y002544D01*
X002833Y002701D01*
X003039Y002787D01*
X003261Y002787D01*
X003467Y002701D01*
X003625Y002544D01*
X003710Y002338D01*
X003710Y002115D01*
X003686Y002058D01*
X004258Y001487D01*
X005109Y001487D01*
X005060Y001605D01*
X005060Y001840D01*
X005150Y002057D01*
X005316Y002223D01*
X005150Y002389D01*
X005060Y002605D01*
X005060Y002840D01*
X005150Y003057D01*
X005316Y003223D01*
X005533Y003313D01*
X005767Y003313D01*
X005984Y003223D01*
X006150Y003057D01*
X006157Y003040D01*
X006414Y003297D01*
X006886Y003297D01*
X007220Y002963D01*
X007220Y002664D01*
X008390Y003834D01*
X008390Y005127D01*
X008370Y005079D01*
X008297Y005006D01*
X007686Y004395D01*
X007710Y004338D01*
X007710Y004115D01*
X007625Y003909D01*
X007467Y003752D01*
X007261Y003667D01*
X007039Y003667D01*
X006833Y003752D01*
X006675Y003909D01*
X006590Y004115D01*
X006590Y004338D01*
X006675Y004544D01*
X006758Y004627D01*
X001340Y004627D01*
X001340Y004561D02*
X006692Y004561D01*
X006641Y004462D02*
X001340Y004462D01*
X001340Y004364D02*
X006601Y004364D01*
X006590Y004265D02*
X001340Y004265D01*
X001340Y004167D02*
X006590Y004167D01*
X006610Y004068D02*
X001340Y004068D01*
X001340Y003970D02*
X006650Y003970D01*
X006714Y003871D02*
X001340Y003871D01*
X001340Y003773D02*
X006812Y003773D01*
X007020Y003674D02*
X001340Y003674D01*
X001340Y003576D02*
X008131Y003576D01*
X008230Y003674D02*
X007280Y003674D01*
X007488Y003773D02*
X008328Y003773D01*
X008390Y003871D02*
X007586Y003871D01*
X007650Y003970D02*
X008390Y003970D01*
X008390Y004068D02*
X007690Y004068D01*
X007710Y004167D02*
X008390Y004167D01*
X008390Y004265D02*
X007710Y004265D01*
X007699Y004364D02*
X008390Y004364D01*
X008390Y004462D02*
X007753Y004462D01*
X007852Y004561D02*
X008390Y004561D01*
X008390Y004659D02*
X007950Y004659D01*
X008049Y004758D02*
X008390Y004758D01*
X008390Y004856D02*
X008147Y004856D01*
X008246Y004955D02*
X008390Y004955D01*
X008390Y005053D02*
X008344Y005053D01*
X007890Y005334D02*
X007319Y004763D01*
X007261Y004787D01*
X007250Y004787D01*
X007250Y010667D01*
X007261Y010667D01*
X007467Y010752D01*
X007625Y010909D01*
X007710Y011115D01*
X007710Y011338D01*
X007625Y011544D01*
X007467Y011701D01*
X007261Y011787D01*
X007039Y011787D01*
X006981Y011763D01*
X006210Y012534D01*
X006240Y012605D01*
X006240Y012840D01*
X006150Y013057D01*
X005984Y013223D01*
X005767Y013313D01*
X005533Y013313D01*
X005316Y013223D01*
X005150Y013057D01*
X005060Y012840D01*
X005060Y012605D01*
X005109Y012487D01*
X003648Y012487D01*
X003625Y012544D01*
X003467Y012701D01*
X003261Y012787D01*
X003078Y012787D01*
X004258Y013967D01*
X006042Y013967D01*
X007580Y012429D01*
X007580Y011991D01*
X007914Y011657D01*
X008212Y011657D01*
X007930Y011374D01*
X007890Y011278D01*
X007890Y005334D01*
X007890Y005349D02*
X007250Y005349D01*
X007250Y005447D02*
X007890Y005447D01*
X007890Y005546D02*
X007250Y005546D01*
X007250Y005644D02*
X007890Y005644D01*
X007890Y005743D02*
X007250Y005743D01*
X007250Y005841D02*
X007890Y005841D01*
X007890Y005940D02*
X007250Y005940D01*
X007250Y006038D02*
X007890Y006038D01*
X007890Y006137D02*
X007250Y006137D01*
X007250Y006235D02*
X007890Y006235D01*
X007890Y006334D02*
X007250Y006334D01*
X007250Y006432D02*
X007890Y006432D01*
X007890Y006531D02*
X007250Y006531D01*
X007250Y006629D02*
X007890Y006629D01*
X007890Y006728D02*
X007250Y006728D01*
X007250Y006826D02*
X007890Y006826D01*
X007890Y006925D02*
X007250Y006925D01*
X007250Y007023D02*
X007890Y007023D01*
X007890Y007122D02*
X007250Y007122D01*
X007250Y007220D02*
X007890Y007220D01*
X007890Y007319D02*
X007250Y007319D01*
X007250Y007417D02*
X007890Y007417D01*
X007890Y007516D02*
X007250Y007516D01*
X007250Y007614D02*
X007890Y007614D01*
X007890Y007713D02*
X007250Y007713D01*
X007250Y007811D02*
X007890Y007811D01*
X007890Y007910D02*
X007250Y007910D01*
X007250Y008008D02*
X007890Y008008D01*
X007890Y008107D02*
X007250Y008107D01*
X007250Y008205D02*
X007890Y008205D01*
X007890Y008304D02*
X007250Y008304D01*
X007250Y008402D02*
X007890Y008402D01*
X007890Y008501D02*
X007250Y008501D01*
X007250Y008599D02*
X007890Y008599D01*
X007890Y008698D02*
X007250Y008698D01*
X007250Y008796D02*
X007890Y008796D01*
X007890Y008895D02*
X007250Y008895D01*
X007250Y008993D02*
X007890Y008993D01*
X007890Y009092D02*
X007250Y009092D01*
X007250Y009190D02*
X007890Y009190D01*
X007890Y009289D02*
X007250Y009289D01*
X007250Y009387D02*
X007890Y009387D01*
X007890Y009486D02*
X007250Y009486D01*
X007250Y009584D02*
X007890Y009584D01*
X007890Y009683D02*
X007250Y009683D01*
X007250Y009781D02*
X007890Y009781D01*
X007890Y009880D02*
X007250Y009880D01*
X007250Y009978D02*
X007890Y009978D01*
X007890Y010077D02*
X007250Y010077D01*
X007250Y010175D02*
X007890Y010175D01*
X007890Y010274D02*
X007250Y010274D01*
X007250Y010372D02*
X007890Y010372D01*
X007890Y010471D02*
X007250Y010471D01*
X007250Y010569D02*
X007890Y010569D01*
X007890Y010668D02*
X007264Y010668D01*
X007481Y010766D02*
X007890Y010766D01*
X007890Y010865D02*
X007580Y010865D01*
X007647Y010963D02*
X007890Y010963D01*
X007890Y011062D02*
X007688Y011062D01*
X007710Y011160D02*
X007890Y011160D01*
X007890Y011259D02*
X007710Y011259D01*
X007702Y011357D02*
X007923Y011357D01*
X008011Y011456D02*
X007661Y011456D01*
X007614Y011554D02*
X008110Y011554D01*
X008208Y011653D02*
X007516Y011653D01*
X007347Y011751D02*
X007819Y011751D01*
X007721Y011850D02*
X006895Y011850D01*
X006796Y011948D02*
X007622Y011948D01*
X007580Y012047D02*
X006698Y012047D01*
X006599Y012145D02*
X007580Y012145D01*
X007580Y012244D02*
X006501Y012244D01*
X006402Y012342D02*
X007580Y012342D01*
X007568Y012441D02*
X006304Y012441D01*
X006213Y012539D02*
X007470Y012539D01*
X007371Y012638D02*
X006240Y012638D01*
X006240Y012736D02*
X007273Y012736D01*
X007174Y012835D02*
X006240Y012835D01*
X006201Y012933D02*
X007076Y012933D01*
X006977Y013032D02*
X006161Y013032D01*
X006077Y013130D02*
X006879Y013130D01*
X006780Y013229D02*
X005970Y013229D01*
X006288Y013721D02*
X004012Y013721D01*
X003914Y013623D02*
X006386Y013623D01*
X006485Y013524D02*
X003815Y013524D01*
X003717Y013426D02*
X006583Y013426D01*
X006682Y013327D02*
X003618Y013327D01*
X003520Y013229D02*
X005330Y013229D01*
X005223Y013130D02*
X003421Y013130D01*
X003323Y013032D02*
X005139Y013032D01*
X005099Y012933D02*
X003224Y012933D01*
X003126Y012835D02*
X005060Y012835D01*
X005060Y012736D02*
X003383Y012736D01*
X003531Y012638D02*
X005060Y012638D01*
X005087Y012539D02*
X003627Y012539D01*
X003648Y011967D02*
X005042Y011967D01*
X005092Y011917D01*
X005060Y011840D01*
X005060Y011605D01*
X005150Y011389D01*
X005316Y011223D01*
X005533Y011133D01*
X005767Y011133D01*
X005984Y011223D01*
X006150Y011389D01*
X006240Y011605D01*
X006240Y011769D01*
X006614Y011395D01*
X006590Y011338D01*
X006590Y011115D01*
X006675Y010909D01*
X006758Y010827D01*
X001340Y010827D01*
X001340Y014627D01*
X006758Y014627D01*
X006675Y014544D01*
X006590Y014338D01*
X006590Y014154D01*
X006297Y014447D01*
X006202Y014487D01*
X004098Y014487D01*
X004003Y014447D01*
X003930Y014374D01*
X002319Y012763D01*
X002261Y012787D01*
X002039Y012787D01*
X001833Y012701D01*
X001675Y012544D01*
X001590Y012338D01*
X001590Y012115D01*
X001675Y011909D01*
X001833Y011752D01*
X002039Y011667D01*
X002261Y011667D01*
X002467Y011752D01*
X002625Y011909D01*
X002650Y011970D01*
X002675Y011909D01*
X002833Y011752D01*
X003039Y011667D01*
X003261Y011667D01*
X003467Y011752D01*
X003625Y011909D01*
X003648Y011967D01*
X003641Y011948D02*
X005061Y011948D01*
X005064Y011850D02*
X003565Y011850D01*
X003465Y011751D02*
X005060Y011751D01*
X005060Y011653D02*
X001340Y011653D01*
X001340Y011751D02*
X001835Y011751D01*
X001735Y011850D02*
X001340Y011850D01*
X001340Y011948D02*
X001659Y011948D01*
X001618Y012047D02*
X001340Y012047D01*
X001340Y012145D02*
X001590Y012145D01*
X001590Y012244D02*
X001340Y012244D01*
X001340Y012342D02*
X001592Y012342D01*
X001633Y012441D02*
X001340Y012441D01*
X001340Y012539D02*
X001673Y012539D01*
X001769Y012638D02*
X001340Y012638D01*
X001340Y012736D02*
X001917Y012736D01*
X002390Y012835D02*
X001340Y012835D01*
X001340Y012933D02*
X002489Y012933D01*
X002587Y013032D02*
X001340Y013032D01*
X001340Y013130D02*
X002686Y013130D01*
X002784Y013229D02*
X001340Y013229D01*
X001340Y013327D02*
X002883Y013327D01*
X002981Y013426D02*
X001340Y013426D01*
X001340Y013524D02*
X003080Y013524D01*
X003178Y013623D02*
X001340Y013623D01*
X001340Y013721D02*
X003277Y013721D01*
X003375Y013820D02*
X001340Y013820D01*
X001340Y013918D02*
X003474Y013918D01*
X003572Y014017D02*
X001340Y014017D01*
X001340Y014115D02*
X003671Y014115D01*
X003769Y014214D02*
X001340Y014214D01*
X001340Y014312D02*
X003868Y014312D01*
X003966Y014411D02*
X001340Y014411D01*
X001340Y014509D02*
X006661Y014509D01*
X006620Y014411D02*
X006334Y014411D01*
X006432Y014312D02*
X006590Y014312D01*
X006590Y014214D02*
X006531Y014214D01*
X006739Y014608D02*
X001340Y014608D01*
X001340Y015327D02*
X006550Y015327D01*
X006550Y020127D01*
X001340Y020127D01*
X001340Y015327D01*
X001340Y015396D02*
X006550Y015396D01*
X006550Y015494D02*
X001340Y015494D01*
X001340Y015593D02*
X006550Y015593D01*
X006550Y015691D02*
X001340Y015691D01*
X001340Y015790D02*
X006550Y015790D01*
X006550Y015888D02*
X002531Y015888D01*
X002500Y015888D02*
X002400Y015888D01*
X002400Y015883D02*
X002400Y016458D01*
X002500Y016458D01*
X002500Y015883D01*
X002596Y015899D01*
X002690Y015929D01*
X002778Y015974D01*
X002857Y016031D01*
X002927Y016101D01*
X002985Y016181D01*
X003029Y016268D01*
X003060Y016362D01*
X003075Y016458D01*
X002500Y016458D01*
X002500Y016558D01*
X003075Y016558D01*
X003060Y016655D01*
X003029Y016748D01*
X002985Y016836D01*
X002927Y016915D01*
X002857Y016985D01*
X002778Y017043D01*
X002690Y017087D01*
X002596Y017118D01*
X002500Y017133D01*
X002500Y016558D01*
X002400Y016558D01*
X002400Y016458D01*
X001825Y016458D01*
X001840Y016362D01*
X001871Y016268D01*
X001915Y016181D01*
X001973Y016101D01*
X002043Y016031D01*
X002122Y015974D01*
X002210Y015929D01*
X002304Y015899D01*
X002400Y015883D01*
X002369Y015888D02*
X001340Y015888D01*
X001340Y015987D02*
X002104Y015987D01*
X001989Y016085D02*
X001340Y016085D01*
X001340Y016184D02*
X001914Y016184D01*
X001866Y016282D02*
X001340Y016282D01*
X001340Y016381D02*
X001837Y016381D01*
X001825Y016558D02*
X002400Y016558D01*
X002400Y017133D01*
X002304Y017118D01*
X002210Y017087D01*
X002122Y017043D01*
X002043Y016985D01*
X001973Y016915D01*
X001915Y016836D01*
X001871Y016748D01*
X001840Y016655D01*
X001825Y016558D01*
X001828Y016578D02*
X001340Y016578D01*
X001340Y016676D02*
X001847Y016676D01*
X001884Y016775D02*
X001340Y016775D01*
X001340Y016873D02*
X001943Y016873D01*
X002030Y016972D02*
X001340Y016972D01*
X001340Y017070D02*
X002176Y017070D01*
X002400Y017070D02*
X002500Y017070D01*
X002500Y016972D02*
X002400Y016972D01*
X002400Y016873D02*
X002500Y016873D01*
X002500Y016775D02*
X002400Y016775D01*
X002400Y016676D02*
X002500Y016676D01*
X002500Y016578D02*
X002400Y016578D01*
X002400Y016479D02*
X001340Y016479D01*
X001340Y017169D02*
X005262Y017169D01*
X005316Y017223D02*
X005150Y017057D01*
X005060Y016840D01*
X005060Y016605D01*
X005150Y016389D01*
X005316Y016223D01*
X005533Y016133D01*
X005767Y016133D01*
X005984Y016223D01*
X006150Y016389D01*
X006240Y016605D01*
X006240Y016840D01*
X006150Y017057D01*
X005984Y017223D01*
X005767Y017313D01*
X005533Y017313D01*
X005316Y017223D01*
X005423Y017267D02*
X001340Y017267D01*
X001340Y017366D02*
X006550Y017366D01*
X006550Y017464D02*
X001340Y017464D01*
X001340Y017563D02*
X006550Y017563D01*
X006550Y017661D02*
X001340Y017661D01*
X001340Y017760D02*
X006550Y017760D01*
X006550Y017858D02*
X003050Y017858D01*
X003004Y017812D02*
X003115Y017923D01*
X003115Y019030D01*
X003004Y019142D01*
X001896Y019142D01*
X001785Y019030D01*
X001785Y017923D01*
X001896Y017812D01*
X003004Y017812D01*
X003115Y017957D02*
X006550Y017957D01*
X006550Y018055D02*
X003115Y018055D01*
X003115Y018154D02*
X006550Y018154D01*
X006550Y018252D02*
X005938Y018252D01*
X006008Y018303D01*
X006070Y018364D01*
X006120Y018434D01*
X006160Y018512D01*
X006186Y018594D01*
X006199Y018673D01*
X005700Y018673D01*
X005700Y018773D01*
X005600Y018773D01*
X005600Y019272D01*
X005521Y019259D01*
X005439Y019232D01*
X005362Y019193D01*
X005292Y019142D01*
X005230Y019081D01*
X005180Y019011D01*
X005140Y018934D01*
X005114Y018852D01*
X005101Y018773D01*
X005600Y018773D01*
X005600Y018673D01*
X005101Y018673D01*
X005114Y018594D01*
X005140Y018512D01*
X005180Y018434D01*
X005230Y018364D01*
X005292Y018303D01*
X005362Y018252D01*
X003115Y018252D01*
X003115Y018351D02*
X005244Y018351D01*
X005172Y018449D02*
X003115Y018449D01*
X003115Y018548D02*
X005129Y018548D01*
X005105Y018646D02*
X003115Y018646D01*
X003115Y018745D02*
X005600Y018745D01*
X005600Y018673D02*
X005700Y018673D01*
X005700Y018174D01*
X005779Y018186D01*
X005861Y018213D01*
X005938Y018252D01*
X006056Y018351D02*
X006550Y018351D01*
X006550Y018449D02*
X006128Y018449D01*
X006171Y018548D02*
X006550Y018548D01*
X006550Y018646D02*
X006195Y018646D01*
X006199Y018773D02*
X006186Y018852D01*
X006160Y018934D01*
X006120Y019011D01*
X006070Y019081D01*
X006008Y019142D01*
X005938Y019193D01*
X005861Y019232D01*
X005779Y019259D01*
X005700Y019272D01*
X005700Y018773D01*
X006199Y018773D01*
X006188Y018843D02*
X006550Y018843D01*
X006550Y018745D02*
X005700Y018745D01*
X005700Y018843D02*
X005600Y018843D01*
X005600Y018942D02*
X005700Y018942D01*
X005700Y019040D02*
X005600Y019040D01*
X005600Y019139D02*
X005700Y019139D01*
X005700Y019237D02*
X005600Y019237D01*
X005454Y019237D02*
X001340Y019237D01*
X001340Y019139D02*
X001893Y019139D01*
X001795Y019040D02*
X001340Y019040D01*
X001340Y018942D02*
X001785Y018942D01*
X001785Y018843D02*
X001340Y018843D01*
X001340Y018745D02*
X001785Y018745D01*
X001785Y018646D02*
X001340Y018646D01*
X001340Y018548D02*
X001785Y018548D01*
X001785Y018449D02*
X001340Y018449D01*
X001340Y018351D02*
X001785Y018351D01*
X001785Y018252D02*
X001340Y018252D01*
X001340Y018154D02*
X001785Y018154D01*
X001785Y018055D02*
X001340Y018055D01*
X001340Y017957D02*
X001785Y017957D01*
X001850Y017858D02*
X001340Y017858D01*
X001340Y019336D02*
X006550Y019336D01*
X006550Y019434D02*
X001340Y019434D01*
X001340Y019533D02*
X006550Y019533D01*
X006550Y019631D02*
X001340Y019631D01*
X001340Y019730D02*
X006550Y019730D01*
X006550Y019828D02*
X001340Y019828D01*
X001340Y019927D02*
X006550Y019927D01*
X006550Y020025D02*
X001340Y020025D01*
X001340Y020124D02*
X006550Y020124D01*
X006758Y020827D02*
X001340Y020827D01*
X001340Y024627D01*
X006758Y024627D01*
X006675Y024544D01*
X006590Y024338D01*
X006590Y024115D01*
X006675Y023909D01*
X006833Y023752D01*
X007039Y023667D01*
X007261Y023667D01*
X007467Y023752D01*
X007625Y023909D01*
X007710Y024115D01*
X007710Y024338D01*
X007686Y024395D01*
X007870Y024579D01*
X007890Y024627D01*
X007890Y022834D01*
X007720Y022664D01*
X007720Y022963D01*
X007386Y023297D01*
X006948Y023297D01*
X006297Y023947D01*
X006202Y023987D01*
X003598Y023987D01*
X003503Y023947D01*
X003430Y023874D01*
X002319Y022763D01*
X002261Y022787D01*
X002039Y022787D01*
X001833Y022701D01*
X001675Y022544D01*
X001590Y022338D01*
X001590Y022115D01*
X001675Y021909D01*
X001833Y021752D01*
X002039Y021667D01*
X002261Y021667D01*
X002467Y021752D01*
X002625Y021909D01*
X002650Y021970D01*
X002675Y021909D01*
X002833Y021752D01*
X003039Y021667D01*
X003261Y021667D01*
X003467Y021752D01*
X003625Y021909D01*
X003648Y021967D01*
X005042Y021967D01*
X005092Y021917D01*
X005060Y021840D01*
X005060Y021605D01*
X005150Y021389D01*
X005316Y021223D01*
X005533Y021133D01*
X005767Y021133D01*
X005984Y021223D01*
X006150Y021389D01*
X006240Y021605D01*
X006240Y021769D01*
X006614Y021395D01*
X006590Y021338D01*
X006590Y021115D01*
X006675Y020909D01*
X006758Y020827D01*
X006674Y020912D02*
X001340Y020912D01*
X001340Y021010D02*
X006634Y021010D01*
X006593Y021109D02*
X001340Y021109D01*
X001340Y021207D02*
X005353Y021207D01*
X005233Y021306D02*
X001340Y021306D01*
X001340Y021404D02*
X005143Y021404D01*
X005103Y021503D02*
X001340Y021503D01*
X001340Y021601D02*
X005062Y021601D01*
X005060Y021700D02*
X003341Y021700D01*
X003514Y021798D02*
X005060Y021798D01*
X005083Y021897D02*
X003612Y021897D01*
X003648Y022487D02*
X003625Y022544D01*
X003467Y022701D01*
X003261Y022787D01*
X003078Y022787D01*
X003758Y023467D01*
X006042Y023467D01*
X006580Y022929D01*
X006580Y022491D01*
X006914Y022157D01*
X007386Y022157D01*
X007390Y022161D01*
X007390Y021733D01*
X007261Y021787D01*
X007039Y021787D01*
X006981Y021763D01*
X006210Y022534D01*
X006240Y022605D01*
X006240Y022840D01*
X006150Y023057D01*
X005984Y023223D01*
X005767Y023313D01*
X005533Y023313D01*
X005316Y023223D01*
X005150Y023057D01*
X005060Y022840D01*
X005060Y022605D01*
X005109Y022487D01*
X003648Y022487D01*
X003648Y022488D02*
X005109Y022488D01*
X005068Y022586D02*
X003582Y022586D01*
X003484Y022685D02*
X005060Y022685D01*
X005060Y022783D02*
X003270Y022783D01*
X003173Y022882D02*
X005077Y022882D01*
X005118Y022980D02*
X003271Y022980D01*
X003370Y023079D02*
X005172Y023079D01*
X005270Y023177D02*
X003468Y023177D01*
X003567Y023276D02*
X005443Y023276D01*
X005857Y023276D02*
X006233Y023276D01*
X006135Y023374D02*
X003665Y023374D01*
X003422Y023867D02*
X001340Y023867D01*
X001340Y023965D02*
X003547Y023965D01*
X003324Y023768D02*
X001340Y023768D01*
X001340Y023670D02*
X003225Y023670D01*
X003127Y023571D02*
X001340Y023571D01*
X001340Y023473D02*
X003028Y023473D01*
X002930Y023374D02*
X001340Y023374D01*
X001340Y023276D02*
X002831Y023276D01*
X002733Y023177D02*
X001340Y023177D01*
X001340Y023079D02*
X002634Y023079D01*
X002536Y022980D02*
X001340Y022980D01*
X001340Y022882D02*
X002437Y022882D01*
X002339Y022783D02*
X002270Y022783D01*
X002030Y022783D02*
X001340Y022783D01*
X001340Y022685D02*
X001816Y022685D01*
X001718Y022586D02*
X001340Y022586D01*
X001340Y022488D02*
X001652Y022488D01*
X001611Y022389D02*
X001340Y022389D01*
X001340Y022291D02*
X001590Y022291D01*
X001590Y022192D02*
X001340Y022192D01*
X001340Y022094D02*
X001599Y022094D01*
X001640Y021995D02*
X001340Y021995D01*
X001340Y021897D02*
X001688Y021897D01*
X001786Y021798D02*
X001340Y021798D01*
X001340Y021700D02*
X001959Y021700D01*
X002341Y021700D02*
X002959Y021700D01*
X002786Y021798D02*
X002514Y021798D01*
X002612Y021897D02*
X002688Y021897D01*
X001340Y024064D02*
X006611Y024064D01*
X006590Y024162D02*
X001340Y024162D01*
X001340Y024261D02*
X006590Y024261D01*
X006599Y024359D02*
X001340Y024359D01*
X001340Y024458D02*
X006640Y024458D01*
X006688Y024556D02*
X001340Y024556D01*
X001340Y025327D02*
X001340Y030037D01*
X006550Y030037D01*
X006550Y025327D01*
X001340Y025327D01*
X001340Y025344D02*
X006550Y025344D01*
X006550Y025443D02*
X001340Y025443D01*
X001340Y025541D02*
X006550Y025541D01*
X006550Y025640D02*
X001340Y025640D01*
X001340Y025738D02*
X006550Y025738D01*
X006550Y025837D02*
X002522Y025837D01*
X002500Y025837D02*
X002400Y025837D01*
X002400Y025833D02*
X002400Y026408D01*
X002500Y026408D01*
X002500Y025833D01*
X002596Y025849D01*
X002690Y025879D01*
X002778Y025924D01*
X002857Y025981D01*
X002927Y026051D01*
X002985Y026131D01*
X003029Y026218D01*
X003060Y026312D01*
X003075Y026408D01*
X002500Y026408D01*
X002500Y026508D01*
X003075Y026508D01*
X003060Y026605D01*
X003029Y026698D01*
X002985Y026786D01*
X002927Y026865D01*
X002857Y026935D01*
X002778Y026993D01*
X002690Y027037D01*
X002596Y027068D01*
X002500Y027083D01*
X002500Y026508D01*
X002400Y026508D01*
X002400Y026408D01*
X001825Y026408D01*
X001840Y026312D01*
X001871Y026218D01*
X001915Y026131D01*
X001973Y026051D01*
X002043Y025981D01*
X002122Y025924D01*
X002210Y025879D01*
X002304Y025849D01*
X002400Y025833D01*
X002378Y025837D02*
X001340Y025837D01*
X001340Y025935D02*
X002106Y025935D01*
X001991Y026034D02*
X001340Y026034D01*
X001340Y026132D02*
X001915Y026132D01*
X001867Y026231D02*
X001340Y026231D01*
X001340Y026329D02*
X001838Y026329D01*
X001825Y026508D02*
X002400Y026508D01*
X002400Y027083D01*
X002304Y027068D01*
X002210Y027037D01*
X002122Y026993D01*
X002043Y026935D01*
X001973Y026865D01*
X001915Y026786D01*
X001871Y026698D01*
X001840Y026605D01*
X001825Y026508D01*
X001828Y026526D02*
X001340Y026526D01*
X001340Y026428D02*
X002400Y026428D01*
X002400Y026526D02*
X002500Y026526D01*
X002500Y026428D02*
X005134Y026428D01*
X005150Y026389D02*
X005060Y026605D01*
X005060Y026840D01*
X005150Y027057D01*
X005316Y027223D01*
X005533Y027313D01*
X005767Y027313D01*
X005984Y027223D01*
X006150Y027057D01*
X006240Y026840D01*
X006240Y026605D01*
X006150Y026389D01*
X005984Y026223D01*
X005767Y026133D01*
X005533Y026133D01*
X005316Y026223D01*
X005150Y026389D01*
X005209Y026329D02*
X003062Y026329D01*
X003033Y026231D02*
X005308Y026231D01*
X005093Y026526D02*
X003072Y026526D01*
X003053Y026625D02*
X005060Y026625D01*
X005060Y026723D02*
X003016Y026723D01*
X002958Y026822D02*
X005060Y026822D01*
X005093Y026920D02*
X002872Y026920D01*
X002726Y027019D02*
X005134Y027019D01*
X005210Y027117D02*
X001340Y027117D01*
X001340Y027019D02*
X002174Y027019D01*
X002028Y026920D02*
X001340Y026920D01*
X001340Y026822D02*
X001942Y026822D01*
X001884Y026723D02*
X001340Y026723D01*
X001340Y026625D02*
X001847Y026625D01*
X002400Y026625D02*
X002500Y026625D01*
X002500Y026723D02*
X002400Y026723D01*
X002400Y026822D02*
X002500Y026822D01*
X002500Y026920D02*
X002400Y026920D01*
X002400Y027019D02*
X002500Y027019D01*
X002500Y026329D02*
X002400Y026329D01*
X002400Y026231D02*
X002500Y026231D01*
X002500Y026132D02*
X002400Y026132D01*
X002400Y026034D02*
X002500Y026034D01*
X002500Y025935D02*
X002400Y025935D01*
X002794Y025935D02*
X006550Y025935D01*
X006550Y026034D02*
X002909Y026034D01*
X002985Y026132D02*
X006550Y026132D01*
X006550Y026231D02*
X005992Y026231D01*
X006091Y026329D02*
X006550Y026329D01*
X006550Y026428D02*
X006166Y026428D01*
X006207Y026526D02*
X006550Y026526D01*
X006550Y026625D02*
X006240Y026625D01*
X006240Y026723D02*
X006550Y026723D01*
X006550Y026822D02*
X006240Y026822D01*
X006207Y026920D02*
X006550Y026920D01*
X006550Y027019D02*
X006166Y027019D01*
X006090Y027117D02*
X006550Y027117D01*
X006550Y027216D02*
X005991Y027216D01*
X005779Y028186D02*
X005861Y028213D01*
X005938Y028252D01*
X006008Y028303D01*
X006070Y028364D01*
X006120Y028434D01*
X006160Y028512D01*
X006186Y028594D01*
X006199Y028673D01*
X005700Y028673D01*
X005700Y028773D01*
X005600Y028773D01*
X005600Y029272D01*
X005521Y029259D01*
X005439Y029232D01*
X005362Y029193D01*
X005292Y029142D01*
X005230Y029081D01*
X005180Y029011D01*
X005140Y028934D01*
X005114Y028852D01*
X005101Y028773D01*
X005600Y028773D01*
X005600Y028673D01*
X005101Y028673D01*
X005114Y028594D01*
X005140Y028512D01*
X005180Y028434D01*
X005230Y028364D01*
X005292Y028303D01*
X005362Y028252D01*
X005439Y028213D01*
X005521Y028186D01*
X005600Y028174D01*
X005600Y028673D01*
X005700Y028673D01*
X005700Y028174D01*
X005779Y028186D01*
X005823Y028201D02*
X006550Y028201D01*
X006550Y028299D02*
X006003Y028299D01*
X006094Y028398D02*
X006550Y028398D01*
X006550Y028496D02*
X006152Y028496D01*
X006187Y028595D02*
X006550Y028595D01*
X006550Y028693D02*
X005700Y028693D01*
X005700Y028773D02*
X006199Y028773D01*
X006186Y028852D01*
X006160Y028934D01*
X006120Y029011D01*
X006070Y029081D01*
X006008Y029142D01*
X005938Y029193D01*
X005861Y029232D01*
X005779Y029259D01*
X005700Y029272D01*
X005700Y028773D01*
X005700Y028792D02*
X005600Y028792D01*
X005600Y028890D02*
X005700Y028890D01*
X005700Y028989D02*
X005600Y028989D01*
X005600Y029087D02*
X005700Y029087D01*
X005700Y029186D02*
X005600Y029186D01*
X005352Y029186D02*
X001340Y029186D01*
X001340Y029284D02*
X006550Y029284D01*
X006550Y029186D02*
X005948Y029186D01*
X006063Y029087D02*
X006550Y029087D01*
X006550Y028989D02*
X006132Y028989D01*
X006174Y028890D02*
X006550Y028890D01*
X006550Y028792D02*
X006196Y028792D01*
X006550Y029383D02*
X001340Y029383D01*
X001340Y029481D02*
X006550Y029481D01*
X006550Y029580D02*
X001340Y029580D01*
X001340Y029678D02*
X006550Y029678D01*
X006550Y029777D02*
X001340Y029777D01*
X001340Y029875D02*
X006550Y029875D01*
X006550Y029974D02*
X001340Y029974D01*
X001340Y029087D02*
X001892Y029087D01*
X001896Y029092D02*
X001785Y028980D01*
X001785Y027873D01*
X001896Y027762D01*
X003004Y027762D01*
X003115Y027873D01*
X003115Y028980D01*
X003004Y029092D01*
X001896Y029092D01*
X001793Y028989D02*
X001340Y028989D01*
X001340Y028890D02*
X001785Y028890D01*
X001785Y028792D02*
X001340Y028792D01*
X001340Y028693D02*
X001785Y028693D01*
X001785Y028595D02*
X001340Y028595D01*
X001340Y028496D02*
X001785Y028496D01*
X001785Y028398D02*
X001340Y028398D01*
X001340Y028299D02*
X001785Y028299D01*
X001785Y028201D02*
X001340Y028201D01*
X001340Y028102D02*
X001785Y028102D01*
X001785Y028004D02*
X001340Y028004D01*
X001340Y027905D02*
X001785Y027905D01*
X001851Y027807D02*
X001340Y027807D01*
X001340Y027708D02*
X006550Y027708D01*
X006550Y027610D02*
X001340Y027610D01*
X001340Y027511D02*
X006550Y027511D01*
X006550Y027413D02*
X001340Y027413D01*
X001340Y027314D02*
X006550Y027314D01*
X006550Y027807D02*
X003049Y027807D01*
X003115Y027905D02*
X006550Y027905D01*
X006550Y028004D02*
X003115Y028004D01*
X003115Y028102D02*
X006550Y028102D01*
X007250Y028102D02*
X008677Y028102D01*
X008961Y027905D02*
X007250Y027905D01*
X007250Y027807D02*
X008862Y027807D01*
X008764Y027708D02*
X007250Y027708D01*
X007250Y027610D02*
X008665Y027610D01*
X008567Y027511D02*
X007250Y027511D01*
X007250Y027413D02*
X008468Y027413D01*
X008370Y027314D02*
X007250Y027314D01*
X007250Y027216D02*
X008271Y027216D01*
X008173Y027117D02*
X007250Y027117D01*
X007250Y027019D02*
X008074Y027019D01*
X007976Y026920D02*
X007250Y026920D01*
X007250Y026822D02*
X007877Y026822D01*
X007779Y026723D02*
X007250Y026723D01*
X007250Y026625D02*
X007680Y026625D01*
X007582Y026526D02*
X007250Y026526D01*
X007250Y026428D02*
X007483Y026428D01*
X007411Y026329D02*
X007250Y026329D01*
X007250Y026231D02*
X007390Y026231D01*
X007390Y026132D02*
X007250Y026132D01*
X007250Y026034D02*
X007390Y026034D01*
X007390Y025935D02*
X007250Y025935D01*
X007250Y025837D02*
X007390Y025837D01*
X007390Y025738D02*
X007250Y025738D01*
X007250Y025640D02*
X007390Y025640D01*
X007390Y025541D02*
X007250Y025541D01*
X007250Y025443D02*
X007390Y025443D01*
X007390Y025344D02*
X007250Y025344D01*
X007250Y025246D02*
X007390Y025246D01*
X007390Y025147D02*
X007250Y025147D01*
X007250Y025049D02*
X007390Y025049D01*
X007390Y024950D02*
X007250Y024950D01*
X007250Y024852D02*
X007390Y024852D01*
X007749Y024458D02*
X007890Y024458D01*
X007890Y024556D02*
X007847Y024556D01*
X007890Y024359D02*
X007701Y024359D01*
X007710Y024261D02*
X007890Y024261D01*
X007890Y024162D02*
X007710Y024162D01*
X007689Y024064D02*
X007890Y024064D01*
X007890Y023965D02*
X007648Y023965D01*
X007582Y023867D02*
X007890Y023867D01*
X007890Y023768D02*
X007484Y023768D01*
X007269Y023670D02*
X007890Y023670D01*
X007890Y023571D02*
X006673Y023571D01*
X006772Y023473D02*
X007890Y023473D01*
X007890Y023374D02*
X006870Y023374D01*
X007031Y023670D02*
X006575Y023670D01*
X006476Y023768D02*
X006816Y023768D01*
X006718Y023867D02*
X006378Y023867D01*
X006253Y023965D02*
X006652Y023965D01*
X006332Y023177D02*
X006030Y023177D01*
X006128Y023079D02*
X006430Y023079D01*
X006529Y022980D02*
X006182Y022980D01*
X006223Y022882D02*
X006580Y022882D01*
X006580Y022783D02*
X006240Y022783D01*
X006240Y022685D02*
X006580Y022685D01*
X006580Y022586D02*
X006232Y022586D01*
X006257Y022488D02*
X006583Y022488D01*
X006681Y022389D02*
X006355Y022389D01*
X006454Y022291D02*
X006780Y022291D01*
X006878Y022192D02*
X006552Y022192D01*
X006651Y022094D02*
X007390Y022094D01*
X007390Y021995D02*
X006749Y021995D01*
X006848Y021897D02*
X007390Y021897D01*
X007390Y021798D02*
X006946Y021798D01*
X006605Y021404D02*
X006157Y021404D01*
X006197Y021503D02*
X006506Y021503D01*
X006408Y021601D02*
X006238Y021601D01*
X006240Y021700D02*
X006309Y021700D01*
X006067Y021306D02*
X006590Y021306D01*
X006590Y021207D02*
X005947Y021207D01*
X005846Y019237D02*
X006550Y019237D01*
X006550Y019139D02*
X006012Y019139D01*
X006099Y019040D02*
X006550Y019040D01*
X006550Y018942D02*
X006156Y018942D01*
X005700Y018646D02*
X005600Y018646D01*
X005600Y018673D02*
X005600Y018174D01*
X005521Y018186D01*
X005439Y018213D01*
X005362Y018252D01*
X005600Y018252D02*
X005700Y018252D01*
X005700Y018351D02*
X005600Y018351D01*
X005600Y018449D02*
X005700Y018449D01*
X005700Y018548D02*
X005600Y018548D01*
X005201Y019040D02*
X003105Y019040D01*
X003115Y018942D02*
X005144Y018942D01*
X005112Y018843D02*
X003115Y018843D01*
X003007Y019139D02*
X005288Y019139D01*
X005877Y017267D02*
X006550Y017267D01*
X006550Y017169D02*
X006038Y017169D01*
X006137Y017070D02*
X006550Y017070D01*
X006550Y016972D02*
X006185Y016972D01*
X006226Y016873D02*
X006550Y016873D01*
X006550Y016775D02*
X006240Y016775D01*
X006240Y016676D02*
X006550Y016676D01*
X006550Y016578D02*
X006229Y016578D01*
X006188Y016479D02*
X006550Y016479D01*
X006550Y016381D02*
X006142Y016381D01*
X006044Y016282D02*
X006550Y016282D01*
X006550Y016184D02*
X005890Y016184D01*
X005410Y016184D02*
X002986Y016184D01*
X003034Y016282D02*
X005256Y016282D01*
X005158Y016381D02*
X003063Y016381D01*
X003072Y016578D02*
X005071Y016578D01*
X005060Y016676D02*
X003053Y016676D01*
X003016Y016775D02*
X005060Y016775D01*
X005074Y016873D02*
X002957Y016873D01*
X002870Y016972D02*
X005115Y016972D01*
X005163Y017070D02*
X002724Y017070D01*
X002500Y016479D02*
X005112Y016479D01*
X006550Y016085D02*
X002911Y016085D01*
X002796Y015987D02*
X006550Y015987D01*
X007250Y015987D02*
X008390Y015987D01*
X008390Y016085D02*
X007250Y016085D01*
X007250Y016184D02*
X008390Y016184D01*
X008390Y016282D02*
X007250Y016282D01*
X007250Y016381D02*
X008390Y016381D01*
X008390Y016479D02*
X007250Y016479D01*
X007250Y016578D02*
X008390Y016578D01*
X008390Y016676D02*
X007250Y016676D01*
X007250Y016775D02*
X008390Y016775D01*
X008390Y016873D02*
X007250Y016873D01*
X007250Y016972D02*
X008390Y016972D01*
X008390Y017070D02*
X007250Y017070D01*
X007250Y017169D02*
X008390Y017169D01*
X008390Y017267D02*
X007250Y017267D01*
X007250Y017366D02*
X008390Y017366D01*
X008390Y017464D02*
X007250Y017464D01*
X007250Y017563D02*
X008390Y017563D01*
X008390Y017661D02*
X007250Y017661D01*
X007250Y017760D02*
X008390Y017760D01*
X008390Y017858D02*
X007250Y017858D01*
X007250Y017957D02*
X008390Y017957D01*
X008390Y018055D02*
X007250Y018055D01*
X007250Y018154D02*
X008390Y018154D01*
X008390Y018252D02*
X007250Y018252D01*
X007250Y018351D02*
X008390Y018351D01*
X008390Y018449D02*
X007250Y018449D01*
X007250Y018548D02*
X008390Y018548D01*
X008390Y018646D02*
X007250Y018646D01*
X007250Y018745D02*
X008390Y018745D01*
X008390Y018843D02*
X007250Y018843D01*
X007250Y018942D02*
X008390Y018942D01*
X008390Y019040D02*
X007250Y019040D01*
X007250Y019139D02*
X008390Y019139D01*
X008390Y019237D02*
X007250Y019237D01*
X007250Y019336D02*
X008390Y019336D01*
X008390Y019434D02*
X007250Y019434D01*
X007250Y019533D02*
X008390Y019533D01*
X008390Y019631D02*
X007250Y019631D01*
X007250Y019730D02*
X008390Y019730D01*
X008390Y019828D02*
X007250Y019828D01*
X007250Y019927D02*
X008390Y019927D01*
X008390Y020025D02*
X007250Y020025D01*
X007250Y020124D02*
X008390Y020124D01*
X008390Y020222D02*
X007250Y020222D01*
X007250Y020321D02*
X008390Y020321D01*
X008390Y020419D02*
X007250Y020419D01*
X007250Y020518D02*
X008390Y020518D01*
X008390Y020616D02*
X007250Y020616D01*
X007250Y020667D02*
X007261Y020667D01*
X007467Y020752D01*
X007625Y020909D01*
X007710Y021115D01*
X007710Y021299D01*
X008390Y020619D01*
X008390Y015834D01*
X007319Y014763D01*
X007261Y014787D01*
X007250Y014787D01*
X007250Y020667D01*
X007377Y020715D02*
X008294Y020715D01*
X008196Y020813D02*
X007529Y020813D01*
X007626Y020912D02*
X008097Y020912D01*
X007999Y021010D02*
X007666Y021010D01*
X007707Y021109D02*
X007900Y021109D01*
X007802Y021207D02*
X007710Y021207D01*
X008143Y021601D02*
X008408Y021601D01*
X008506Y021503D02*
X008242Y021503D01*
X008340Y021404D02*
X008580Y021404D01*
X008580Y021429D02*
X008580Y021164D01*
X007910Y021834D01*
X007910Y022119D01*
X007912Y022121D01*
X007930Y022079D01*
X008580Y021429D01*
X008580Y021306D02*
X008439Y021306D01*
X008537Y021207D02*
X008580Y021207D01*
X008309Y021700D02*
X008045Y021700D01*
X007946Y021798D02*
X008211Y021798D01*
X008112Y021897D02*
X007910Y021897D01*
X007910Y021995D02*
X008014Y021995D01*
X007924Y022094D02*
X007910Y022094D01*
X007740Y022685D02*
X007720Y022685D01*
X007720Y022783D02*
X007839Y022783D01*
X007890Y022882D02*
X007720Y022882D01*
X007703Y022980D02*
X007890Y022980D01*
X007890Y023079D02*
X007604Y023079D01*
X007506Y023177D02*
X007890Y023177D01*
X007890Y023276D02*
X007407Y023276D01*
X008518Y022227D02*
X008580Y022164D01*
X008580Y022289D01*
X008518Y022227D01*
X008552Y022192D02*
X008580Y022192D01*
X008910Y022793D02*
X008910Y023127D01*
X008930Y023079D01*
X008910Y023079D01*
X008930Y023079D02*
X009003Y023006D01*
X009212Y022797D01*
X008914Y022797D01*
X008910Y022793D01*
X008910Y022882D02*
X009127Y022882D01*
X009029Y022980D02*
X008910Y022980D01*
X009003Y023006D02*
X009003Y023006D01*
X009410Y023334D02*
X009410Y024119D01*
X009709Y024418D01*
X009900Y024227D01*
X009620Y023946D01*
X009620Y023507D01*
X009890Y023237D01*
X009890Y023175D01*
X009930Y023079D01*
X009666Y023079D01*
X009764Y022980D02*
X010029Y022980D01*
X010080Y022929D02*
X010080Y022664D01*
X009410Y023334D01*
X009410Y023374D02*
X009753Y023374D01*
X009851Y023276D02*
X009469Y023276D01*
X009567Y023177D02*
X009890Y023177D01*
X009930Y023079D02*
X010080Y022929D01*
X010080Y022882D02*
X009863Y022882D01*
X009961Y022783D02*
X010080Y022783D01*
X010080Y022685D02*
X010060Y022685D01*
X009720Y022289D02*
X009720Y022024D01*
X010797Y020947D01*
X010870Y020874D01*
X010890Y020827D01*
X010890Y021119D01*
X009720Y022289D01*
X009720Y022192D02*
X009817Y022192D01*
X009720Y022094D02*
X009915Y022094D01*
X010014Y021995D02*
X009749Y021995D01*
X009848Y021897D02*
X010112Y021897D01*
X010211Y021798D02*
X009946Y021798D01*
X010045Y021700D02*
X010309Y021700D01*
X010408Y021601D02*
X010143Y021601D01*
X010242Y021503D02*
X010506Y021503D01*
X010605Y021404D02*
X010340Y021404D01*
X010439Y021306D02*
X010703Y021306D01*
X010802Y021207D02*
X010537Y021207D01*
X010636Y021109D02*
X010890Y021109D01*
X010890Y021010D02*
X010734Y021010D01*
X010833Y020912D02*
X010890Y020912D01*
X011242Y021503D02*
X011390Y021503D01*
X011390Y021601D02*
X011143Y021601D01*
X011045Y021700D02*
X011390Y021700D01*
X011390Y021798D02*
X010946Y021798D01*
X010848Y021897D02*
X011390Y021897D01*
X011390Y021995D02*
X010749Y021995D01*
X010651Y022094D02*
X011390Y022094D01*
X011390Y022192D02*
X010922Y022192D01*
X010886Y022157D02*
X010588Y022157D01*
X011370Y021374D01*
X011390Y021327D01*
X011390Y023278D01*
X011430Y023374D01*
X010547Y023374D01*
X010470Y023297D02*
X010680Y023507D01*
X010680Y023889D01*
X011870Y025079D01*
X011910Y025175D01*
X011910Y026778D01*
X011870Y026874D01*
X011797Y026947D01*
X011448Y027296D01*
X011587Y027435D01*
X011650Y027588D01*
X011713Y027435D01*
X011858Y027290D01*
X012048Y027212D01*
X012252Y027212D01*
X012442Y027290D01*
X012580Y027429D01*
X012841Y027168D01*
X012620Y026946D01*
X012620Y026507D01*
X012900Y026227D01*
X012620Y025946D01*
X012620Y025507D01*
X012900Y025227D01*
X012620Y024946D01*
X012620Y024564D01*
X011503Y023447D01*
X011430Y023374D01*
X011390Y023276D02*
X010907Y023276D01*
X010886Y023297D02*
X010470Y023297D01*
X010646Y023473D02*
X011528Y023473D01*
X011627Y023571D02*
X010680Y023571D01*
X010680Y023670D02*
X011725Y023670D01*
X011824Y023768D02*
X010680Y023768D01*
X010680Y023867D02*
X011922Y023867D01*
X012021Y023965D02*
X010756Y023965D01*
X010855Y024064D02*
X012119Y024064D01*
X012218Y024162D02*
X010953Y024162D01*
X011052Y024261D02*
X012316Y024261D01*
X012415Y024359D02*
X011150Y024359D01*
X011249Y024458D02*
X012513Y024458D01*
X012612Y024556D02*
X011347Y024556D01*
X011446Y024655D02*
X012620Y024655D01*
X012620Y024753D02*
X011544Y024753D01*
X011643Y024852D02*
X012620Y024852D01*
X012624Y024950D02*
X011741Y024950D01*
X011840Y025049D02*
X012723Y025049D01*
X012821Y025147D02*
X011899Y025147D01*
X011910Y025246D02*
X012881Y025246D01*
X012783Y025344D02*
X011910Y025344D01*
X011910Y025443D02*
X012684Y025443D01*
X012620Y025541D02*
X011910Y025541D01*
X011910Y025640D02*
X012620Y025640D01*
X012620Y025738D02*
X011910Y025738D01*
X011910Y025837D02*
X012620Y025837D01*
X012620Y025935D02*
X011910Y025935D01*
X011910Y026034D02*
X012708Y026034D01*
X012806Y026132D02*
X011910Y026132D01*
X011910Y026231D02*
X012896Y026231D01*
X012798Y026329D02*
X011910Y026329D01*
X011910Y026428D02*
X012699Y026428D01*
X012620Y026526D02*
X011910Y026526D01*
X011910Y026625D02*
X012620Y026625D01*
X012620Y026723D02*
X011910Y026723D01*
X011892Y026822D02*
X012620Y026822D01*
X012620Y026920D02*
X011824Y026920D01*
X011726Y027019D02*
X012693Y027019D01*
X012791Y027117D02*
X011627Y027117D01*
X011529Y027216D02*
X012038Y027216D01*
X012262Y027216D02*
X012793Y027216D01*
X012695Y027314D02*
X012466Y027314D01*
X012564Y027413D02*
X012596Y027413D01*
X012383Y028188D02*
X012252Y028242D01*
X012048Y028242D01*
X011858Y028163D01*
X011713Y028018D01*
X011650Y027865D01*
X011587Y028018D01*
X011442Y028163D01*
X011252Y028242D01*
X011048Y028242D01*
X010858Y028163D01*
X010713Y028018D01*
X010635Y027829D01*
X010635Y027624D01*
X010646Y027599D01*
X010370Y027874D01*
X010297Y027947D01*
X010202Y027987D01*
X010098Y027987D01*
X010003Y027947D01*
X009542Y027487D01*
X009278Y027487D01*
X011258Y029467D01*
X014294Y029467D01*
X014186Y029422D01*
X013955Y029191D01*
X013830Y028890D01*
X013830Y028564D01*
X013955Y028262D01*
X014186Y028032D01*
X014487Y027907D01*
X014813Y027907D01*
X015114Y028032D01*
X015114Y028032D01*
X015345Y028262D01*
X015345Y028262D01*
X015390Y028370D01*
X015390Y027834D01*
X015352Y027797D01*
X014914Y027797D01*
X014580Y027463D01*
X014580Y026991D01*
X014914Y026657D01*
X015386Y026657D01*
X015390Y026661D01*
X015390Y025827D01*
X015370Y025874D01*
X015297Y025947D01*
X012987Y028257D01*
X013220Y028491D01*
X013220Y028963D01*
X012886Y029297D01*
X012414Y029297D01*
X012080Y028963D01*
X012080Y028491D01*
X012383Y028188D01*
X012370Y028201D02*
X012351Y028201D01*
X012271Y028299D02*
X010090Y028299D01*
X009992Y028201D02*
X010949Y028201D01*
X010797Y028102D02*
X009893Y028102D01*
X009795Y028004D02*
X010707Y028004D01*
X010667Y027905D02*
X010339Y027905D01*
X010438Y027807D02*
X010635Y027807D01*
X010635Y027708D02*
X010536Y027708D01*
X010635Y027610D02*
X010641Y027610D01*
X010252Y027257D02*
X010150Y027359D01*
X010048Y027257D01*
X010252Y027257D01*
X010195Y027314D02*
X010105Y027314D01*
X009764Y027708D02*
X009499Y027708D01*
X009401Y027610D02*
X009665Y027610D01*
X009567Y027511D02*
X009302Y027511D01*
X009598Y027807D02*
X009862Y027807D01*
X009961Y027905D02*
X009696Y027905D01*
X010189Y028398D02*
X012173Y028398D01*
X012080Y028496D02*
X010287Y028496D01*
X010386Y028595D02*
X012080Y028595D01*
X012080Y028693D02*
X010484Y028693D01*
X010583Y028792D02*
X012080Y028792D01*
X012080Y028890D02*
X010681Y028890D01*
X010780Y028989D02*
X012106Y028989D01*
X012204Y029087D02*
X010878Y029087D01*
X010977Y029186D02*
X012303Y029186D01*
X012401Y029284D02*
X011075Y029284D01*
X011174Y029383D02*
X014146Y029383D01*
X014186Y029422D02*
X014186Y029422D01*
X014048Y029284D02*
X012899Y029284D01*
X012997Y029186D02*
X013953Y029186D01*
X013955Y029191D02*
X013955Y029191D01*
X013912Y029087D02*
X013096Y029087D01*
X013194Y028989D02*
X013871Y028989D01*
X013830Y028890D02*
X013220Y028890D01*
X013220Y028792D02*
X013830Y028792D01*
X013830Y028693D02*
X013220Y028693D01*
X013220Y028595D02*
X013830Y028595D01*
X013858Y028496D02*
X013220Y028496D01*
X013127Y028398D02*
X013899Y028398D01*
X013939Y028299D02*
X013029Y028299D01*
X013044Y028201D02*
X014016Y028201D01*
X013955Y028262D02*
X013955Y028262D01*
X014115Y028102D02*
X013142Y028102D01*
X013241Y028004D02*
X014253Y028004D01*
X014186Y028032D02*
X014186Y028032D01*
X014186Y028032D01*
X014628Y027511D02*
X013733Y027511D01*
X013832Y027413D02*
X014580Y027413D01*
X014580Y027314D02*
X013930Y027314D01*
X014029Y027216D02*
X014580Y027216D01*
X014580Y027117D02*
X014127Y027117D01*
X014226Y027019D02*
X014580Y027019D01*
X014650Y026920D02*
X014324Y026920D01*
X014423Y026822D02*
X014749Y026822D01*
X014847Y026723D02*
X014521Y026723D01*
X014620Y026625D02*
X015390Y026625D01*
X015390Y026526D02*
X014718Y026526D01*
X014817Y026428D02*
X015390Y026428D01*
X015390Y026329D02*
X014915Y026329D01*
X015014Y026231D02*
X015390Y026231D01*
X015390Y026132D02*
X015112Y026132D01*
X015211Y026034D02*
X015390Y026034D01*
X015390Y025935D02*
X015309Y025935D01*
X015386Y025837D02*
X015390Y025837D01*
X015910Y025837D02*
X015960Y025837D01*
X015960Y025935D02*
X015910Y025935D01*
X015910Y026034D02*
X015960Y026034D01*
X015960Y026132D02*
X015910Y026132D01*
X015910Y026231D02*
X015960Y026231D01*
X015960Y026329D02*
X015910Y026329D01*
X015910Y026428D02*
X015960Y026428D01*
X015960Y026526D02*
X015910Y026526D01*
X015910Y026625D02*
X015960Y026625D01*
X015960Y026723D02*
X015910Y026723D01*
X015910Y026822D02*
X015960Y026822D01*
X015960Y026920D02*
X015910Y026920D01*
X015910Y027019D02*
X015960Y027019D01*
X015960Y027117D02*
X015910Y027117D01*
X015910Y027216D02*
X015960Y027216D01*
X015960Y027314D02*
X015910Y027314D01*
X015910Y027413D02*
X015960Y027413D01*
X015960Y027511D02*
X015910Y027511D01*
X015910Y027610D02*
X015960Y027610D01*
X015960Y027708D02*
X015910Y027708D01*
X015910Y027807D02*
X015960Y027807D01*
X015960Y027905D02*
X015910Y027905D01*
X015910Y028004D02*
X015960Y028004D01*
X015960Y028102D02*
X015910Y028102D01*
X015910Y028201D02*
X015960Y028201D01*
X015960Y028299D02*
X015910Y028299D01*
X015910Y028398D02*
X015960Y028398D01*
X015960Y028496D02*
X015910Y028496D01*
X015910Y028595D02*
X015960Y028595D01*
X015960Y028693D02*
X015910Y028693D01*
X015910Y028792D02*
X015960Y028792D01*
X015960Y028890D02*
X015910Y028890D01*
X015910Y028989D02*
X015960Y028989D01*
X015960Y029087D02*
X015910Y029087D01*
X015910Y029186D02*
X015960Y029186D01*
X015960Y029284D02*
X015908Y029284D01*
X015862Y029383D02*
X015960Y029383D01*
X015960Y029481D02*
X015763Y029481D01*
X015665Y029580D02*
X015960Y029580D01*
X015960Y029678D02*
X015566Y029678D01*
X015468Y029777D02*
X015960Y029777D01*
X015960Y029875D02*
X015369Y029875D01*
X015233Y029974D02*
X015960Y029974D01*
X015364Y029144D02*
X015390Y029119D01*
X015390Y029083D01*
X015364Y029144D01*
X015388Y029087D02*
X015390Y029087D01*
X015068Y029441D02*
X015042Y029467D01*
X015006Y029467D01*
X015068Y029441D01*
X015361Y028299D02*
X015390Y028299D01*
X015390Y028201D02*
X015284Y028201D01*
X015185Y028102D02*
X015390Y028102D01*
X015390Y028004D02*
X015047Y028004D01*
X014825Y027708D02*
X013536Y027708D01*
X013635Y027610D02*
X014727Y027610D01*
X015362Y027807D02*
X013438Y027807D01*
X013339Y027905D02*
X015390Y027905D01*
X014180Y026329D02*
X013502Y026329D01*
X013404Y026231D02*
X013848Y026231D01*
X013914Y026297D02*
X014212Y026297D01*
X013680Y026829D01*
X013680Y026507D01*
X013400Y026227D01*
X013622Y026004D01*
X013914Y026297D01*
X014081Y026428D02*
X013601Y026428D01*
X013680Y026526D02*
X013983Y026526D01*
X013884Y026625D02*
X013680Y026625D01*
X013680Y026723D02*
X013786Y026723D01*
X013687Y026822D02*
X013680Y026822D01*
X013749Y026132D02*
X013494Y026132D01*
X013592Y026034D02*
X013651Y026034D01*
X013622Y025449D02*
X013400Y025227D01*
X013680Y024946D01*
X013680Y024507D01*
X013400Y024227D01*
X013680Y023946D01*
X013680Y023507D01*
X013370Y023197D01*
X012988Y023197D01*
X012410Y022619D01*
X012410Y018834D01*
X013188Y018056D01*
X013358Y018227D01*
X013090Y018495D01*
X013090Y018959D01*
X013418Y019287D01*
X013784Y019287D01*
X013580Y019491D01*
X013580Y019963D01*
X013914Y020297D01*
X014386Y020297D01*
X014720Y019963D01*
X014720Y019491D01*
X014516Y019287D01*
X014842Y019287D01*
X014890Y019334D01*
X014890Y025619D01*
X014720Y025789D01*
X014720Y025491D01*
X014386Y025157D01*
X013914Y025157D01*
X013622Y025449D01*
X013616Y025443D02*
X013628Y025443D01*
X013726Y025344D02*
X013517Y025344D01*
X013419Y025246D02*
X013825Y025246D01*
X013676Y024950D02*
X014890Y024950D01*
X014890Y024852D02*
X013680Y024852D01*
X013680Y024753D02*
X014890Y024753D01*
X014890Y024655D02*
X013680Y024655D01*
X013680Y024556D02*
X014890Y024556D01*
X014890Y024458D02*
X013631Y024458D01*
X013532Y024359D02*
X014890Y024359D01*
X014890Y024261D02*
X013434Y024261D01*
X013464Y024162D02*
X014890Y024162D01*
X014890Y024064D02*
X013562Y024064D01*
X013661Y023965D02*
X014890Y023965D01*
X014890Y023867D02*
X013680Y023867D01*
X013680Y023768D02*
X014890Y023768D01*
X014890Y023670D02*
X013680Y023670D01*
X013680Y023571D02*
X014890Y023571D01*
X014890Y023473D02*
X013646Y023473D01*
X013547Y023374D02*
X014890Y023374D01*
X014890Y023276D02*
X013449Y023276D01*
X012968Y023177D02*
X014890Y023177D01*
X014890Y023079D02*
X012870Y023079D01*
X012771Y022980D02*
X014890Y022980D01*
X014890Y022882D02*
X012673Y022882D01*
X012574Y022783D02*
X014890Y022783D01*
X014890Y022685D02*
X012476Y022685D01*
X012410Y022586D02*
X014890Y022586D01*
X014890Y022488D02*
X012410Y022488D01*
X012410Y022389D02*
X014890Y022389D01*
X014890Y022291D02*
X012410Y022291D01*
X012410Y022192D02*
X014890Y022192D01*
X014890Y022094D02*
X012410Y022094D01*
X012410Y021995D02*
X014890Y021995D01*
X014890Y021897D02*
X012410Y021897D01*
X012410Y021798D02*
X014890Y021798D01*
X014890Y021700D02*
X012410Y021700D01*
X012410Y021601D02*
X014890Y021601D01*
X014890Y021503D02*
X012410Y021503D01*
X012410Y021404D02*
X014890Y021404D01*
X014890Y021306D02*
X012410Y021306D01*
X012410Y021207D02*
X014890Y021207D01*
X014890Y021109D02*
X012410Y021109D01*
X012410Y021010D02*
X014890Y021010D01*
X014890Y020912D02*
X012410Y020912D01*
X012410Y020813D02*
X014890Y020813D01*
X014890Y020715D02*
X012410Y020715D01*
X012410Y020616D02*
X014890Y020616D01*
X014890Y020518D02*
X012410Y020518D01*
X012410Y020419D02*
X014890Y020419D01*
X014890Y020321D02*
X012410Y020321D01*
X012410Y020222D02*
X013839Y020222D01*
X013741Y020124D02*
X012410Y020124D01*
X012410Y020025D02*
X013642Y020025D01*
X013580Y019927D02*
X012410Y019927D01*
X012410Y019828D02*
X013580Y019828D01*
X013580Y019730D02*
X012410Y019730D01*
X012410Y019631D02*
X013580Y019631D01*
X013580Y019533D02*
X012410Y019533D01*
X012410Y019434D02*
X013636Y019434D01*
X013735Y019336D02*
X012410Y019336D01*
X012410Y019237D02*
X013369Y019237D01*
X013270Y019139D02*
X012410Y019139D01*
X012410Y019040D02*
X013172Y019040D01*
X013090Y018942D02*
X012410Y018942D01*
X012410Y018843D02*
X013090Y018843D01*
X013090Y018745D02*
X012500Y018745D01*
X012598Y018646D02*
X013090Y018646D01*
X013090Y018548D02*
X012697Y018548D01*
X012795Y018449D02*
X013135Y018449D01*
X013234Y018351D02*
X012894Y018351D01*
X012992Y018252D02*
X013332Y018252D01*
X013285Y018154D02*
X013091Y018154D01*
X012712Y017797D02*
X012414Y017797D01*
X012080Y017463D01*
X012080Y017164D01*
X011910Y017334D01*
X011910Y018627D01*
X011930Y018579D01*
X012712Y017797D01*
X012651Y017858D02*
X011910Y017858D01*
X011910Y017760D02*
X012377Y017760D01*
X012278Y017661D02*
X011910Y017661D01*
X011910Y017563D02*
X012180Y017563D01*
X012081Y017464D02*
X011910Y017464D01*
X011910Y017366D02*
X012080Y017366D01*
X012080Y017267D02*
X011977Y017267D01*
X012076Y017169D02*
X012080Y017169D01*
X012588Y016657D02*
X012886Y016657D01*
X013090Y016861D01*
X013090Y016495D01*
X013418Y016167D01*
X013882Y016167D01*
X014150Y016435D01*
X014320Y016265D01*
X014042Y015987D01*
X013258Y015987D01*
X012588Y016657D01*
X012667Y016578D02*
X013090Y016578D01*
X013090Y016676D02*
X012906Y016676D01*
X013004Y016775D02*
X013090Y016775D01*
X013105Y016479D02*
X012765Y016479D01*
X012864Y016381D02*
X013204Y016381D01*
X013303Y016282D02*
X012962Y016282D01*
X013061Y016184D02*
X013401Y016184D01*
X013258Y015987D02*
X014042Y015987D01*
X014141Y016085D02*
X013159Y016085D01*
X012930Y015579D02*
X013003Y015506D01*
X013098Y015467D01*
X014202Y015467D01*
X014297Y015506D01*
X014580Y015789D01*
X014580Y015524D01*
X013503Y014447D01*
X013430Y014374D01*
X013390Y014278D01*
X013390Y012817D01*
X013148Y012752D01*
X012899Y012609D01*
X012696Y012406D01*
X012553Y012157D01*
X012479Y011880D01*
X012479Y011593D01*
X012553Y011316D01*
X012696Y011067D01*
X012890Y010874D01*
X012890Y009334D01*
X012210Y008654D01*
X012210Y008838D01*
X012125Y009044D01*
X011967Y009201D01*
X011761Y009287D01*
X011539Y009287D01*
X011333Y009201D01*
X011175Y009044D01*
X011150Y008983D01*
X011125Y009044D01*
X010967Y009201D01*
X010761Y009287D01*
X010539Y009287D01*
X010333Y009201D01*
X010175Y009044D01*
X010090Y008838D01*
X010090Y008615D01*
X010114Y008558D01*
X009930Y008374D01*
X009890Y008278D01*
X009890Y006675D01*
X009930Y006579D01*
X010003Y006506D01*
X010114Y006395D01*
X010090Y006338D01*
X010090Y006115D01*
X010175Y005909D01*
X010333Y005752D01*
X010539Y005667D01*
X010761Y005667D01*
X010967Y005752D01*
X011125Y005909D01*
X011210Y006115D01*
X011210Y006338D01*
X011125Y006544D01*
X010967Y006701D01*
X010761Y006787D01*
X010539Y006787D01*
X010481Y006763D01*
X010410Y006834D01*
X010410Y008119D01*
X010481Y008190D01*
X010539Y008167D01*
X010761Y008167D01*
X010967Y008252D01*
X011125Y008409D01*
X011150Y008470D01*
X011175Y008409D01*
X011333Y008252D01*
X011390Y008228D01*
X011390Y007675D01*
X011430Y007579D01*
X011503Y007506D01*
X011813Y007196D01*
X011580Y006963D01*
X011580Y006491D01*
X011914Y006157D01*
X012386Y006157D01*
X012720Y006491D01*
X012720Y006789D01*
X013114Y006395D01*
X013090Y006338D01*
X013090Y006115D01*
X013114Y006058D01*
X012042Y004987D01*
X009598Y004987D01*
X009503Y004947D01*
X009430Y004874D01*
X008910Y004354D01*
X008910Y010619D01*
X008948Y010657D01*
X009386Y010657D01*
X009720Y010991D01*
X009720Y011220D01*
X009814Y011057D01*
X010017Y010854D01*
X010266Y010711D01*
X010543Y010637D01*
X010830Y010637D01*
X011107Y010711D01*
X011356Y010854D01*
X011559Y011057D01*
X011702Y011306D01*
X011776Y011583D01*
X011776Y011870D01*
X011704Y012142D01*
X011794Y012118D01*
X012081Y012118D01*
X012358Y012192D01*
X012607Y012335D01*
X012810Y012538D01*
X012953Y012787D01*
X013027Y013064D01*
X013027Y013351D01*
X012953Y013628D01*
X012810Y013877D01*
X012607Y014080D01*
X012358Y014223D01*
X012081Y014298D01*
X011794Y014298D01*
X011517Y014223D01*
X011511Y014220D01*
X012797Y015506D01*
X012870Y015579D01*
X012888Y015621D01*
X012930Y015579D01*
X012916Y015593D02*
X012876Y015593D01*
X012785Y015494D02*
X013032Y015494D01*
X012687Y015396D02*
X014451Y015396D01*
X014353Y015297D02*
X012588Y015297D01*
X012490Y015199D02*
X014254Y015199D01*
X014156Y015100D02*
X012391Y015100D01*
X012293Y015002D02*
X014057Y015002D01*
X013959Y014903D02*
X012194Y014903D01*
X012096Y014805D02*
X013860Y014805D01*
X013762Y014706D02*
X011997Y014706D01*
X011899Y014608D02*
X013663Y014608D01*
X013565Y014509D02*
X011800Y014509D01*
X011702Y014411D02*
X013466Y014411D01*
X013404Y014312D02*
X011603Y014312D01*
X011360Y014805D02*
X009410Y014805D01*
X009410Y014903D02*
X011459Y014903D01*
X011557Y015002D02*
X009410Y015002D01*
X009410Y015100D02*
X011656Y015100D01*
X011712Y015157D02*
X009410Y012854D01*
X009410Y019119D01*
X009448Y019157D01*
X009886Y019157D01*
X010220Y019491D01*
X010220Y019963D01*
X009886Y020297D01*
X009414Y020297D01*
X009080Y019963D01*
X009080Y019524D01*
X009003Y019447D01*
X008930Y019374D01*
X008910Y019327D01*
X008910Y020661D01*
X008914Y020657D01*
X009386Y020657D01*
X009720Y020991D01*
X009720Y021289D01*
X010390Y020619D01*
X010390Y017175D01*
X010430Y017079D01*
X011313Y016196D01*
X011080Y015963D01*
X011080Y015491D01*
X011414Y015157D01*
X011712Y015157D01*
X011372Y015199D02*
X009410Y015199D01*
X009410Y015297D02*
X011273Y015297D01*
X011175Y015396D02*
X009410Y015396D01*
X009410Y015494D02*
X011080Y015494D01*
X011080Y015593D02*
X009410Y015593D01*
X009410Y015691D02*
X011080Y015691D01*
X011080Y015790D02*
X009410Y015790D01*
X009410Y015888D02*
X011080Y015888D01*
X011104Y015987D02*
X009410Y015987D01*
X009410Y016085D02*
X011202Y016085D01*
X011301Y016184D02*
X009410Y016184D01*
X009410Y016282D02*
X011227Y016282D01*
X011128Y016381D02*
X009410Y016381D01*
X009410Y016479D02*
X011030Y016479D01*
X010931Y016578D02*
X009410Y016578D01*
X009410Y016676D02*
X010833Y016676D01*
X010734Y016775D02*
X009410Y016775D01*
X009410Y016873D02*
X010636Y016873D01*
X010537Y016972D02*
X009410Y016972D01*
X009410Y017070D02*
X010439Y017070D01*
X010393Y017169D02*
X009410Y017169D01*
X009410Y017267D02*
X010390Y017267D01*
X010390Y017366D02*
X009410Y017366D01*
X009410Y017464D02*
X010390Y017464D01*
X010390Y017563D02*
X009410Y017563D01*
X009410Y017661D02*
X010390Y017661D01*
X010390Y017760D02*
X009410Y017760D01*
X009410Y017858D02*
X010390Y017858D01*
X010390Y017957D02*
X009410Y017957D01*
X009410Y018055D02*
X010390Y018055D01*
X010390Y018154D02*
X009410Y018154D01*
X009410Y018252D02*
X010390Y018252D01*
X010390Y018351D02*
X009410Y018351D01*
X009410Y018449D02*
X010390Y018449D01*
X010390Y018548D02*
X009410Y018548D01*
X009410Y018646D02*
X010390Y018646D01*
X010390Y018745D02*
X009410Y018745D01*
X009410Y018843D02*
X010390Y018843D01*
X010390Y018942D02*
X009410Y018942D01*
X009410Y019040D02*
X010390Y019040D01*
X010390Y019139D02*
X009430Y019139D01*
X009080Y019533D02*
X008910Y019533D01*
X008910Y019631D02*
X009080Y019631D01*
X009080Y019730D02*
X008910Y019730D01*
X008910Y019828D02*
X009080Y019828D01*
X009080Y019927D02*
X008910Y019927D01*
X008910Y020025D02*
X009142Y020025D01*
X009241Y020124D02*
X008910Y020124D01*
X008910Y020222D02*
X009339Y020222D01*
X009444Y020715D02*
X010294Y020715D01*
X010390Y020616D02*
X008910Y020616D01*
X008910Y020518D02*
X010390Y020518D01*
X010390Y020419D02*
X008910Y020419D01*
X008910Y020321D02*
X010390Y020321D01*
X010390Y020222D02*
X009961Y020222D01*
X010059Y020124D02*
X010390Y020124D01*
X010390Y020025D02*
X010158Y020025D01*
X010220Y019927D02*
X010390Y019927D01*
X010390Y019828D02*
X010220Y019828D01*
X010220Y019730D02*
X010390Y019730D01*
X010390Y019631D02*
X010220Y019631D01*
X010220Y019533D02*
X010390Y019533D01*
X010390Y019434D02*
X010164Y019434D01*
X010065Y019336D02*
X010390Y019336D01*
X010390Y019237D02*
X009967Y019237D01*
X010196Y020813D02*
X009543Y020813D01*
X009641Y020912D02*
X010097Y020912D01*
X009999Y021010D02*
X009720Y021010D01*
X009720Y021109D02*
X009900Y021109D01*
X009802Y021207D02*
X009720Y021207D01*
X008990Y019434D02*
X008910Y019434D01*
X008910Y019336D02*
X008914Y019336D01*
X008390Y015888D02*
X007250Y015888D01*
X007250Y015790D02*
X008345Y015790D01*
X008247Y015691D02*
X007250Y015691D01*
X007250Y015593D02*
X008148Y015593D01*
X008050Y015494D02*
X007250Y015494D01*
X007250Y015396D02*
X007951Y015396D01*
X007853Y015297D02*
X007250Y015297D01*
X007250Y015199D02*
X007754Y015199D01*
X007656Y015100D02*
X007250Y015100D01*
X007250Y015002D02*
X007557Y015002D01*
X007459Y014903D02*
X007250Y014903D01*
X007250Y014805D02*
X007360Y014805D01*
X007702Y014411D02*
X008890Y014411D01*
X008890Y014509D02*
X007800Y014509D01*
X007899Y014608D02*
X008890Y014608D01*
X008890Y014706D02*
X007997Y014706D01*
X008096Y014805D02*
X008890Y014805D01*
X008890Y014903D02*
X008194Y014903D01*
X008293Y015002D02*
X008890Y015002D01*
X008890Y015100D02*
X008391Y015100D01*
X008490Y015199D02*
X008890Y015199D01*
X008890Y015297D02*
X008588Y015297D01*
X008687Y015396D02*
X008890Y015396D01*
X008890Y015494D02*
X008785Y015494D01*
X008870Y015579D02*
X008890Y015627D01*
X008890Y012834D01*
X008619Y012564D01*
X008386Y012797D01*
X007948Y012797D01*
X007078Y013667D01*
X007261Y013667D01*
X007467Y013752D01*
X007625Y013909D01*
X007710Y014115D01*
X008890Y014115D01*
X008890Y014017D02*
X007669Y014017D01*
X007710Y014115D02*
X007710Y014338D01*
X007686Y014395D01*
X008870Y015579D01*
X008876Y015593D02*
X008890Y015593D01*
X009410Y014706D02*
X011262Y014706D01*
X011163Y014608D02*
X009410Y014608D01*
X009410Y014509D02*
X011065Y014509D01*
X010966Y014411D02*
X009410Y014411D01*
X009410Y014312D02*
X010868Y014312D01*
X010769Y014214D02*
X009410Y014214D01*
X009410Y014115D02*
X010671Y014115D01*
X010572Y014017D02*
X009410Y014017D01*
X009410Y013918D02*
X010474Y013918D01*
X010375Y013820D02*
X009410Y013820D01*
X009410Y013721D02*
X010277Y013721D01*
X010178Y013623D02*
X009410Y013623D01*
X009410Y013524D02*
X010080Y013524D01*
X009981Y013426D02*
X009410Y013426D01*
X009410Y013327D02*
X009883Y013327D01*
X009784Y013229D02*
X009410Y013229D01*
X009410Y013130D02*
X009686Y013130D01*
X009587Y013032D02*
X009410Y013032D01*
X009410Y012933D02*
X009489Y012933D01*
X009732Y012441D02*
X009859Y012441D01*
X009814Y012396D02*
X009671Y012147D01*
X009596Y011870D01*
X009596Y011586D01*
X009386Y011797D01*
X009088Y011797D01*
X010925Y013634D01*
X010922Y013628D01*
X010847Y013351D01*
X010847Y013064D01*
X010920Y012792D01*
X010830Y012817D01*
X010543Y012817D01*
X010266Y012742D01*
X010017Y012599D01*
X009814Y012396D01*
X009783Y012342D02*
X009633Y012342D01*
X009726Y012244D02*
X009535Y012244D01*
X009436Y012145D02*
X009670Y012145D01*
X009644Y012047D02*
X009338Y012047D01*
X009239Y011948D02*
X009617Y011948D01*
X009596Y011850D02*
X009141Y011850D01*
X009432Y011751D02*
X009596Y011751D01*
X009596Y011653D02*
X009530Y011653D01*
X009720Y011160D02*
X009755Y011160D01*
X009720Y011062D02*
X009812Y011062D01*
X009908Y010963D02*
X009693Y010963D01*
X009594Y010865D02*
X010007Y010865D01*
X010170Y010766D02*
X009496Y010766D01*
X009397Y010668D02*
X010427Y010668D01*
X010946Y010668D02*
X012890Y010668D01*
X012890Y010766D02*
X011203Y010766D01*
X011366Y010865D02*
X012890Y010865D01*
X012800Y010963D02*
X011464Y010963D01*
X011561Y011062D02*
X012702Y011062D01*
X012643Y011160D02*
X011618Y011160D01*
X011675Y011259D02*
X012586Y011259D01*
X012542Y011357D02*
X011716Y011357D01*
X011742Y011456D02*
X012515Y011456D01*
X012489Y011554D02*
X011769Y011554D01*
X011776Y011653D02*
X012479Y011653D01*
X012479Y011751D02*
X011776Y011751D01*
X011776Y011850D02*
X012479Y011850D01*
X012497Y011948D02*
X011755Y011948D01*
X011729Y012047D02*
X012523Y012047D01*
X012550Y012145D02*
X012184Y012145D01*
X012448Y012244D02*
X012603Y012244D01*
X012613Y012342D02*
X012659Y012342D01*
X012712Y012441D02*
X012731Y012441D01*
X012810Y012539D02*
X012830Y012539D01*
X012867Y012638D02*
X012949Y012638D01*
X012924Y012736D02*
X013120Y012736D01*
X012966Y012835D02*
X013390Y012835D01*
X013390Y012933D02*
X012992Y012933D01*
X013019Y013032D02*
X013390Y013032D01*
X013390Y013130D02*
X013027Y013130D01*
X013027Y013229D02*
X013390Y013229D01*
X013390Y013327D02*
X013027Y013327D01*
X013007Y013426D02*
X013390Y013426D01*
X013390Y013524D02*
X012981Y013524D01*
X012955Y013623D02*
X013390Y013623D01*
X013390Y013721D02*
X012900Y013721D01*
X012843Y013820D02*
X013390Y013820D01*
X013390Y013918D02*
X012768Y013918D01*
X012670Y014017D02*
X013390Y014017D01*
X013390Y014115D02*
X012545Y014115D01*
X012375Y014214D02*
X013390Y014214D01*
X013910Y014119D02*
X014080Y014289D01*
X014080Y013991D01*
X014414Y013657D01*
X014852Y013657D01*
X015390Y013119D01*
X015390Y009603D01*
X015261Y009657D01*
X015039Y009657D01*
X014833Y009571D01*
X014675Y009414D01*
X014650Y009353D01*
X014625Y009414D01*
X014467Y009571D01*
X014261Y009657D01*
X014039Y009657D01*
X013833Y009571D01*
X013675Y009414D01*
X013590Y009208D01*
X013590Y008983D01*
X013503Y008947D01*
X013352Y008797D01*
X013088Y008797D01*
X013297Y009006D01*
X013370Y009079D01*
X013410Y009175D01*
X013410Y010651D01*
X013425Y010647D01*
X013712Y010647D01*
X013989Y010721D01*
X014238Y010864D01*
X014441Y011067D01*
X014584Y011316D01*
X014659Y011593D01*
X014659Y011880D01*
X014584Y012157D01*
X014441Y012406D01*
X014238Y012609D01*
X013989Y012752D01*
X013910Y012774D01*
X013910Y014119D01*
X013910Y014115D02*
X014080Y014115D01*
X014080Y014017D02*
X013910Y014017D01*
X013910Y013918D02*
X014152Y013918D01*
X014251Y013820D02*
X013910Y013820D01*
X013910Y013721D02*
X014349Y013721D01*
X014080Y014214D02*
X014005Y014214D01*
X013910Y013623D02*
X014886Y013623D01*
X014985Y013524D02*
X013910Y013524D01*
X013910Y013426D02*
X015083Y013426D01*
X015182Y013327D02*
X013910Y013327D01*
X013910Y013229D02*
X015280Y013229D01*
X015379Y013130D02*
X013910Y013130D01*
X013910Y013032D02*
X015390Y013032D01*
X015390Y012933D02*
X013910Y012933D01*
X013910Y012835D02*
X015390Y012835D01*
X015390Y012736D02*
X014017Y012736D01*
X014188Y012638D02*
X015390Y012638D01*
X015390Y012539D02*
X014307Y012539D01*
X014406Y012441D02*
X015390Y012441D01*
X015390Y012342D02*
X014478Y012342D01*
X014534Y012244D02*
X015390Y012244D01*
X015390Y012145D02*
X014587Y012145D01*
X014614Y012047D02*
X015390Y012047D01*
X015390Y011948D02*
X014640Y011948D01*
X014659Y011850D02*
X015390Y011850D01*
X015390Y011751D02*
X014659Y011751D01*
X014659Y011653D02*
X015390Y011653D01*
X015390Y011554D02*
X014648Y011554D01*
X014622Y011456D02*
X015390Y011456D01*
X015390Y011357D02*
X014595Y011357D01*
X014551Y011259D02*
X015390Y011259D01*
X015390Y011160D02*
X014494Y011160D01*
X014435Y011062D02*
X015390Y011062D01*
X015390Y010963D02*
X014337Y010963D01*
X014238Y010865D02*
X015390Y010865D01*
X015390Y010766D02*
X014068Y010766D01*
X013790Y010668D02*
X015390Y010668D01*
X015390Y010569D02*
X013410Y010569D01*
X013410Y010471D02*
X015390Y010471D01*
X015390Y010372D02*
X013410Y010372D01*
X013410Y010274D02*
X015390Y010274D01*
X015390Y010175D02*
X013410Y010175D01*
X013410Y010077D02*
X015390Y010077D01*
X015390Y009978D02*
X013410Y009978D01*
X013410Y009880D02*
X015390Y009880D01*
X015390Y009781D02*
X013410Y009781D01*
X013410Y009683D02*
X015390Y009683D01*
X015784Y008993D02*
X015960Y008993D01*
X015960Y008895D02*
X015710Y008895D01*
X015710Y008796D02*
X015960Y008796D01*
X015960Y008698D02*
X015710Y008698D01*
X015710Y008599D02*
X015960Y008599D01*
X015960Y008501D02*
X015710Y008501D01*
X015710Y008402D02*
X015960Y008402D01*
X015960Y008304D02*
X015710Y008304D01*
X015693Y008205D02*
X015960Y008205D01*
X015960Y008107D02*
X015653Y008107D01*
X015593Y008008D02*
X015960Y008008D01*
X015960Y007910D02*
X015495Y007910D01*
X015296Y007811D02*
X015960Y007811D01*
X015960Y007713D02*
X015004Y007713D01*
X014905Y007614D02*
X015960Y007614D01*
X015960Y007516D02*
X014807Y007516D01*
X014708Y007417D02*
X015960Y007417D01*
X015960Y007319D02*
X014610Y007319D01*
X014511Y007220D02*
X015960Y007220D01*
X015960Y007122D02*
X014413Y007122D01*
X014314Y007023D02*
X015960Y007023D01*
X015960Y006925D02*
X014154Y006925D01*
X014056Y006826D02*
X015960Y006826D01*
X015960Y006728D02*
X013957Y006728D01*
X014039Y006629D02*
X015960Y006629D01*
X015960Y006531D02*
X014130Y006531D01*
X014171Y006432D02*
X015960Y006432D01*
X015960Y006334D02*
X014210Y006334D01*
X014210Y006235D02*
X015960Y006235D01*
X015960Y006137D02*
X014210Y006137D01*
X014178Y006038D02*
X015960Y006038D01*
X015960Y005940D02*
X014137Y005940D01*
X014056Y005841D02*
X015960Y005841D01*
X015960Y005743D02*
X013945Y005743D01*
X013435Y005644D02*
X015960Y005644D01*
X015960Y005546D02*
X013337Y005546D01*
X013238Y005447D02*
X015960Y005447D01*
X015960Y005349D02*
X013140Y005349D01*
X013041Y005250D02*
X015960Y005250D01*
X015960Y005152D02*
X012943Y005152D01*
X012844Y005053D02*
X015960Y005053D01*
X015960Y004955D02*
X012746Y004955D01*
X012647Y004856D02*
X015960Y004856D01*
X015960Y004758D02*
X012549Y004758D01*
X012450Y004659D02*
X015960Y004659D01*
X015960Y004561D02*
X012352Y004561D01*
X012207Y005152D02*
X008910Y005152D01*
X008910Y005250D02*
X012306Y005250D01*
X012404Y005349D02*
X008910Y005349D01*
X008910Y005447D02*
X012503Y005447D01*
X012601Y005546D02*
X008910Y005546D01*
X008910Y005644D02*
X012700Y005644D01*
X012798Y005743D02*
X010945Y005743D01*
X011056Y005841D02*
X012897Y005841D01*
X012995Y005940D02*
X011137Y005940D01*
X011178Y006038D02*
X013094Y006038D01*
X013090Y006137D02*
X011210Y006137D01*
X011210Y006235D02*
X011835Y006235D01*
X011737Y006334D02*
X011210Y006334D01*
X011171Y006432D02*
X011638Y006432D01*
X011580Y006531D02*
X011130Y006531D01*
X011039Y006629D02*
X011580Y006629D01*
X011580Y006728D02*
X010904Y006728D01*
X010418Y006826D02*
X011580Y006826D01*
X011580Y006925D02*
X010410Y006925D01*
X010410Y007023D02*
X011640Y007023D01*
X011739Y007122D02*
X010410Y007122D01*
X010410Y007220D02*
X011789Y007220D01*
X011690Y007319D02*
X010410Y007319D01*
X010410Y007417D02*
X011592Y007417D01*
X011493Y007516D02*
X010410Y007516D01*
X010410Y007614D02*
X011415Y007614D01*
X011390Y007713D02*
X010410Y007713D01*
X010410Y007811D02*
X011390Y007811D01*
X011390Y007910D02*
X010410Y007910D01*
X010410Y008008D02*
X011390Y008008D01*
X011390Y008107D02*
X010410Y008107D01*
X010056Y008501D02*
X008910Y008501D01*
X008910Y008599D02*
X010097Y008599D01*
X010090Y008698D02*
X008910Y008698D01*
X008910Y008796D02*
X010090Y008796D01*
X010113Y008895D02*
X008910Y008895D01*
X008910Y008993D02*
X010154Y008993D01*
X010223Y009092D02*
X008910Y009092D01*
X008910Y009190D02*
X010322Y009190D01*
X009958Y008402D02*
X008910Y008402D01*
X008910Y008304D02*
X009900Y008304D01*
X009890Y008205D02*
X008910Y008205D01*
X008910Y008107D02*
X009890Y008107D01*
X009890Y008008D02*
X008910Y008008D01*
X008910Y007910D02*
X009890Y007910D01*
X009890Y007811D02*
X008910Y007811D01*
X008910Y007713D02*
X009890Y007713D01*
X009890Y007614D02*
X008910Y007614D01*
X008910Y007516D02*
X009890Y007516D01*
X009890Y007417D02*
X008910Y007417D01*
X008910Y007319D02*
X009890Y007319D01*
X009890Y007220D02*
X008910Y007220D01*
X008910Y007122D02*
X009890Y007122D01*
X009890Y007023D02*
X008910Y007023D01*
X008910Y006925D02*
X009890Y006925D01*
X009890Y006826D02*
X008910Y006826D01*
X008910Y006728D02*
X009890Y006728D01*
X009909Y006629D02*
X008910Y006629D01*
X008910Y006531D02*
X009978Y006531D01*
X010077Y006432D02*
X008910Y006432D01*
X008910Y006334D02*
X010090Y006334D01*
X010090Y006235D02*
X008910Y006235D01*
X008910Y006137D02*
X010090Y006137D01*
X010122Y006038D02*
X008910Y006038D01*
X008910Y005940D02*
X010163Y005940D01*
X010244Y005841D02*
X008910Y005841D01*
X008910Y005743D02*
X010355Y005743D01*
X009753Y004462D02*
X015960Y004462D01*
X015960Y004364D02*
X009655Y004364D01*
X009556Y004265D02*
X015960Y004265D01*
X015960Y004167D02*
X009458Y004167D01*
X009359Y004068D02*
X015960Y004068D01*
X015960Y003970D02*
X009261Y003970D01*
X009162Y003871D02*
X015960Y003871D01*
X015960Y003773D02*
X009064Y003773D01*
X008965Y003674D02*
X015960Y003674D01*
X015960Y003576D02*
X008867Y003576D01*
X008768Y003477D02*
X015960Y003477D01*
X015960Y003379D02*
X008670Y003379D01*
X008571Y003280D02*
X015960Y003280D01*
X015960Y003182D02*
X008473Y003182D01*
X008374Y003083D02*
X015960Y003083D01*
X015960Y002985D02*
X008276Y002985D01*
X008177Y002886D02*
X015960Y002886D01*
X015960Y002788D02*
X008079Y002788D01*
X007980Y002689D02*
X008769Y002689D01*
X008787Y002697D02*
X008486Y002572D01*
X008486Y002572D01*
X008255Y002341D01*
X008130Y002040D01*
X008130Y001714D01*
X008255Y001412D01*
X008486Y001182D01*
X008787Y001057D01*
X008913Y001057D01*
X009113Y001057D01*
X009414Y001182D01*
X009645Y001412D01*
X009645Y001412D01*
X009645Y001412D01*
X009770Y001714D01*
X009770Y002040D01*
X009645Y002341D01*
X009645Y002341D01*
X009414Y002572D01*
X009113Y002697D01*
X008787Y002697D01*
X008531Y002591D02*
X007882Y002591D01*
X007783Y002492D02*
X008406Y002492D01*
X008307Y002394D02*
X007685Y002394D01*
X007586Y002295D02*
X008236Y002295D01*
X008255Y002341D02*
X008255Y002341D01*
X008195Y002197D02*
X007488Y002197D01*
X007389Y002098D02*
X008154Y002098D01*
X008130Y002000D02*
X007291Y002000D01*
X007192Y001901D02*
X008130Y001901D01*
X008130Y001803D02*
X007094Y001803D01*
X007461Y001704D02*
X008134Y001704D01*
X008175Y001606D02*
X007563Y001606D01*
X007640Y001507D02*
X008215Y001507D01*
X008255Y001412D02*
X008255Y001412D01*
X008258Y001409D02*
X007681Y001409D01*
X007710Y001310D02*
X008357Y001310D01*
X008455Y001212D02*
X007710Y001212D01*
X007709Y001113D02*
X008650Y001113D01*
X008486Y001182D02*
X008486Y001182D01*
X007668Y001015D02*
X014226Y001015D01*
X014186Y001032D02*
X014487Y000907D01*
X014687Y000907D01*
X014813Y000907D01*
X015114Y001032D01*
X015114Y001032D01*
X015345Y001262D01*
X015345Y001262D01*
X015470Y001564D01*
X015470Y001890D01*
X015345Y002191D01*
X015345Y002191D01*
X015114Y002422D01*
X014813Y002547D01*
X014487Y002547D01*
X014186Y002422D01*
X014186Y002422D01*
X013955Y002191D01*
X013830Y001890D01*
X013830Y001564D01*
X013955Y001262D01*
X014186Y001032D01*
X014186Y001032D01*
X014104Y001113D02*
X009250Y001113D01*
X009445Y001212D02*
X014005Y001212D01*
X013955Y001262D02*
X013955Y001262D01*
X013935Y001310D02*
X009543Y001310D01*
X009642Y001409D02*
X013894Y001409D01*
X013853Y001507D02*
X009685Y001507D01*
X009725Y001606D02*
X013830Y001606D01*
X013830Y001704D02*
X009766Y001704D01*
X009770Y001803D02*
X013830Y001803D01*
X013835Y001901D02*
X009770Y001901D01*
X009770Y002000D02*
X013876Y002000D01*
X013916Y002098D02*
X009746Y002098D01*
X009705Y002197D02*
X013960Y002197D01*
X013955Y002191D02*
X013955Y002191D01*
X014059Y002295D02*
X009664Y002295D01*
X009593Y002394D02*
X014157Y002394D01*
X014355Y002492D02*
X009494Y002492D01*
X009414Y002572D02*
X009414Y002572D01*
X009369Y002591D02*
X015960Y002591D01*
X015960Y002689D02*
X009131Y002689D01*
X008033Y003477D02*
X001340Y003477D01*
X001340Y003379D02*
X007934Y003379D01*
X007836Y003280D02*
X006903Y003280D01*
X007001Y003182D02*
X007737Y003182D01*
X007639Y003083D02*
X007100Y003083D01*
X007198Y002985D02*
X007540Y002985D01*
X007442Y002886D02*
X007220Y002886D01*
X007220Y002788D02*
X007343Y002788D01*
X007245Y002689D02*
X007220Y002689D01*
X006712Y002157D02*
X006240Y001684D01*
X006240Y001840D01*
X006150Y002057D01*
X005984Y002223D01*
X006150Y002389D01*
X006160Y002411D01*
X006414Y002157D01*
X006712Y002157D01*
X006654Y002098D02*
X006109Y002098D01*
X006174Y002000D02*
X006555Y002000D01*
X006457Y001901D02*
X006215Y001901D01*
X006240Y001803D02*
X006358Y001803D01*
X006260Y001704D02*
X006240Y001704D01*
X006374Y002197D02*
X006010Y002197D01*
X006057Y002295D02*
X006275Y002295D01*
X006177Y002394D02*
X006152Y002394D01*
X006124Y003083D02*
X006200Y003083D01*
X006299Y003182D02*
X006025Y003182D01*
X005846Y003280D02*
X006397Y003280D01*
X007250Y004856D02*
X007412Y004856D01*
X007510Y004955D02*
X007250Y004955D01*
X007250Y005053D02*
X007609Y005053D01*
X007707Y005152D02*
X007250Y005152D01*
X007250Y005250D02*
X007806Y005250D01*
X008910Y005053D02*
X012109Y005053D01*
X012465Y006235D02*
X013090Y006235D01*
X013090Y006334D02*
X012563Y006334D01*
X012662Y006432D02*
X013077Y006432D01*
X012978Y006531D02*
X012720Y006531D01*
X012720Y006629D02*
X012880Y006629D01*
X012781Y006728D02*
X012720Y006728D01*
X013080Y007164D02*
X013080Y007463D01*
X013274Y007657D01*
X012914Y007657D01*
X012580Y007991D01*
X012580Y008289D01*
X012410Y008119D01*
X012410Y007834D01*
X013080Y007164D01*
X013080Y007220D02*
X013024Y007220D01*
X013080Y007319D02*
X012926Y007319D01*
X012827Y007417D02*
X013080Y007417D01*
X013133Y007516D02*
X012729Y007516D01*
X012630Y007614D02*
X013231Y007614D01*
X013526Y007797D02*
X013720Y007991D01*
X013720Y007995D01*
X013833Y007882D01*
X014039Y007797D01*
X014261Y007797D01*
X014417Y007861D01*
X014119Y007564D01*
X013886Y007797D01*
X013526Y007797D01*
X013541Y007811D02*
X014004Y007811D01*
X013970Y007713D02*
X014268Y007713D01*
X014296Y007811D02*
X014367Y007811D01*
X014170Y007614D02*
X014069Y007614D01*
X013805Y007910D02*
X013639Y007910D01*
X013450Y008895D02*
X013186Y008895D01*
X013284Y008993D02*
X013590Y008993D01*
X013590Y009092D02*
X013376Y009092D01*
X013410Y009190D02*
X013590Y009190D01*
X013623Y009289D02*
X013410Y009289D01*
X013410Y009387D02*
X013664Y009387D01*
X013747Y009486D02*
X013410Y009486D01*
X013410Y009584D02*
X013864Y009584D01*
X014436Y009584D02*
X014864Y009584D01*
X014747Y009486D02*
X014553Y009486D01*
X014636Y009387D02*
X014664Y009387D01*
X014650Y008100D02*
X014646Y008090D01*
X014652Y008096D01*
X014650Y008100D01*
X015876Y009092D02*
X015960Y009092D01*
X015960Y009190D02*
X015910Y009190D01*
X015910Y009289D02*
X015960Y009289D01*
X015960Y009387D02*
X015910Y009387D01*
X015910Y009486D02*
X015960Y009486D01*
X015960Y009584D02*
X015910Y009584D01*
X015910Y009683D02*
X015960Y009683D01*
X015960Y009781D02*
X015910Y009781D01*
X015910Y009880D02*
X015960Y009880D01*
X015960Y009978D02*
X015910Y009978D01*
X015910Y010077D02*
X015960Y010077D01*
X015960Y010175D02*
X015910Y010175D01*
X015910Y010274D02*
X015960Y010274D01*
X015960Y010372D02*
X015910Y010372D01*
X015910Y010471D02*
X015960Y010471D01*
X015960Y010569D02*
X015910Y010569D01*
X015910Y010668D02*
X015960Y010668D01*
X015960Y010766D02*
X015910Y010766D01*
X015910Y010865D02*
X015960Y010865D01*
X015960Y010963D02*
X015910Y010963D01*
X015910Y011062D02*
X015960Y011062D01*
X015960Y011160D02*
X015910Y011160D01*
X015910Y011259D02*
X015960Y011259D01*
X015960Y011357D02*
X015910Y011357D01*
X015910Y011456D02*
X015960Y011456D01*
X015960Y011554D02*
X015910Y011554D01*
X015910Y011653D02*
X015960Y011653D01*
X015960Y011751D02*
X015910Y011751D01*
X015910Y011850D02*
X015960Y011850D01*
X015960Y011948D02*
X015910Y011948D01*
X015910Y012047D02*
X015960Y012047D01*
X015960Y012145D02*
X015910Y012145D01*
X015910Y012244D02*
X015960Y012244D01*
X015960Y012342D02*
X015910Y012342D01*
X015910Y012441D02*
X015960Y012441D01*
X015960Y012539D02*
X015910Y012539D01*
X015910Y012638D02*
X015960Y012638D01*
X015960Y012736D02*
X015910Y012736D01*
X015910Y012835D02*
X015960Y012835D01*
X015960Y012933D02*
X015910Y012933D01*
X015910Y013032D02*
X015960Y013032D01*
X015960Y013130D02*
X015910Y013130D01*
X015910Y013229D02*
X015960Y013229D01*
X015960Y013327D02*
X015890Y013327D01*
X015819Y013426D02*
X015960Y013426D01*
X015960Y013524D02*
X015720Y013524D01*
X015622Y013623D02*
X015960Y013623D01*
X015960Y013721D02*
X015523Y013721D01*
X015425Y013820D02*
X015960Y013820D01*
X015960Y013918D02*
X015326Y013918D01*
X015228Y014017D02*
X015960Y014017D01*
X015960Y014115D02*
X015220Y014115D01*
X015220Y014214D02*
X015960Y014214D01*
X015960Y014312D02*
X015220Y014312D01*
X015220Y014411D02*
X015960Y014411D01*
X015960Y014509D02*
X015174Y014509D01*
X015075Y014608D02*
X015960Y014608D01*
X015960Y014706D02*
X014977Y014706D01*
X014694Y014903D02*
X015960Y014903D01*
X015960Y014805D02*
X014596Y014805D01*
X014793Y015002D02*
X015960Y015002D01*
X015960Y015100D02*
X014891Y015100D01*
X014550Y015494D02*
X014268Y015494D01*
X014384Y015593D02*
X014580Y015593D01*
X014580Y015691D02*
X014482Y015691D01*
X014239Y016184D02*
X013899Y016184D01*
X013997Y016282D02*
X014303Y016282D01*
X014204Y016381D02*
X014096Y016381D01*
X014150Y017019D02*
X013942Y017227D01*
X014150Y017435D01*
X014358Y017227D01*
X014150Y017019D01*
X014098Y017070D02*
X014202Y017070D01*
X014300Y017169D02*
X014000Y017169D01*
X013983Y017267D02*
X014317Y017267D01*
X014219Y017366D02*
X014081Y017366D01*
X014150Y018019D02*
X013942Y018227D01*
X014150Y018435D01*
X014358Y018227D01*
X014150Y018019D01*
X014113Y018055D02*
X014187Y018055D01*
X014285Y018154D02*
X014015Y018154D01*
X013968Y018252D02*
X014332Y018252D01*
X014234Y018351D02*
X014066Y018351D01*
X014565Y019336D02*
X014890Y019336D01*
X014890Y019434D02*
X014664Y019434D01*
X014720Y019533D02*
X014890Y019533D01*
X014890Y019631D02*
X014720Y019631D01*
X014720Y019730D02*
X014890Y019730D01*
X014890Y019828D02*
X014720Y019828D01*
X014720Y019927D02*
X014890Y019927D01*
X014890Y020025D02*
X014658Y020025D01*
X014559Y020124D02*
X014890Y020124D01*
X014890Y020222D02*
X014461Y020222D01*
X015370Y019079D02*
X015210Y018919D01*
X015210Y018654D01*
X015390Y018834D01*
X015390Y019127D01*
X015370Y019079D01*
X015390Y019040D02*
X015331Y019040D01*
X015390Y018942D02*
X015233Y018942D01*
X015210Y018843D02*
X015390Y018843D01*
X015300Y018745D02*
X015210Y018745D01*
X015642Y018351D02*
X015960Y018351D01*
X015960Y018449D02*
X015740Y018449D01*
X015839Y018548D02*
X015960Y018548D01*
X015960Y018646D02*
X015898Y018646D01*
X015910Y018745D02*
X015960Y018745D01*
X015960Y018843D02*
X015910Y018843D01*
X015910Y018942D02*
X015960Y018942D01*
X015960Y019040D02*
X015910Y019040D01*
X015910Y019139D02*
X015960Y019139D01*
X015960Y019237D02*
X015910Y019237D01*
X015910Y019336D02*
X015960Y019336D01*
X015960Y019434D02*
X015910Y019434D01*
X015910Y019533D02*
X015960Y019533D01*
X015960Y019631D02*
X015910Y019631D01*
X015910Y019730D02*
X015960Y019730D01*
X015960Y019828D02*
X015910Y019828D01*
X015910Y019927D02*
X015960Y019927D01*
X015960Y020025D02*
X015910Y020025D01*
X015910Y020124D02*
X015960Y020124D01*
X015960Y020222D02*
X015910Y020222D01*
X015910Y020321D02*
X015960Y020321D01*
X015960Y020419D02*
X015910Y020419D01*
X015910Y020518D02*
X015960Y020518D01*
X015960Y020616D02*
X015910Y020616D01*
X015910Y020715D02*
X015960Y020715D01*
X015960Y020813D02*
X015910Y020813D01*
X015910Y020912D02*
X015960Y020912D01*
X015960Y021010D02*
X015910Y021010D01*
X015910Y021109D02*
X015960Y021109D01*
X015960Y021207D02*
X015910Y021207D01*
X015910Y021306D02*
X015960Y021306D01*
X015960Y021404D02*
X015910Y021404D01*
X015910Y021503D02*
X015960Y021503D01*
X015960Y021601D02*
X015910Y021601D01*
X015910Y021700D02*
X015960Y021700D01*
X015960Y021798D02*
X015910Y021798D01*
X015910Y021897D02*
X015960Y021897D01*
X015960Y021995D02*
X015910Y021995D01*
X015910Y022094D02*
X015960Y022094D01*
X015960Y022192D02*
X015910Y022192D01*
X015910Y022291D02*
X015960Y022291D01*
X015960Y022389D02*
X015910Y022389D01*
X015910Y022488D02*
X015960Y022488D01*
X015960Y022586D02*
X015910Y022586D01*
X015910Y022685D02*
X015960Y022685D01*
X015960Y022783D02*
X015910Y022783D01*
X015910Y022882D02*
X015960Y022882D01*
X015960Y022980D02*
X015910Y022980D01*
X015910Y023079D02*
X015960Y023079D01*
X015960Y023177D02*
X015910Y023177D01*
X015910Y023276D02*
X015960Y023276D01*
X015960Y023374D02*
X015910Y023374D01*
X015910Y023473D02*
X015960Y023473D01*
X015960Y023571D02*
X015910Y023571D01*
X015910Y023670D02*
X015960Y023670D01*
X015960Y023768D02*
X015910Y023768D01*
X015910Y023867D02*
X015960Y023867D01*
X015960Y023965D02*
X015910Y023965D01*
X015910Y024064D02*
X015960Y024064D01*
X015960Y024162D02*
X015910Y024162D01*
X015910Y024261D02*
X015960Y024261D01*
X015960Y024359D02*
X015910Y024359D01*
X015910Y024458D02*
X015960Y024458D01*
X015960Y024556D02*
X015910Y024556D01*
X015910Y024655D02*
X015960Y024655D01*
X015960Y024753D02*
X015910Y024753D01*
X015910Y024852D02*
X015960Y024852D01*
X015960Y024950D02*
X015910Y024950D01*
X015910Y025049D02*
X015960Y025049D01*
X015960Y025147D02*
X015910Y025147D01*
X015910Y025246D02*
X015960Y025246D01*
X015960Y025344D02*
X015910Y025344D01*
X015910Y025443D02*
X015960Y025443D01*
X015960Y025541D02*
X015910Y025541D01*
X015910Y025640D02*
X015960Y025640D01*
X015960Y025738D02*
X015910Y025738D01*
X014890Y025541D02*
X014720Y025541D01*
X014720Y025640D02*
X014869Y025640D01*
X014771Y025738D02*
X014720Y025738D01*
X014672Y025443D02*
X014890Y025443D01*
X014890Y025344D02*
X014574Y025344D01*
X014475Y025246D02*
X014890Y025246D01*
X014890Y025147D02*
X013479Y025147D01*
X013577Y025049D02*
X014890Y025049D01*
X012620Y023829D02*
X012620Y023564D01*
X012003Y022947D01*
X011930Y022874D01*
X011910Y022827D01*
X011910Y023119D01*
X012620Y023829D01*
X012620Y023768D02*
X012559Y023768D01*
X012620Y023670D02*
X012461Y023670D01*
X012362Y023571D02*
X012620Y023571D01*
X012528Y023473D02*
X012264Y023473D01*
X012165Y023374D02*
X012430Y023374D01*
X012331Y023276D02*
X012067Y023276D01*
X011968Y023177D02*
X012233Y023177D01*
X012134Y023079D02*
X011910Y023079D01*
X011910Y022980D02*
X012036Y022980D01*
X011937Y022882D02*
X011910Y022882D01*
X011390Y022882D02*
X011220Y022882D01*
X011220Y022963D02*
X010886Y023297D01*
X011006Y023177D02*
X011390Y023177D01*
X011390Y023079D02*
X011104Y023079D01*
X011203Y022980D02*
X011390Y022980D01*
X011220Y022963D02*
X011220Y022491D01*
X010886Y022157D01*
X011020Y022291D02*
X011390Y022291D01*
X011390Y022389D02*
X011119Y022389D01*
X011217Y022488D02*
X011390Y022488D01*
X011390Y022586D02*
X011220Y022586D01*
X011220Y022685D02*
X011390Y022685D01*
X011390Y022783D02*
X011220Y022783D01*
X011340Y021404D02*
X011390Y021404D01*
X011910Y018548D02*
X011961Y018548D01*
X011910Y018449D02*
X012060Y018449D01*
X012158Y018351D02*
X011910Y018351D01*
X011910Y018252D02*
X012257Y018252D01*
X012355Y018154D02*
X011910Y018154D01*
X011910Y018055D02*
X012454Y018055D01*
X012552Y017957D02*
X011910Y017957D01*
X012220Y015789D02*
X012282Y015727D01*
X012220Y015664D01*
X012220Y015789D01*
X012220Y015691D02*
X012247Y015691D01*
X010920Y013623D02*
X010914Y013623D01*
X010894Y013524D02*
X010815Y013524D01*
X010867Y013426D02*
X010717Y013426D01*
X010618Y013327D02*
X010847Y013327D01*
X010847Y013229D02*
X010520Y013229D01*
X010421Y013130D02*
X010847Y013130D01*
X010856Y013032D02*
X010323Y013032D01*
X010224Y012933D02*
X010882Y012933D01*
X010909Y012835D02*
X010126Y012835D01*
X010027Y012736D02*
X010255Y012736D01*
X010084Y012638D02*
X009929Y012638D01*
X009957Y012539D02*
X009830Y012539D01*
X008890Y012835D02*
X007910Y012835D01*
X007811Y012933D02*
X008890Y012933D01*
X008890Y013032D02*
X007713Y013032D01*
X007614Y013130D02*
X008890Y013130D01*
X008890Y013229D02*
X007516Y013229D01*
X007417Y013327D02*
X008890Y013327D01*
X008890Y013426D02*
X007319Y013426D01*
X007220Y013524D02*
X008890Y013524D01*
X008890Y013623D02*
X007122Y013623D01*
X007393Y013721D02*
X008890Y013721D01*
X008890Y013820D02*
X007535Y013820D01*
X007628Y013918D02*
X008890Y013918D01*
X008890Y014214D02*
X007710Y014214D01*
X007710Y014312D02*
X008890Y014312D01*
X008792Y012736D02*
X008447Y012736D01*
X008545Y012638D02*
X008693Y012638D01*
X008580Y011289D02*
X008580Y011024D01*
X008503Y010947D01*
X008430Y010874D01*
X008410Y010827D01*
X008410Y011119D01*
X008580Y011289D01*
X008580Y011259D02*
X008550Y011259D01*
X008580Y011160D02*
X008451Y011160D01*
X008410Y011062D02*
X008580Y011062D01*
X008519Y010963D02*
X008410Y010963D01*
X008410Y010865D02*
X008426Y010865D01*
X008910Y010569D02*
X012890Y010569D01*
X012890Y010471D02*
X008910Y010471D01*
X008910Y010372D02*
X012890Y010372D01*
X012890Y010274D02*
X008910Y010274D01*
X008910Y010175D02*
X012890Y010175D01*
X012890Y010077D02*
X008910Y010077D01*
X008910Y009978D02*
X012890Y009978D01*
X012890Y009880D02*
X008910Y009880D01*
X008910Y009781D02*
X012890Y009781D01*
X012890Y009683D02*
X008910Y009683D01*
X008910Y009584D02*
X012890Y009584D01*
X012890Y009486D02*
X008910Y009486D01*
X008910Y009387D02*
X012890Y009387D01*
X012844Y009289D02*
X008910Y009289D01*
X010978Y009190D02*
X011322Y009190D01*
X011223Y009092D02*
X011077Y009092D01*
X011146Y008993D02*
X011154Y008993D01*
X011183Y008402D02*
X011117Y008402D01*
X011019Y008304D02*
X011281Y008304D01*
X011390Y008205D02*
X010854Y008205D01*
X011978Y009190D02*
X012746Y009190D01*
X012647Y009092D02*
X012077Y009092D01*
X012146Y008993D02*
X012549Y008993D01*
X012450Y008895D02*
X012187Y008895D01*
X012210Y008796D02*
X012352Y008796D01*
X012253Y008698D02*
X012210Y008698D01*
X012496Y008205D02*
X012580Y008205D01*
X012580Y008107D02*
X012410Y008107D01*
X012410Y008008D02*
X012580Y008008D01*
X012661Y007910D02*
X012410Y007910D01*
X012433Y007811D02*
X012759Y007811D01*
X012858Y007713D02*
X012532Y007713D01*
X014945Y002492D02*
X015960Y002492D01*
X015960Y002394D02*
X015143Y002394D01*
X015114Y002422D02*
X015114Y002422D01*
X015241Y002295D02*
X015960Y002295D01*
X015960Y002197D02*
X015340Y002197D01*
X015384Y002098D02*
X015960Y002098D01*
X015960Y002000D02*
X015424Y002000D01*
X015465Y001901D02*
X015960Y001901D01*
X015960Y001803D02*
X015470Y001803D01*
X015470Y001704D02*
X015960Y001704D01*
X015960Y001606D02*
X015470Y001606D01*
X015447Y001507D02*
X015960Y001507D01*
X015960Y001409D02*
X015406Y001409D01*
X015365Y001310D02*
X015960Y001310D01*
X015960Y001212D02*
X015295Y001212D01*
X015196Y001113D02*
X015960Y001113D01*
X015960Y001015D02*
X015074Y001015D01*
X014836Y000916D02*
X015960Y000916D01*
X015960Y000818D02*
X007533Y000818D01*
X007628Y000916D02*
X014464Y000916D01*
X014813Y000907D02*
X014813Y000907D01*
X015960Y000719D02*
X007388Y000719D01*
X006912Y000719D02*
X006010Y000719D01*
X005912Y000621D02*
X015960Y000621D01*
X015960Y000522D02*
X005813Y000522D01*
X006109Y000818D02*
X006767Y000818D01*
X006672Y000916D02*
X006207Y000916D01*
X006306Y001015D02*
X006632Y001015D01*
X006591Y001113D02*
X006404Y001113D01*
X006503Y001212D02*
X006590Y001212D01*
X005454Y003280D02*
X001340Y003280D01*
X001340Y003182D02*
X005275Y003182D01*
X005176Y003083D02*
X001340Y003083D01*
X001340Y002985D02*
X005120Y002985D01*
X005079Y002886D02*
X001340Y002886D01*
X001340Y002788D02*
X005060Y002788D01*
X005060Y002689D02*
X003479Y002689D01*
X003578Y002591D02*
X005066Y002591D01*
X005107Y002492D02*
X003646Y002492D01*
X003687Y002394D02*
X005148Y002394D01*
X005243Y002295D02*
X003710Y002295D01*
X003710Y002197D02*
X005290Y002197D01*
X005191Y002098D02*
X003703Y002098D01*
X003745Y002000D02*
X005126Y002000D01*
X005085Y001901D02*
X003843Y001901D01*
X003942Y001803D02*
X005060Y001803D01*
X005060Y001704D02*
X004040Y001704D01*
X004139Y001606D02*
X005060Y001606D01*
X005101Y001507D02*
X004237Y001507D01*
X003930Y001079D02*
X004003Y001006D01*
X004050Y000987D01*
X003758Y000987D01*
X003078Y001667D01*
X003261Y001667D01*
X003319Y001690D01*
X003930Y001079D01*
X003896Y001113D02*
X003631Y001113D01*
X003533Y001212D02*
X003797Y001212D01*
X003699Y001310D02*
X003434Y001310D01*
X003336Y001409D02*
X003600Y001409D01*
X003502Y001507D02*
X003237Y001507D01*
X003139Y001606D02*
X003403Y001606D01*
X003730Y001015D02*
X003994Y001015D01*
X003487Y000522D02*
X001340Y000522D01*
X001340Y000424D02*
X015960Y000424D01*
X009521Y004955D02*
X008910Y004955D01*
X008910Y004856D02*
X009412Y004856D01*
X009430Y004874D02*
X009430Y004874D01*
X009313Y004758D02*
X008910Y004758D01*
X008910Y004659D02*
X009215Y004659D01*
X009116Y004561D02*
X008910Y004561D01*
X008910Y004462D02*
X009018Y004462D01*
X008919Y004364D02*
X008910Y004364D01*
X006550Y005327D02*
X001340Y005327D01*
X001340Y010127D01*
X006550Y010127D01*
X006550Y005327D01*
X006550Y005349D02*
X001340Y005349D01*
X001340Y005447D02*
X006550Y005447D01*
X006550Y005546D02*
X001340Y005546D01*
X001340Y005644D02*
X006550Y005644D01*
X006550Y005743D02*
X001340Y005743D01*
X001340Y005841D02*
X006550Y005841D01*
X006550Y005940D02*
X002711Y005940D01*
X002690Y005929D02*
X002778Y005974D01*
X002857Y006031D01*
X002927Y006101D01*
X002985Y006181D01*
X003029Y006268D01*
X003060Y006362D01*
X003075Y006458D01*
X002500Y006458D01*
X002500Y005883D01*
X002596Y005899D01*
X002690Y005929D01*
X002500Y005940D02*
X002400Y005940D01*
X002400Y005883D02*
X002400Y006458D01*
X002500Y006458D01*
X002500Y006558D01*
X003075Y006558D01*
X003060Y006655D01*
X003029Y006748D01*
X002985Y006836D01*
X002927Y006915D01*
X002857Y006985D01*
X002778Y007043D01*
X002690Y007087D01*
X002596Y007118D01*
X002500Y007133D01*
X002500Y006558D01*
X002400Y006558D01*
X002400Y006458D01*
X001825Y006458D01*
X001840Y006362D01*
X001871Y006268D01*
X001915Y006181D01*
X001973Y006101D01*
X002043Y006031D01*
X002122Y005974D01*
X002210Y005929D01*
X002304Y005899D01*
X002400Y005883D01*
X002400Y006038D02*
X002500Y006038D01*
X002500Y006137D02*
X002400Y006137D01*
X002400Y006235D02*
X002500Y006235D01*
X002500Y006334D02*
X002400Y006334D01*
X002400Y006432D02*
X002500Y006432D01*
X002500Y006531D02*
X005091Y006531D01*
X005060Y006605D02*
X005150Y006389D01*
X005316Y006223D01*
X005533Y006133D01*
X005767Y006133D01*
X005984Y006223D01*
X006150Y006389D01*
X006240Y006605D01*
X006240Y006840D01*
X006150Y007057D01*
X005984Y007223D01*
X005767Y007313D01*
X005533Y007313D01*
X005316Y007223D01*
X005150Y007057D01*
X005060Y006840D01*
X005060Y006605D01*
X005060Y006629D02*
X003064Y006629D01*
X003036Y006728D02*
X005060Y006728D01*
X005060Y006826D02*
X002989Y006826D01*
X002917Y006925D02*
X005095Y006925D01*
X005136Y007023D02*
X002804Y007023D01*
X002572Y007122D02*
X005215Y007122D01*
X005313Y007220D02*
X001340Y007220D01*
X001340Y007122D02*
X002328Y007122D01*
X002304Y007118D02*
X002210Y007087D01*
X002122Y007043D01*
X002043Y006985D01*
X001973Y006915D01*
X001915Y006836D01*
X001871Y006748D01*
X001840Y006655D01*
X001825Y006558D01*
X002400Y006558D01*
X002400Y007133D01*
X002304Y007118D01*
X002400Y007122D02*
X002500Y007122D01*
X002500Y007023D02*
X002400Y007023D01*
X002400Y006925D02*
X002500Y006925D01*
X002500Y006826D02*
X002400Y006826D01*
X002400Y006728D02*
X002500Y006728D01*
X002500Y006629D02*
X002400Y006629D01*
X002400Y006531D02*
X001340Y006531D01*
X001340Y006629D02*
X001836Y006629D01*
X001864Y006728D02*
X001340Y006728D01*
X001340Y006826D02*
X001911Y006826D01*
X001983Y006925D02*
X001340Y006925D01*
X001340Y007023D02*
X002096Y007023D01*
X001829Y006432D02*
X001340Y006432D01*
X001340Y006334D02*
X001850Y006334D01*
X001888Y006235D02*
X001340Y006235D01*
X001340Y006137D02*
X001947Y006137D01*
X002036Y006038D02*
X001340Y006038D01*
X001340Y005940D02*
X002189Y005940D01*
X002864Y006038D02*
X006550Y006038D01*
X006550Y006137D02*
X005777Y006137D01*
X005523Y006137D02*
X002953Y006137D01*
X003012Y006235D02*
X005303Y006235D01*
X005205Y006334D02*
X003050Y006334D01*
X003071Y006432D02*
X005132Y006432D01*
X005987Y007220D02*
X006550Y007220D01*
X006550Y007122D02*
X006085Y007122D01*
X006164Y007023D02*
X006550Y007023D01*
X006550Y006925D02*
X006205Y006925D01*
X006240Y006826D02*
X006550Y006826D01*
X006550Y006728D02*
X006240Y006728D01*
X006240Y006629D02*
X006550Y006629D01*
X006550Y006531D02*
X006209Y006531D01*
X006168Y006432D02*
X006550Y006432D01*
X006550Y006334D02*
X006095Y006334D01*
X005997Y006235D02*
X006550Y006235D01*
X006550Y007319D02*
X001340Y007319D01*
X001340Y007417D02*
X006550Y007417D01*
X006550Y007516D02*
X001340Y007516D01*
X001340Y007614D02*
X006550Y007614D01*
X006550Y007713D02*
X001340Y007713D01*
X001340Y007811D02*
X006550Y007811D01*
X006550Y007910D02*
X003102Y007910D01*
X003115Y007923D02*
X003115Y009030D01*
X003004Y009142D01*
X001896Y009142D01*
X001785Y009030D01*
X001785Y007923D01*
X001896Y007812D01*
X003004Y007812D01*
X003115Y007923D01*
X003115Y008008D02*
X006550Y008008D01*
X006550Y008107D02*
X003115Y008107D01*
X003115Y008205D02*
X005463Y008205D01*
X005439Y008213D02*
X005521Y008186D01*
X005600Y008174D01*
X005600Y008673D01*
X005101Y008673D01*
X005114Y008594D01*
X005140Y008512D01*
X005180Y008434D01*
X005230Y008364D01*
X005292Y008303D01*
X005362Y008252D01*
X005439Y008213D01*
X005600Y008205D02*
X005700Y008205D01*
X005700Y008174D02*
X005779Y008186D01*
X005861Y008213D01*
X005938Y008252D01*
X006008Y008303D01*
X006070Y008364D01*
X006120Y008434D01*
X006160Y008512D01*
X006186Y008594D01*
X006199Y008673D01*
X005700Y008673D01*
X005700Y008773D01*
X005600Y008773D01*
X005600Y009272D01*
X005521Y009259D01*
X005439Y009232D01*
X005362Y009193D01*
X005292Y009142D01*
X005230Y009081D01*
X005180Y009011D01*
X005140Y008934D01*
X005114Y008852D01*
X005101Y008773D01*
X005600Y008773D01*
X005600Y008673D01*
X005700Y008673D01*
X005700Y008174D01*
X005700Y008304D02*
X005600Y008304D01*
X005600Y008402D02*
X005700Y008402D01*
X005700Y008501D02*
X005600Y008501D01*
X005600Y008599D02*
X005700Y008599D01*
X005700Y008698D02*
X006550Y008698D01*
X006550Y008796D02*
X006195Y008796D01*
X006199Y008773D02*
X006186Y008852D01*
X006160Y008934D01*
X006120Y009011D01*
X006070Y009081D01*
X006008Y009142D01*
X005938Y009193D01*
X005861Y009232D01*
X005779Y009259D01*
X005700Y009272D01*
X005700Y008773D01*
X006199Y008773D01*
X006172Y008895D02*
X006550Y008895D01*
X006550Y008993D02*
X006129Y008993D01*
X006059Y009092D02*
X006550Y009092D01*
X006550Y009190D02*
X005942Y009190D01*
X005700Y009190D02*
X005600Y009190D01*
X005600Y009092D02*
X005700Y009092D01*
X005700Y008993D02*
X005600Y008993D01*
X005600Y008895D02*
X005700Y008895D01*
X005700Y008796D02*
X005600Y008796D01*
X005600Y008698D02*
X003115Y008698D01*
X003115Y008796D02*
X005105Y008796D01*
X005128Y008895D02*
X003115Y008895D01*
X003115Y008993D02*
X005171Y008993D01*
X005241Y009092D02*
X003054Y009092D01*
X003115Y008599D02*
X005113Y008599D01*
X005146Y008501D02*
X003115Y008501D01*
X003115Y008402D02*
X005203Y008402D01*
X005291Y008304D02*
X003115Y008304D01*
X001846Y009092D02*
X001340Y009092D01*
X001340Y009190D02*
X005358Y009190D01*
X005837Y008205D02*
X006550Y008205D01*
X006550Y008304D02*
X006009Y008304D01*
X006097Y008402D02*
X006550Y008402D01*
X006550Y008501D02*
X006154Y008501D01*
X006187Y008599D02*
X006550Y008599D01*
X006550Y009289D02*
X001340Y009289D01*
X001340Y009387D02*
X006550Y009387D01*
X006550Y009486D02*
X001340Y009486D01*
X001340Y009584D02*
X006550Y009584D01*
X006550Y009683D02*
X001340Y009683D01*
X001340Y009781D02*
X006550Y009781D01*
X006550Y009880D02*
X001340Y009880D01*
X001340Y009978D02*
X006550Y009978D01*
X006550Y010077D02*
X001340Y010077D01*
X001340Y010865D02*
X006720Y010865D01*
X006653Y010963D02*
X001340Y010963D01*
X001340Y011062D02*
X006612Y011062D01*
X006590Y011160D02*
X005834Y011160D01*
X006020Y011259D02*
X006590Y011259D01*
X006598Y011357D02*
X006119Y011357D01*
X006178Y011456D02*
X006553Y011456D01*
X006455Y011554D02*
X006219Y011554D01*
X006240Y011653D02*
X006356Y011653D01*
X006258Y011751D02*
X006240Y011751D01*
X005466Y011160D02*
X001340Y011160D01*
X001340Y011259D02*
X005280Y011259D01*
X005181Y011357D02*
X001340Y011357D01*
X001340Y011456D02*
X005122Y011456D01*
X005081Y011554D02*
X001340Y011554D01*
X002465Y011751D02*
X002835Y011751D01*
X002735Y011850D02*
X002565Y011850D01*
X002641Y011948D02*
X002659Y011948D01*
X004111Y013820D02*
X006189Y013820D01*
X006091Y013918D02*
X004209Y013918D01*
X002500Y015987D02*
X002400Y015987D01*
X002400Y016085D02*
X002500Y016085D01*
X002500Y016184D02*
X002400Y016184D01*
X002400Y016282D02*
X002500Y016282D01*
X002500Y016381D02*
X002400Y016381D01*
X001785Y008993D02*
X001340Y008993D01*
X001340Y008895D02*
X001785Y008895D01*
X001785Y008796D02*
X001340Y008796D01*
X001340Y008698D02*
X001785Y008698D01*
X001785Y008599D02*
X001340Y008599D01*
X001340Y008501D02*
X001785Y008501D01*
X001785Y008402D02*
X001340Y008402D01*
X001340Y008304D02*
X001785Y008304D01*
X001785Y008205D02*
X001340Y008205D01*
X001340Y008107D02*
X001785Y008107D01*
X001785Y008008D02*
X001340Y008008D01*
X001340Y007910D02*
X001798Y007910D01*
X001821Y002689D02*
X001340Y002689D01*
X001340Y002591D02*
X001722Y002591D01*
X001654Y002492D02*
X001340Y002492D01*
X001340Y002394D02*
X001613Y002394D01*
X001590Y002295D02*
X001340Y002295D01*
X001340Y002197D02*
X001590Y002197D01*
X001597Y002098D02*
X001340Y002098D01*
X001340Y002000D02*
X001638Y002000D01*
X001684Y001901D02*
X001340Y001901D01*
X001340Y001803D02*
X001782Y001803D01*
X001948Y001704D02*
X001340Y001704D01*
X001340Y001606D02*
X002403Y001606D01*
X002502Y001507D02*
X001340Y001507D01*
X001340Y001409D02*
X002600Y001409D01*
X002699Y001310D02*
X001340Y001310D01*
X001340Y001212D02*
X002797Y001212D01*
X002896Y001113D02*
X001340Y001113D01*
X001340Y001015D02*
X002994Y001015D01*
X003093Y000916D02*
X001340Y000916D01*
X001340Y000818D02*
X003191Y000818D01*
X003290Y000719D02*
X001340Y000719D01*
X001340Y000621D02*
X003388Y000621D01*
X002654Y002492D02*
X002646Y002492D01*
X002578Y002591D02*
X002722Y002591D01*
X002821Y002689D02*
X002479Y002689D01*
X009410Y023473D02*
X009654Y023473D01*
X009620Y023571D02*
X009410Y023571D01*
X009410Y023670D02*
X009620Y023670D01*
X009620Y023768D02*
X009410Y023768D01*
X009410Y023867D02*
X009620Y023867D01*
X009639Y023965D02*
X009410Y023965D01*
X009410Y024064D02*
X009738Y024064D01*
X009836Y024162D02*
X009453Y024162D01*
X009552Y024261D02*
X009866Y024261D01*
X009768Y024359D02*
X009650Y024359D01*
X009407Y024852D02*
X008910Y024852D01*
X008910Y024950D02*
X009510Y024950D01*
X009503Y024947D02*
X009430Y024874D01*
X008930Y024374D01*
X008910Y024327D01*
X008910Y026119D01*
X009258Y026467D01*
X009660Y026467D01*
X009900Y026227D01*
X009620Y025946D01*
X009620Y025507D01*
X009900Y025227D01*
X009660Y024987D01*
X009598Y024987D01*
X009503Y024947D01*
X009723Y025049D02*
X008910Y025049D01*
X008910Y025147D02*
X009821Y025147D01*
X009881Y025246D02*
X008910Y025246D01*
X008910Y025344D02*
X009783Y025344D01*
X009684Y025443D02*
X008910Y025443D01*
X008910Y025541D02*
X009620Y025541D01*
X009620Y025640D02*
X008910Y025640D01*
X008910Y025738D02*
X009620Y025738D01*
X009620Y025837D02*
X008910Y025837D01*
X008910Y025935D02*
X009620Y025935D01*
X009708Y026034D02*
X008910Y026034D01*
X008923Y026132D02*
X009806Y026132D01*
X009896Y026231D02*
X009022Y026231D01*
X009120Y026329D02*
X009798Y026329D01*
X009699Y026428D02*
X009219Y026428D01*
X009059Y028004D02*
X007250Y028004D01*
X007250Y028201D02*
X008466Y028201D01*
X008368Y028299D02*
X007250Y028299D01*
X007250Y028398D02*
X008269Y028398D01*
X008220Y028496D02*
X007250Y028496D01*
X007250Y028595D02*
X008179Y028595D01*
X008138Y028693D02*
X007250Y028693D01*
X007250Y028792D02*
X008130Y028792D01*
X008130Y028890D02*
X007250Y028890D01*
X007250Y028989D02*
X008130Y028989D01*
X008150Y029087D02*
X007250Y029087D01*
X007250Y029186D02*
X008190Y029186D01*
X008231Y029284D02*
X007250Y029284D01*
X007250Y029383D02*
X008296Y029383D01*
X008395Y029481D02*
X007250Y029481D01*
X007250Y029580D02*
X008505Y029580D01*
X008742Y029678D02*
X007250Y029678D01*
X007250Y029777D02*
X010832Y029777D01*
X010734Y029678D02*
X009158Y029678D01*
X009395Y029580D02*
X010635Y029580D01*
X010537Y029481D02*
X009505Y029481D01*
X009604Y029383D02*
X010438Y029383D01*
X010340Y029284D02*
X009669Y029284D01*
X009710Y029186D02*
X010241Y029186D01*
X010143Y029087D02*
X009750Y029087D01*
X009770Y028989D02*
X010044Y028989D01*
X009946Y028890D02*
X009770Y028890D01*
X009770Y028792D02*
X009847Y028792D01*
X010931Y029875D02*
X007250Y029875D01*
X007250Y029974D02*
X011067Y029974D01*
X011351Y028201D02*
X011949Y028201D01*
X011797Y028102D02*
X011503Y028102D01*
X011593Y028004D02*
X011707Y028004D01*
X011667Y027905D02*
X011633Y027905D01*
X011618Y027511D02*
X011682Y027511D01*
X011736Y027413D02*
X011564Y027413D01*
X011466Y027314D02*
X011834Y027314D01*
X011388Y026621D02*
X011390Y026619D01*
X011390Y025334D01*
X010680Y024624D01*
X010680Y024946D01*
X010400Y025227D01*
X010680Y025507D01*
X010680Y025889D01*
X011297Y026506D01*
X011370Y026579D01*
X011388Y026621D01*
X011390Y026526D02*
X011317Y026526D01*
X011390Y026428D02*
X011219Y026428D01*
X011120Y026329D02*
X011390Y026329D01*
X011390Y026231D02*
X011022Y026231D01*
X010923Y026132D02*
X011390Y026132D01*
X011390Y026034D02*
X010825Y026034D01*
X010726Y025935D02*
X011390Y025935D01*
X011390Y025837D02*
X010680Y025837D01*
X010680Y025738D02*
X011390Y025738D01*
X011390Y025640D02*
X010680Y025640D01*
X010680Y025541D02*
X011390Y025541D01*
X011390Y025443D02*
X010616Y025443D01*
X010517Y025344D02*
X011390Y025344D01*
X011301Y025246D02*
X010419Y025246D01*
X010479Y025147D02*
X011203Y025147D01*
X011104Y025049D02*
X010577Y025049D01*
X010676Y024950D02*
X011006Y024950D01*
X010907Y024852D02*
X010680Y024852D01*
X010680Y024753D02*
X010809Y024753D01*
X010710Y024655D02*
X010680Y024655D01*
X010680Y026624D02*
X010782Y026727D01*
X010680Y026829D01*
X010680Y026624D01*
X010680Y026625D02*
X010680Y026625D01*
X010680Y026723D02*
X010779Y026723D01*
X010687Y026822D02*
X010680Y026822D01*
X009309Y024753D02*
X008910Y024753D01*
X008910Y024655D02*
X009210Y024655D01*
X009112Y024556D02*
X008910Y024556D01*
X008910Y024458D02*
X009013Y024458D01*
X008923Y024359D02*
X008910Y024359D01*
X005700Y028201D02*
X005600Y028201D01*
X005600Y028299D02*
X005700Y028299D01*
X005700Y028398D02*
X005600Y028398D01*
X005600Y028496D02*
X005700Y028496D01*
X005700Y028595D02*
X005600Y028595D01*
X005600Y028693D02*
X003115Y028693D01*
X003115Y028595D02*
X005113Y028595D01*
X005148Y028496D02*
X003115Y028496D01*
X003115Y028398D02*
X005206Y028398D01*
X005297Y028299D02*
X003115Y028299D01*
X003115Y028201D02*
X005477Y028201D01*
X005104Y028792D02*
X003115Y028792D01*
X003115Y028890D02*
X005126Y028890D01*
X005168Y028989D02*
X003107Y028989D01*
X003008Y029087D02*
X005237Y029087D01*
X005309Y027216D02*
X001340Y027216D01*
X014983Y017267D02*
X015960Y017267D01*
X015960Y017169D02*
X015000Y017169D01*
X015098Y017070D02*
X015960Y017070D01*
X015960Y016972D02*
X015197Y016972D01*
X015210Y016873D02*
X015960Y016873D01*
X015960Y016775D02*
X015210Y016775D01*
X015210Y016676D02*
X015960Y016676D01*
X015960Y016578D02*
X015210Y016578D01*
X015194Y016479D02*
X015960Y016479D01*
X015960Y016381D02*
X015096Y016381D01*
X015401Y016282D02*
X015960Y016282D01*
X015960Y016184D02*
X015499Y016184D01*
X015598Y016085D02*
X015960Y016085D01*
X015960Y015987D02*
X015696Y015987D01*
X015720Y015888D02*
X015960Y015888D01*
X015960Y015790D02*
X015720Y015790D01*
X015720Y015691D02*
X015960Y015691D01*
X015960Y015593D02*
X015720Y015593D01*
X015720Y015494D02*
X015960Y015494D01*
X015960Y015396D02*
X015625Y015396D01*
X015527Y015297D02*
X015960Y015297D01*
X015960Y015199D02*
X015428Y015199D01*
X015081Y017366D02*
X015960Y017366D01*
X015960Y017464D02*
X015180Y017464D01*
X015210Y017563D02*
X015960Y017563D01*
X015960Y017661D02*
X015210Y017661D01*
X015210Y017760D02*
X015960Y017760D01*
X015960Y017858D02*
X015210Y017858D01*
X015248Y017957D02*
X015960Y017957D01*
X015960Y018055D02*
X015346Y018055D01*
X015445Y018154D02*
X015960Y018154D01*
X015960Y018252D02*
X015543Y018252D01*
M02*
