G75*
G70*
%OFA0B0*%
%FSLAX24Y24*%
%IPPOS*%
%LPD*%
%AMOC8*
5,1,8,0,0,1.08239X$1,22.5*
%
%ADD10C,0.0080*%
%ADD11C,0.0040*%
%ADD12C,0.0010*%
%ADD13C,0.0060*%
%ADD14C,0.0100*%
%ADD15C,0.0050*%
%ADD16C,0.0020*%
%ADD17C,0.0000*%
%ADD18C,0.0059*%
D10*
X001150Y000227D02*
X001150Y030227D01*
X016150Y030227D01*
X016150Y000227D01*
X001150Y000227D01*
X001650Y001477D02*
X001650Y002977D01*
X001544Y005288D02*
X001151Y005288D01*
X001151Y009697D01*
X001544Y009697D01*
X001544Y005288D01*
X004104Y005288D01*
X004104Y009697D01*
X001544Y009697D01*
X001650Y011477D02*
X001650Y012977D01*
X001544Y015288D02*
X001151Y015288D01*
X001151Y019697D01*
X001544Y019697D01*
X001544Y015288D01*
X004104Y015288D01*
X004104Y019697D01*
X001544Y019697D01*
X001650Y021477D02*
X001650Y022977D01*
X001544Y025238D02*
X001151Y025238D01*
X001151Y029647D01*
X001544Y029647D01*
X001544Y025238D01*
X004104Y025238D01*
X004104Y029647D01*
X001544Y029647D01*
X004863Y029754D02*
X005256Y029754D01*
X005256Y029242D01*
X005256Y029754D02*
X006437Y029754D01*
X006437Y020699D01*
X005256Y020699D01*
X005256Y021211D01*
X005256Y020699D02*
X004863Y020699D01*
X004863Y029754D01*
X005256Y028219D02*
X005256Y027235D01*
X005256Y026211D02*
X005256Y023219D01*
X006850Y023727D02*
X006850Y021727D01*
X007150Y021727D01*
X007150Y021627D01*
X007150Y021727D02*
X007450Y021727D01*
X007450Y023727D01*
X007150Y023727D01*
X007150Y023827D01*
X007150Y023727D02*
X006850Y023727D01*
X006437Y019754D02*
X005256Y019754D01*
X005256Y019242D01*
X005256Y019754D02*
X004863Y019754D01*
X004863Y010699D01*
X005256Y010699D01*
X005256Y011211D01*
X005256Y010699D02*
X006437Y010699D01*
X006437Y019754D01*
X005256Y018219D02*
X005256Y017235D01*
X005256Y016211D02*
X005256Y013219D01*
X006850Y013727D02*
X006850Y011727D01*
X007150Y011727D01*
X007150Y011627D01*
X007150Y011727D02*
X007450Y011727D01*
X007450Y013727D01*
X007150Y013727D01*
X007150Y013827D01*
X007150Y013727D02*
X006850Y013727D01*
X006437Y009754D02*
X005256Y009754D01*
X005256Y009242D01*
X005256Y009754D02*
X004863Y009754D01*
X004863Y000699D01*
X005256Y000699D01*
X005256Y001211D01*
X005256Y000699D02*
X006437Y000699D01*
X006437Y009754D01*
X005256Y008219D02*
X005256Y007235D01*
X005256Y006211D02*
X005256Y003219D01*
X006850Y003727D02*
X006850Y001727D01*
X007150Y001727D01*
X007150Y001627D01*
X007150Y001727D02*
X007450Y001727D01*
X007450Y003727D01*
X007150Y003727D01*
X007150Y003827D01*
X007150Y003727D02*
X006850Y003727D01*
X010536Y010015D02*
X010536Y010782D01*
X010536Y010015D02*
X014869Y010015D01*
X014869Y013438D01*
X012882Y013438D01*
X012418Y014750D02*
X015922Y014750D01*
X015922Y016861D01*
X015331Y016861D01*
X015331Y018593D01*
X015922Y018593D01*
X015922Y016861D01*
X015243Y016977D02*
X015243Y016477D01*
X015922Y018593D02*
X015922Y020703D01*
X012378Y020703D01*
X012378Y014750D01*
X011032Y013438D02*
X010536Y013438D01*
X010536Y012672D01*
X011150Y006527D02*
X013150Y006527D01*
X013150Y006227D01*
X013250Y006227D01*
X013150Y006227D02*
X013150Y005927D01*
X011150Y005927D01*
X011150Y006227D01*
X011050Y006227D01*
X011150Y006227D02*
X011150Y006527D01*
X010650Y023227D02*
X010650Y027227D01*
X010650Y028227D01*
X012650Y028227D01*
X012650Y027227D01*
X010650Y027227D01*
X011050Y027227D01*
X011250Y027227D01*
X011050Y027227D02*
X012650Y027227D01*
X012650Y023227D01*
X010650Y023227D01*
X011650Y027477D02*
X011650Y027977D01*
D11*
X011539Y022957D02*
X011539Y022880D01*
X011692Y022727D01*
X011692Y022497D01*
X011692Y022727D02*
X011846Y022880D01*
X011846Y022957D01*
X011999Y022880D02*
X011999Y022804D01*
X012076Y022727D01*
X012229Y022727D01*
X012306Y022650D01*
X012306Y022573D01*
X012229Y022497D01*
X012076Y022497D01*
X011999Y022573D01*
X011999Y022650D01*
X012076Y022727D01*
X012229Y022727D02*
X012306Y022804D01*
X012306Y022880D01*
X012229Y022957D01*
X012076Y022957D01*
X011999Y022880D01*
X012460Y022957D02*
X012460Y022727D01*
X012613Y022804D01*
X012690Y022804D01*
X012767Y022727D01*
X012767Y022573D01*
X012690Y022497D01*
X012536Y022497D01*
X012460Y022573D01*
X012460Y022957D02*
X012767Y022957D01*
X013432Y021557D02*
X013585Y021557D01*
X013509Y021557D02*
X013509Y021097D01*
X013585Y021097D02*
X013432Y021097D01*
X013739Y021173D02*
X013816Y021097D01*
X013969Y021097D01*
X014046Y021173D01*
X014199Y021173D02*
X014276Y021097D01*
X014429Y021097D01*
X014506Y021173D01*
X014506Y021250D01*
X014429Y021327D01*
X014276Y021327D01*
X014199Y021404D01*
X014199Y021480D01*
X014276Y021557D01*
X014429Y021557D01*
X014506Y021480D01*
X014660Y021557D02*
X014660Y021097D01*
X014660Y021250D02*
X014890Y021250D01*
X014967Y021327D01*
X014967Y021480D01*
X014890Y021557D01*
X014660Y021557D01*
X014046Y021480D02*
X013969Y021557D01*
X013816Y021557D01*
X013739Y021480D01*
X013739Y021173D01*
X011385Y022497D02*
X011385Y022957D01*
X011078Y022957D02*
X011385Y022497D01*
X011078Y022497D02*
X011078Y022957D01*
X010925Y022957D02*
X010771Y022957D01*
X010848Y022957D02*
X010848Y022497D01*
X010771Y022497D02*
X010925Y022497D01*
X010618Y022957D02*
X010311Y022957D01*
X010465Y022957D02*
X010465Y022497D01*
X008630Y019737D02*
X008323Y019737D01*
X008170Y019583D01*
X008323Y019430D01*
X008630Y019430D01*
X008553Y019276D02*
X008630Y019200D01*
X008630Y019046D01*
X008553Y018969D01*
X008477Y018969D01*
X008400Y019046D01*
X008400Y019200D01*
X008477Y019276D01*
X008553Y019276D01*
X008400Y019200D02*
X008323Y019276D01*
X008246Y019276D01*
X008170Y019200D01*
X008170Y019046D01*
X008246Y018969D01*
X008323Y018969D01*
X008400Y019046D01*
X008170Y018816D02*
X008630Y018509D01*
X008553Y018356D02*
X008630Y018279D01*
X008630Y018125D01*
X008553Y018049D01*
X008246Y018049D01*
X008170Y018125D01*
X008170Y018279D01*
X008246Y018356D01*
X007980Y018192D02*
X007520Y018192D01*
X007520Y018345D02*
X007520Y018038D01*
X007596Y017885D02*
X007673Y017885D01*
X007750Y017808D01*
X007750Y017655D01*
X007673Y017578D01*
X007596Y017578D01*
X007520Y017655D01*
X007520Y017808D01*
X007596Y017885D01*
X007750Y017808D02*
X007827Y017885D01*
X007903Y017885D01*
X007980Y017808D01*
X007980Y017655D01*
X007903Y017578D01*
X007827Y017578D01*
X007750Y017655D01*
X007596Y017424D02*
X007903Y017424D01*
X007980Y017348D01*
X007980Y017194D01*
X007903Y017117D01*
X007596Y017424D01*
X007520Y017348D01*
X007520Y017194D01*
X007596Y017117D01*
X007903Y017117D01*
X007980Y016964D02*
X007980Y016657D01*
X007980Y016811D02*
X007520Y016811D01*
X007673Y016657D01*
X007596Y016504D02*
X007520Y016427D01*
X007520Y016273D01*
X007596Y016197D01*
X007673Y016197D01*
X007750Y016273D01*
X007750Y016427D01*
X007827Y016504D01*
X007903Y016504D01*
X007980Y016427D01*
X007980Y016273D01*
X007903Y016197D01*
X008170Y016284D02*
X008246Y016207D01*
X008170Y016284D02*
X008170Y016437D01*
X008246Y016514D01*
X008323Y016514D01*
X008630Y016207D01*
X008630Y016514D01*
X008553Y016667D02*
X008630Y016744D01*
X008630Y016898D01*
X008553Y016974D01*
X008400Y016974D01*
X008323Y016898D01*
X008323Y016821D01*
X008400Y016667D01*
X008170Y016667D01*
X008170Y016974D01*
X008170Y017128D02*
X008477Y017128D01*
X008630Y017281D01*
X008477Y017435D01*
X008170Y017435D01*
X008323Y017588D02*
X008170Y017742D01*
X008323Y017895D01*
X008630Y017895D01*
X008400Y017895D02*
X008400Y017588D01*
X008323Y017588D02*
X008630Y017588D01*
X007903Y018499D02*
X007980Y018575D01*
X007980Y018729D01*
X007903Y018806D01*
X007596Y018806D01*
X007903Y018499D01*
X007596Y018499D01*
X007520Y018575D01*
X007520Y018729D01*
X007596Y018806D01*
X007596Y018959D02*
X007520Y019036D01*
X007520Y019189D01*
X007596Y019266D01*
X007673Y019266D01*
X007980Y018959D01*
X007980Y019266D01*
X008400Y019430D02*
X008400Y019737D01*
X008630Y016054D02*
X008630Y015747D01*
X008630Y015900D02*
X008170Y015900D01*
X008323Y015747D01*
X009686Y009374D02*
X009610Y009298D01*
X009610Y009067D01*
X010070Y009067D01*
X010070Y008914D02*
X009610Y008914D01*
X009610Y008607D02*
X010070Y008607D01*
X009917Y008761D01*
X010070Y008914D01*
X009917Y009067D02*
X009917Y009298D01*
X009840Y009374D01*
X009686Y009374D01*
X009917Y009221D02*
X010070Y009374D01*
X009840Y008454D02*
X009686Y008454D01*
X009610Y008377D01*
X009610Y008147D01*
X010070Y008147D01*
X009917Y008147D02*
X009917Y008377D01*
X009840Y008454D01*
X009569Y004707D02*
X009338Y004707D01*
X009338Y004247D01*
X009569Y004247D01*
X009645Y004323D01*
X009645Y004400D01*
X009569Y004477D01*
X009338Y004477D01*
X009569Y004477D02*
X009645Y004554D01*
X009645Y004630D01*
X009569Y004707D01*
X009799Y004554D02*
X009799Y004323D01*
X009875Y004247D01*
X010106Y004247D01*
X010106Y004170D02*
X010029Y004093D01*
X009952Y004093D01*
X010106Y004170D02*
X010106Y004554D01*
X010259Y004554D02*
X010259Y004247D01*
X010259Y004400D02*
X010413Y004554D01*
X010489Y004554D01*
X010643Y004554D02*
X010643Y004247D01*
X010643Y004554D02*
X010873Y004554D01*
X010950Y004477D01*
X010950Y004247D01*
X011103Y004323D02*
X011103Y004477D01*
X011180Y004554D01*
X011333Y004554D01*
X011410Y004477D01*
X011410Y004400D01*
X011103Y004400D01*
X011103Y004323D02*
X011180Y004247D01*
X011333Y004247D01*
X011564Y004247D02*
X011871Y004247D01*
X012024Y004247D02*
X012177Y004247D01*
X012101Y004247D02*
X012101Y004554D01*
X012024Y004554D01*
X012101Y004707D02*
X012101Y004784D01*
X012331Y004554D02*
X012484Y004554D01*
X012408Y004630D02*
X012408Y004323D01*
X012484Y004247D01*
X012638Y004323D02*
X012638Y004477D01*
X012715Y004554D01*
X012868Y004554D01*
X012945Y004477D01*
X012945Y004400D01*
X012638Y004400D01*
X012638Y004323D02*
X012715Y004247D01*
X012868Y004247D01*
X012638Y003554D02*
X012408Y003554D01*
X012408Y003707D02*
X012408Y003247D01*
X012638Y003247D01*
X012715Y003323D01*
X012715Y003477D01*
X012638Y003554D01*
X012254Y003477D02*
X012254Y003400D01*
X011947Y003400D01*
X011947Y003323D02*
X011947Y003477D01*
X012024Y003554D01*
X012177Y003554D01*
X012254Y003477D01*
X012177Y003247D02*
X012024Y003247D01*
X011947Y003323D01*
X011640Y003477D02*
X011487Y003477D01*
X011487Y003247D02*
X011487Y003707D01*
X011794Y003707D01*
X011564Y004247D02*
X011564Y004707D01*
X013328Y003630D02*
X013405Y003707D01*
X013559Y003707D01*
X013635Y003630D01*
X013635Y003554D01*
X013328Y003247D01*
X013635Y003247D01*
X013789Y003323D02*
X013789Y003630D01*
X013866Y003707D01*
X014019Y003707D01*
X014096Y003630D01*
X013789Y003323D01*
X013866Y003247D01*
X014019Y003247D01*
X014096Y003323D01*
X014096Y003630D01*
X014249Y003554D02*
X014403Y003707D01*
X014403Y003247D01*
X014556Y003247D02*
X014249Y003247D01*
X014710Y003323D02*
X014786Y003247D01*
X014940Y003247D01*
X015017Y003323D01*
X015017Y003400D01*
X014940Y003477D01*
X014863Y003477D01*
X014940Y003477D02*
X015017Y003554D01*
X015017Y003630D01*
X014940Y003707D01*
X014786Y003707D01*
X014710Y003630D01*
X014786Y004247D02*
X014710Y004323D01*
X015017Y004630D01*
X015017Y004323D01*
X014940Y004247D01*
X014786Y004247D01*
X014710Y004323D02*
X014710Y004630D01*
X014786Y004707D01*
X014940Y004707D01*
X015017Y004630D01*
X014556Y004323D02*
X014556Y004247D01*
X014479Y004247D01*
X014479Y004323D01*
X014556Y004323D01*
X014326Y004247D02*
X014019Y004247D01*
X014172Y004247D02*
X014172Y004707D01*
X014019Y004554D01*
X013866Y004554D02*
X013712Y004247D01*
X013559Y004554D01*
X014701Y006970D02*
X015008Y006970D01*
X015162Y007123D02*
X015238Y007047D01*
X015392Y007047D01*
X015468Y007123D01*
X015468Y007200D01*
X015392Y007277D01*
X015238Y007277D01*
X015162Y007354D01*
X015162Y007430D01*
X015238Y007507D01*
X015392Y007507D01*
X015468Y007430D01*
X015622Y007507D02*
X015622Y007047D01*
X015775Y007200D01*
X015929Y007047D01*
X015929Y007507D01*
X014548Y007430D02*
X014548Y007277D01*
X014471Y007200D01*
X014241Y007200D01*
X014394Y007200D02*
X014548Y007047D01*
X014548Y007430D02*
X014471Y007507D01*
X014241Y007507D01*
X014241Y007047D01*
X014087Y007047D02*
X014087Y007507D01*
X013934Y007200D02*
X014087Y007047D01*
X013934Y007200D02*
X013780Y007047D01*
X013780Y007507D01*
X013627Y007430D02*
X013627Y007277D01*
X013550Y007200D01*
X013320Y007200D01*
X013320Y007047D02*
X013320Y007507D01*
X013550Y007507D01*
X013627Y007430D01*
X015363Y013593D02*
X015440Y013593D01*
X015517Y013670D01*
X015517Y014054D01*
X015286Y014054D01*
X015210Y013977D01*
X015210Y013823D01*
X015286Y013747D01*
X015517Y013747D01*
X015056Y013900D02*
X014749Y013900D01*
X014749Y013823D02*
X014749Y013977D01*
X014826Y014054D01*
X014979Y014054D01*
X015056Y013977D01*
X015056Y013900D01*
X014979Y013747D02*
X014826Y013747D01*
X014749Y013823D01*
X014596Y013747D02*
X014442Y013900D01*
X014519Y013900D02*
X014596Y013977D01*
X014596Y014130D01*
X014519Y014207D01*
X014289Y014207D01*
X014289Y013747D01*
X014289Y013900D02*
X014519Y013900D01*
X013675Y013900D02*
X013675Y014207D01*
X013675Y013900D02*
X013521Y013747D01*
X013368Y013900D01*
X013368Y014207D01*
X013215Y014207D02*
X012908Y014207D01*
X012908Y013977D01*
X013061Y014054D01*
X013138Y014054D01*
X013215Y013977D01*
X013215Y013823D01*
X013138Y013747D01*
X012984Y013747D01*
X012908Y013823D01*
X003818Y013997D02*
X003512Y013997D01*
X003818Y014304D01*
X003818Y014380D01*
X003742Y014457D01*
X003588Y014457D01*
X003512Y014380D01*
X003358Y014380D02*
X003358Y014073D01*
X003281Y013997D01*
X003051Y013997D01*
X003051Y014457D01*
X003281Y014457D01*
X003358Y014380D01*
X002898Y014304D02*
X002898Y013997D01*
X002898Y014227D02*
X002591Y014227D01*
X002591Y014304D02*
X002591Y013997D01*
X002437Y014073D02*
X002437Y014380D01*
X002361Y014457D01*
X002207Y014457D01*
X002130Y014380D01*
X002130Y014073D01*
X002207Y013997D01*
X002361Y013997D01*
X002437Y014073D01*
X002591Y014304D02*
X002744Y014457D01*
X002898Y014304D01*
X001977Y013997D02*
X001670Y013997D01*
X001670Y014457D01*
X001670Y023997D02*
X001977Y023997D01*
X002130Y024073D02*
X002207Y023997D01*
X002361Y023997D01*
X002437Y024073D01*
X002437Y024380D01*
X002361Y024457D01*
X002207Y024457D01*
X002130Y024380D01*
X002130Y024073D01*
X001670Y023997D02*
X001670Y024457D01*
X002591Y024304D02*
X002591Y023997D01*
X002591Y024227D02*
X002898Y024227D01*
X002898Y024304D02*
X002744Y024457D01*
X002591Y024304D01*
X002898Y024304D02*
X002898Y023997D01*
X003051Y023997D02*
X003281Y023997D01*
X003358Y024073D01*
X003358Y024380D01*
X003281Y024457D01*
X003051Y024457D01*
X003051Y023997D01*
X003512Y024073D02*
X003588Y023997D01*
X003742Y023997D01*
X003818Y024073D01*
X003818Y024150D01*
X003742Y024227D01*
X003665Y024227D01*
X003742Y024227D02*
X003818Y024304D01*
X003818Y024380D01*
X003742Y024457D01*
X003588Y024457D01*
X003512Y024380D01*
X003665Y004507D02*
X003512Y004354D01*
X003358Y004430D02*
X003358Y004123D01*
X003281Y004047D01*
X003051Y004047D01*
X003051Y004507D01*
X003281Y004507D01*
X003358Y004430D01*
X003512Y004047D02*
X003818Y004047D01*
X003665Y004047D02*
X003665Y004507D01*
X002898Y004354D02*
X002898Y004047D01*
X002898Y004277D02*
X002591Y004277D01*
X002591Y004354D02*
X002744Y004507D01*
X002898Y004354D01*
X002591Y004354D02*
X002591Y004047D01*
X002437Y004123D02*
X002437Y004430D01*
X002361Y004507D01*
X002207Y004507D01*
X002130Y004430D01*
X002130Y004123D01*
X002207Y004047D01*
X002361Y004047D01*
X002437Y004123D01*
X001977Y004047D02*
X001670Y004047D01*
X001670Y004507D01*
D12*
X001618Y001447D02*
X001690Y001501D01*
X001689Y001500D02*
X001732Y001447D01*
X001777Y001396D01*
X001826Y001348D01*
X001877Y001303D01*
X001931Y001260D01*
X001987Y001221D01*
X002045Y001185D01*
X002105Y001152D01*
X002166Y001123D01*
X002230Y001098D01*
X002294Y001076D01*
X002360Y001057D01*
X002427Y001043D01*
X002494Y001032D01*
X002562Y001025D01*
X002630Y001022D01*
X002699Y001023D01*
X002767Y001028D01*
X002835Y001036D01*
X002902Y001049D01*
X002968Y001065D01*
X003033Y001085D01*
X003098Y001108D01*
X003160Y001135D01*
X003221Y001166D01*
X003280Y001200D01*
X003338Y001237D01*
X003393Y001278D01*
X003445Y001322D01*
X003495Y001368D01*
X003542Y001417D01*
X003587Y001469D01*
X003628Y001523D01*
X003667Y001580D01*
X003702Y001639D01*
X003733Y001699D01*
X003761Y001761D01*
X003786Y001825D01*
X003807Y001890D01*
X003824Y001956D01*
X003838Y002023D01*
X003847Y002091D01*
X003853Y002159D01*
X003855Y002227D01*
X003853Y002295D01*
X003847Y002363D01*
X003838Y002431D01*
X003824Y002498D01*
X003807Y002564D01*
X003786Y002629D01*
X003761Y002693D01*
X003733Y002755D01*
X003702Y002815D01*
X003667Y002874D01*
X003628Y002931D01*
X003587Y002985D01*
X003542Y003037D01*
X003495Y003086D01*
X003445Y003132D01*
X003393Y003176D01*
X003338Y003217D01*
X003280Y003254D01*
X003221Y003288D01*
X003160Y003319D01*
X003098Y003346D01*
X003033Y003369D01*
X002968Y003389D01*
X002902Y003405D01*
X002835Y003418D01*
X002767Y003426D01*
X002699Y003431D01*
X002630Y003432D01*
X002562Y003429D01*
X002494Y003422D01*
X002427Y003411D01*
X002360Y003397D01*
X002294Y003378D01*
X002230Y003356D01*
X002166Y003331D01*
X002105Y003302D01*
X002045Y003269D01*
X001987Y003233D01*
X001931Y003194D01*
X001877Y003151D01*
X001826Y003106D01*
X001777Y003058D01*
X001732Y003007D01*
X001689Y002954D01*
X001618Y003007D01*
X001617Y003008D01*
X001661Y003063D01*
X001709Y003116D01*
X001759Y003167D01*
X001812Y003214D01*
X001867Y003258D01*
X001925Y003300D01*
X001985Y003338D01*
X002046Y003373D01*
X002110Y003404D01*
X002175Y003432D01*
X002242Y003456D01*
X002310Y003477D01*
X002379Y003493D01*
X002449Y003506D01*
X002519Y003515D01*
X002590Y003521D01*
X002661Y003522D01*
X002732Y003519D01*
X002803Y003513D01*
X002873Y003503D01*
X002942Y003489D01*
X003011Y003471D01*
X003079Y003449D01*
X003145Y003424D01*
X003210Y003395D01*
X003273Y003362D01*
X003334Y003326D01*
X003393Y003287D01*
X003450Y003245D01*
X003505Y003200D01*
X003557Y003151D01*
X003606Y003100D01*
X003653Y003047D01*
X003696Y002990D01*
X003736Y002932D01*
X003773Y002871D01*
X003807Y002809D01*
X003837Y002745D01*
X003864Y002679D01*
X003887Y002612D01*
X003906Y002543D01*
X003921Y002474D01*
X003933Y002404D01*
X003941Y002333D01*
X003945Y002262D01*
X003945Y002192D01*
X003941Y002121D01*
X003933Y002050D01*
X003921Y001980D01*
X003906Y001911D01*
X003887Y001842D01*
X003864Y001775D01*
X003837Y001709D01*
X003807Y001645D01*
X003773Y001583D01*
X003736Y001522D01*
X003696Y001464D01*
X003653Y001407D01*
X003606Y001354D01*
X003557Y001303D01*
X003505Y001254D01*
X003450Y001209D01*
X003393Y001167D01*
X003334Y001128D01*
X003273Y001092D01*
X003210Y001059D01*
X003145Y001030D01*
X003079Y001005D01*
X003011Y000983D01*
X002942Y000965D01*
X002873Y000951D01*
X002803Y000941D01*
X002732Y000935D01*
X002661Y000932D01*
X002590Y000933D01*
X002519Y000939D01*
X002449Y000948D01*
X002379Y000961D01*
X002310Y000977D01*
X002242Y000998D01*
X002175Y001022D01*
X002110Y001050D01*
X002046Y001081D01*
X001985Y001116D01*
X001925Y001154D01*
X001867Y001196D01*
X001812Y001240D01*
X001759Y001287D01*
X001709Y001338D01*
X001661Y001391D01*
X001617Y001446D01*
X001624Y001451D01*
X001669Y001396D01*
X001716Y001343D01*
X001767Y001292D01*
X001820Y001245D01*
X001876Y001200D01*
X001934Y001159D01*
X001994Y001121D01*
X002056Y001086D01*
X002120Y001055D01*
X002186Y001028D01*
X002253Y001004D01*
X002322Y000984D01*
X002391Y000967D01*
X002461Y000955D01*
X002532Y000946D01*
X002603Y000942D01*
X002674Y000941D01*
X002745Y000945D01*
X002816Y000952D01*
X002887Y000963D01*
X002956Y000978D01*
X003025Y000997D01*
X003093Y001020D01*
X003159Y001046D01*
X003224Y001076D01*
X003286Y001110D01*
X003347Y001146D01*
X003406Y001187D01*
X003463Y001230D01*
X003517Y001277D01*
X003568Y001326D01*
X003616Y001379D01*
X003662Y001433D01*
X003704Y001491D01*
X003743Y001550D01*
X003779Y001612D01*
X003812Y001675D01*
X003840Y001740D01*
X003866Y001807D01*
X003887Y001875D01*
X003905Y001944D01*
X003918Y002014D01*
X003928Y002085D01*
X003934Y002156D01*
X003936Y002227D01*
X003934Y002298D01*
X003928Y002369D01*
X003918Y002440D01*
X003905Y002510D01*
X003887Y002579D01*
X003866Y002647D01*
X003840Y002714D01*
X003812Y002779D01*
X003779Y002842D01*
X003743Y002904D01*
X003704Y002963D01*
X003662Y003021D01*
X003616Y003075D01*
X003568Y003128D01*
X003517Y003177D01*
X003463Y003224D01*
X003406Y003267D01*
X003347Y003308D01*
X003286Y003344D01*
X003224Y003378D01*
X003159Y003408D01*
X003093Y003434D01*
X003025Y003457D01*
X002956Y003476D01*
X002887Y003491D01*
X002816Y003502D01*
X002745Y003509D01*
X002674Y003513D01*
X002603Y003512D01*
X002532Y003508D01*
X002461Y003499D01*
X002391Y003487D01*
X002322Y003470D01*
X002253Y003450D01*
X002186Y003426D01*
X002120Y003399D01*
X002056Y003368D01*
X001994Y003333D01*
X001934Y003295D01*
X001876Y003254D01*
X001820Y003209D01*
X001767Y003162D01*
X001716Y003111D01*
X001669Y003058D01*
X001624Y003003D01*
X001631Y002997D01*
X001676Y003052D01*
X001723Y003105D01*
X001773Y003155D01*
X001826Y003202D01*
X001881Y003246D01*
X001939Y003288D01*
X001998Y003325D01*
X002060Y003360D01*
X002124Y003391D01*
X002189Y003418D01*
X002256Y003442D01*
X002324Y003462D01*
X002393Y003478D01*
X002462Y003490D01*
X002533Y003499D01*
X002603Y003503D01*
X002674Y003504D01*
X002745Y003500D01*
X002815Y003493D01*
X002885Y003482D01*
X002954Y003467D01*
X003022Y003448D01*
X003090Y003426D01*
X003155Y003400D01*
X003220Y003370D01*
X003282Y003337D01*
X003342Y003300D01*
X003401Y003260D01*
X003457Y003217D01*
X003511Y003171D01*
X003561Y003121D01*
X003610Y003070D01*
X003655Y003015D01*
X003697Y002958D01*
X003736Y002899D01*
X003771Y002838D01*
X003804Y002775D01*
X003832Y002710D01*
X003857Y002644D01*
X003878Y002576D01*
X003896Y002508D01*
X003909Y002438D01*
X003919Y002368D01*
X003925Y002298D01*
X003927Y002227D01*
X003925Y002156D01*
X003919Y002086D01*
X003909Y002016D01*
X003896Y001946D01*
X003878Y001878D01*
X003857Y001810D01*
X003832Y001744D01*
X003804Y001679D01*
X003771Y001616D01*
X003736Y001555D01*
X003697Y001496D01*
X003655Y001439D01*
X003610Y001384D01*
X003561Y001333D01*
X003511Y001283D01*
X003457Y001237D01*
X003401Y001194D01*
X003342Y001154D01*
X003282Y001117D01*
X003220Y001084D01*
X003155Y001054D01*
X003090Y001028D01*
X003022Y001006D01*
X002954Y000987D01*
X002885Y000972D01*
X002815Y000961D01*
X002745Y000954D01*
X002674Y000950D01*
X002603Y000951D01*
X002533Y000955D01*
X002462Y000964D01*
X002393Y000976D01*
X002324Y000992D01*
X002256Y001012D01*
X002189Y001036D01*
X002124Y001063D01*
X002060Y001094D01*
X001998Y001129D01*
X001939Y001166D01*
X001881Y001208D01*
X001826Y001252D01*
X001773Y001299D01*
X001723Y001349D01*
X001676Y001402D01*
X001631Y001457D01*
X001639Y001462D01*
X001683Y001407D01*
X001731Y001354D01*
X001781Y001304D01*
X001834Y001256D01*
X001890Y001212D01*
X001948Y001171D01*
X002008Y001134D01*
X002070Y001099D01*
X002134Y001069D01*
X002200Y001042D01*
X002267Y001018D01*
X002335Y000999D01*
X002405Y000983D01*
X002475Y000971D01*
X002545Y000963D01*
X002616Y000959D01*
X002687Y000960D01*
X002758Y000964D01*
X002829Y000972D01*
X002899Y000984D01*
X002968Y001000D01*
X003036Y001019D01*
X003104Y001043D01*
X003169Y001070D01*
X003233Y001101D01*
X003295Y001135D01*
X003355Y001173D01*
X003413Y001215D01*
X003469Y001259D01*
X003522Y001306D01*
X003572Y001357D01*
X003619Y001410D01*
X003664Y001465D01*
X003705Y001523D01*
X003742Y001583D01*
X003777Y001646D01*
X003808Y001710D01*
X003835Y001775D01*
X003858Y001842D01*
X003878Y001911D01*
X003894Y001980D01*
X003906Y002050D01*
X003914Y002121D01*
X003918Y002191D01*
X003918Y002263D01*
X003914Y002333D01*
X003906Y002404D01*
X003894Y002474D01*
X003878Y002543D01*
X003858Y002612D01*
X003835Y002679D01*
X003808Y002744D01*
X003777Y002808D01*
X003742Y002871D01*
X003705Y002931D01*
X003664Y002989D01*
X003619Y003044D01*
X003572Y003097D01*
X003522Y003148D01*
X003469Y003195D01*
X003413Y003239D01*
X003355Y003281D01*
X003295Y003319D01*
X003233Y003353D01*
X003169Y003384D01*
X003104Y003411D01*
X003036Y003435D01*
X002968Y003454D01*
X002899Y003470D01*
X002829Y003482D01*
X002758Y003490D01*
X002687Y003494D01*
X002616Y003495D01*
X002545Y003491D01*
X002475Y003483D01*
X002405Y003471D01*
X002335Y003455D01*
X002267Y003436D01*
X002200Y003412D01*
X002134Y003385D01*
X002070Y003355D01*
X002008Y003320D01*
X001948Y003283D01*
X001890Y003242D01*
X001834Y003198D01*
X001781Y003150D01*
X001731Y003100D01*
X001683Y003047D01*
X001639Y002992D01*
X001646Y002986D01*
X001690Y003041D01*
X001737Y003094D01*
X001787Y003144D01*
X001840Y003191D01*
X001895Y003235D01*
X001953Y003275D01*
X002012Y003313D01*
X002074Y003347D01*
X002138Y003377D01*
X002203Y003404D01*
X002270Y003427D01*
X002338Y003447D01*
X002406Y003462D01*
X002476Y003474D01*
X002546Y003482D01*
X002617Y003486D01*
X002687Y003485D01*
X002758Y003481D01*
X002828Y003473D01*
X002897Y003461D01*
X002966Y003446D01*
X003034Y003426D01*
X003100Y003403D01*
X003165Y003376D01*
X003229Y003345D01*
X003291Y003311D01*
X003350Y003273D01*
X003408Y003232D01*
X003463Y003188D01*
X003516Y003141D01*
X003565Y003091D01*
X003612Y003039D01*
X003656Y002983D01*
X003697Y002926D01*
X003735Y002866D01*
X003769Y002804D01*
X003799Y002741D01*
X003826Y002676D01*
X003850Y002609D01*
X003869Y002541D01*
X003885Y002472D01*
X003897Y002403D01*
X003905Y002333D01*
X003909Y002262D01*
X003909Y002192D01*
X003905Y002121D01*
X003897Y002051D01*
X003885Y001982D01*
X003869Y001913D01*
X003850Y001845D01*
X003826Y001778D01*
X003799Y001713D01*
X003769Y001650D01*
X003735Y001588D01*
X003697Y001528D01*
X003656Y001471D01*
X003612Y001415D01*
X003565Y001363D01*
X003516Y001313D01*
X003463Y001266D01*
X003408Y001222D01*
X003350Y001181D01*
X003291Y001143D01*
X003229Y001109D01*
X003165Y001078D01*
X003100Y001051D01*
X003034Y001028D01*
X002966Y001008D01*
X002897Y000993D01*
X002828Y000981D01*
X002758Y000973D01*
X002687Y000969D01*
X002617Y000968D01*
X002546Y000972D01*
X002476Y000980D01*
X002406Y000992D01*
X002338Y001007D01*
X002270Y001027D01*
X002203Y001050D01*
X002138Y001077D01*
X002074Y001107D01*
X002012Y001141D01*
X001953Y001179D01*
X001895Y001219D01*
X001840Y001263D01*
X001787Y001310D01*
X001737Y001360D01*
X001690Y001413D01*
X001646Y001468D01*
X001653Y001473D01*
X001697Y001418D01*
X001744Y001366D01*
X001793Y001317D01*
X001846Y001270D01*
X001900Y001227D01*
X001958Y001186D01*
X002017Y001149D01*
X002078Y001115D01*
X002142Y001085D01*
X002206Y001058D01*
X002273Y001035D01*
X002340Y001016D01*
X002408Y001001D01*
X002477Y000989D01*
X002547Y000981D01*
X002617Y000977D01*
X002687Y000978D01*
X002757Y000982D01*
X002826Y000990D01*
X002895Y001001D01*
X002964Y001017D01*
X003031Y001036D01*
X003097Y001060D01*
X003162Y001087D01*
X003225Y001117D01*
X003286Y001151D01*
X003345Y001188D01*
X003403Y001229D01*
X003457Y001273D01*
X003509Y001319D01*
X003559Y001369D01*
X003606Y001421D01*
X003649Y001476D01*
X003690Y001533D01*
X003727Y001592D01*
X003761Y001654D01*
X003791Y001717D01*
X003818Y001782D01*
X003841Y001848D01*
X003860Y001915D01*
X003876Y001983D01*
X003888Y002052D01*
X003896Y002122D01*
X003900Y002192D01*
X003900Y002262D01*
X003896Y002332D01*
X003888Y002402D01*
X003876Y002471D01*
X003860Y002539D01*
X003841Y002606D01*
X003818Y002672D01*
X003791Y002737D01*
X003761Y002800D01*
X003727Y002862D01*
X003690Y002921D01*
X003649Y002978D01*
X003606Y003033D01*
X003559Y003085D01*
X003509Y003135D01*
X003457Y003181D01*
X003403Y003225D01*
X003345Y003266D01*
X003286Y003303D01*
X003225Y003337D01*
X003162Y003367D01*
X003097Y003394D01*
X003031Y003418D01*
X002964Y003437D01*
X002895Y003453D01*
X002826Y003464D01*
X002757Y003472D01*
X002687Y003476D01*
X002617Y003477D01*
X002547Y003473D01*
X002477Y003465D01*
X002408Y003453D01*
X002340Y003438D01*
X002273Y003419D01*
X002206Y003396D01*
X002142Y003369D01*
X002078Y003339D01*
X002017Y003305D01*
X001958Y003268D01*
X001900Y003227D01*
X001846Y003184D01*
X001793Y003137D01*
X001744Y003088D01*
X001697Y003036D01*
X001653Y002981D01*
X001660Y002976D01*
X001704Y003030D01*
X001750Y003082D01*
X001799Y003131D01*
X001851Y003177D01*
X001906Y003220D01*
X001963Y003260D01*
X002022Y003297D01*
X002083Y003331D01*
X002145Y003361D01*
X002210Y003387D01*
X002275Y003410D01*
X002342Y003429D01*
X002410Y003445D01*
X002479Y003456D01*
X002548Y003464D01*
X002617Y003468D01*
X002687Y003467D01*
X002756Y003463D01*
X002825Y003456D01*
X002894Y003444D01*
X002961Y003428D01*
X003028Y003409D01*
X003094Y003386D01*
X003158Y003359D01*
X003221Y003329D01*
X003282Y003295D01*
X003340Y003258D01*
X003397Y003218D01*
X003451Y003175D01*
X003503Y003128D01*
X003552Y003079D01*
X003599Y003027D01*
X003642Y002973D01*
X003682Y002916D01*
X003719Y002857D01*
X003753Y002796D01*
X003783Y002733D01*
X003810Y002669D01*
X003833Y002604D01*
X003852Y002537D01*
X003867Y002469D01*
X003879Y002400D01*
X003887Y002331D01*
X003891Y002262D01*
X003891Y002192D01*
X003887Y002123D01*
X003879Y002054D01*
X003867Y001985D01*
X003852Y001917D01*
X003833Y001850D01*
X003810Y001785D01*
X003783Y001721D01*
X003753Y001658D01*
X003719Y001597D01*
X003682Y001538D01*
X003642Y001481D01*
X003599Y001427D01*
X003552Y001375D01*
X003503Y001326D01*
X003451Y001279D01*
X003397Y001236D01*
X003340Y001196D01*
X003282Y001159D01*
X003221Y001125D01*
X003158Y001095D01*
X003094Y001068D01*
X003028Y001045D01*
X002961Y001026D01*
X002894Y001010D01*
X002825Y000998D01*
X002756Y000991D01*
X002687Y000987D01*
X002617Y000986D01*
X002548Y000990D01*
X002479Y000998D01*
X002410Y001009D01*
X002342Y001025D01*
X002275Y001044D01*
X002210Y001067D01*
X002145Y001093D01*
X002083Y001123D01*
X002022Y001157D01*
X001963Y001194D01*
X001906Y001234D01*
X001851Y001277D01*
X001799Y001323D01*
X001750Y001372D01*
X001704Y001424D01*
X001660Y001478D01*
X001667Y001484D01*
X001711Y001430D01*
X001757Y001379D01*
X001806Y001330D01*
X001857Y001284D01*
X001911Y001241D01*
X001968Y001201D01*
X002026Y001165D01*
X002087Y001131D01*
X002149Y001101D01*
X002213Y001075D01*
X002278Y001053D01*
X002344Y001034D01*
X002412Y001018D01*
X002480Y001007D01*
X002548Y000999D01*
X002617Y000995D01*
X002686Y000996D01*
X002755Y001000D01*
X002824Y001007D01*
X002892Y001019D01*
X002959Y001034D01*
X003026Y001054D01*
X003091Y001077D01*
X003154Y001103D01*
X003217Y001133D01*
X003277Y001166D01*
X003335Y001203D01*
X003392Y001243D01*
X003446Y001286D01*
X003497Y001332D01*
X003546Y001381D01*
X003592Y001433D01*
X003635Y001487D01*
X003675Y001543D01*
X003711Y001602D01*
X003745Y001662D01*
X003775Y001724D01*
X003801Y001788D01*
X003824Y001853D01*
X003843Y001920D01*
X003858Y001987D01*
X003870Y002055D01*
X003878Y002124D01*
X003882Y002192D01*
X003882Y002262D01*
X003878Y002330D01*
X003870Y002399D01*
X003858Y002467D01*
X003843Y002534D01*
X003824Y002601D01*
X003801Y002666D01*
X003775Y002730D01*
X003745Y002792D01*
X003711Y002852D01*
X003675Y002911D01*
X003635Y002967D01*
X003592Y003021D01*
X003546Y003073D01*
X003497Y003122D01*
X003446Y003168D01*
X003392Y003211D01*
X003335Y003251D01*
X003277Y003288D01*
X003217Y003321D01*
X003154Y003351D01*
X003091Y003377D01*
X003026Y003400D01*
X002959Y003420D01*
X002892Y003435D01*
X002824Y003447D01*
X002755Y003454D01*
X002686Y003458D01*
X002617Y003459D01*
X002548Y003455D01*
X002480Y003447D01*
X002412Y003436D01*
X002344Y003420D01*
X002278Y003401D01*
X002213Y003379D01*
X002149Y003353D01*
X002087Y003323D01*
X002026Y003289D01*
X001968Y003253D01*
X001911Y003213D01*
X001857Y003170D01*
X001806Y003124D01*
X001757Y003075D01*
X001711Y003024D01*
X001667Y002970D01*
X001675Y002965D01*
X001718Y003019D01*
X001764Y003070D01*
X001814Y003119D01*
X001865Y003165D01*
X001920Y003208D01*
X001977Y003248D01*
X002035Y003284D01*
X002096Y003318D01*
X002159Y003347D01*
X002223Y003373D01*
X002289Y003395D01*
X002356Y003414D01*
X002423Y003429D01*
X002492Y003440D01*
X002561Y003447D01*
X002630Y003450D01*
X002699Y003449D01*
X002769Y003444D01*
X002837Y003436D01*
X002905Y003423D01*
X002973Y003407D01*
X003039Y003386D01*
X003104Y003363D01*
X003168Y003335D01*
X003230Y003304D01*
X003290Y003269D01*
X003348Y003231D01*
X003404Y003190D01*
X003457Y003146D01*
X003508Y003099D01*
X003556Y003049D01*
X003601Y002996D01*
X003643Y002941D01*
X003682Y002884D01*
X003717Y002824D01*
X003749Y002763D01*
X003778Y002700D01*
X003803Y002635D01*
X003824Y002569D01*
X003842Y002502D01*
X003855Y002434D01*
X003865Y002365D01*
X003871Y002296D01*
X003873Y002227D01*
X003871Y002158D01*
X003865Y002089D01*
X003855Y002020D01*
X003842Y001952D01*
X003824Y001885D01*
X003803Y001819D01*
X003778Y001754D01*
X003749Y001691D01*
X003717Y001630D01*
X003682Y001570D01*
X003643Y001513D01*
X003601Y001458D01*
X003556Y001405D01*
X003508Y001355D01*
X003457Y001308D01*
X003404Y001264D01*
X003348Y001223D01*
X003290Y001185D01*
X003230Y001150D01*
X003168Y001119D01*
X003104Y001091D01*
X003039Y001068D01*
X002973Y001047D01*
X002905Y001031D01*
X002837Y001018D01*
X002769Y001010D01*
X002699Y001005D01*
X002630Y001004D01*
X002561Y001007D01*
X002492Y001014D01*
X002423Y001025D01*
X002356Y001040D01*
X002289Y001059D01*
X002223Y001081D01*
X002159Y001107D01*
X002096Y001136D01*
X002035Y001170D01*
X001977Y001206D01*
X001920Y001246D01*
X001865Y001289D01*
X001814Y001335D01*
X001764Y001384D01*
X001718Y001435D01*
X001675Y001489D01*
X001682Y001495D01*
X001725Y001441D01*
X001771Y001390D01*
X001820Y001341D01*
X001871Y001296D01*
X001925Y001253D01*
X001982Y001214D01*
X002040Y001177D01*
X002100Y001144D01*
X002163Y001115D01*
X002226Y001089D01*
X002292Y001067D01*
X002358Y001049D01*
X002425Y001034D01*
X002493Y001023D01*
X002562Y001016D01*
X002630Y001013D01*
X002699Y001014D01*
X002768Y001019D01*
X002836Y001027D01*
X002904Y001040D01*
X002970Y001056D01*
X003036Y001076D01*
X003101Y001100D01*
X003164Y001127D01*
X003225Y001158D01*
X003285Y001192D01*
X003343Y001230D01*
X003398Y001271D01*
X003451Y001315D01*
X003501Y001362D01*
X003549Y001411D01*
X003594Y001463D01*
X003636Y001518D01*
X003674Y001575D01*
X003709Y001634D01*
X003741Y001695D01*
X003770Y001758D01*
X003794Y001822D01*
X003816Y001888D01*
X003833Y001954D01*
X003846Y002022D01*
X003856Y002090D01*
X003862Y002158D01*
X003864Y002227D01*
X003862Y002296D01*
X003856Y002364D01*
X003846Y002432D01*
X003833Y002500D01*
X003816Y002566D01*
X003794Y002632D01*
X003770Y002696D01*
X003741Y002759D01*
X003709Y002820D01*
X003674Y002879D01*
X003636Y002936D01*
X003594Y002991D01*
X003549Y003043D01*
X003501Y003092D01*
X003451Y003139D01*
X003398Y003183D01*
X003343Y003224D01*
X003285Y003262D01*
X003225Y003296D01*
X003164Y003327D01*
X003101Y003354D01*
X003036Y003378D01*
X002970Y003398D01*
X002904Y003414D01*
X002836Y003427D01*
X002768Y003435D01*
X002699Y003440D01*
X002630Y003441D01*
X002562Y003438D01*
X002493Y003431D01*
X002425Y003420D01*
X002358Y003405D01*
X002292Y003387D01*
X002226Y003365D01*
X002163Y003339D01*
X002100Y003310D01*
X002040Y003277D01*
X001982Y003240D01*
X001925Y003201D01*
X001871Y003158D01*
X001820Y003113D01*
X001771Y003064D01*
X001725Y003013D01*
X001682Y002959D01*
X001618Y011447D02*
X001690Y011501D01*
X001689Y011500D02*
X001732Y011447D01*
X001777Y011396D01*
X001826Y011348D01*
X001877Y011303D01*
X001931Y011260D01*
X001987Y011221D01*
X002045Y011185D01*
X002105Y011152D01*
X002166Y011123D01*
X002230Y011098D01*
X002294Y011076D01*
X002360Y011057D01*
X002427Y011043D01*
X002494Y011032D01*
X002562Y011025D01*
X002630Y011022D01*
X002699Y011023D01*
X002767Y011028D01*
X002835Y011036D01*
X002902Y011049D01*
X002968Y011065D01*
X003033Y011085D01*
X003098Y011108D01*
X003160Y011135D01*
X003221Y011166D01*
X003280Y011200D01*
X003338Y011237D01*
X003393Y011278D01*
X003445Y011322D01*
X003495Y011368D01*
X003542Y011417D01*
X003587Y011469D01*
X003628Y011523D01*
X003667Y011580D01*
X003702Y011639D01*
X003733Y011699D01*
X003761Y011761D01*
X003786Y011825D01*
X003807Y011890D01*
X003824Y011956D01*
X003838Y012023D01*
X003847Y012091D01*
X003853Y012159D01*
X003855Y012227D01*
X003853Y012295D01*
X003847Y012363D01*
X003838Y012431D01*
X003824Y012498D01*
X003807Y012564D01*
X003786Y012629D01*
X003761Y012693D01*
X003733Y012755D01*
X003702Y012815D01*
X003667Y012874D01*
X003628Y012931D01*
X003587Y012985D01*
X003542Y013037D01*
X003495Y013086D01*
X003445Y013132D01*
X003393Y013176D01*
X003338Y013217D01*
X003280Y013254D01*
X003221Y013288D01*
X003160Y013319D01*
X003098Y013346D01*
X003033Y013369D01*
X002968Y013389D01*
X002902Y013405D01*
X002835Y013418D01*
X002767Y013426D01*
X002699Y013431D01*
X002630Y013432D01*
X002562Y013429D01*
X002494Y013422D01*
X002427Y013411D01*
X002360Y013397D01*
X002294Y013378D01*
X002230Y013356D01*
X002166Y013331D01*
X002105Y013302D01*
X002045Y013269D01*
X001987Y013233D01*
X001931Y013194D01*
X001877Y013151D01*
X001826Y013106D01*
X001777Y013058D01*
X001732Y013007D01*
X001689Y012954D01*
X001618Y013007D01*
X001617Y013008D01*
X001661Y013063D01*
X001709Y013116D01*
X001759Y013167D01*
X001812Y013214D01*
X001867Y013258D01*
X001925Y013300D01*
X001985Y013338D01*
X002046Y013373D01*
X002110Y013404D01*
X002175Y013432D01*
X002242Y013456D01*
X002310Y013477D01*
X002379Y013493D01*
X002449Y013506D01*
X002519Y013515D01*
X002590Y013521D01*
X002661Y013522D01*
X002732Y013519D01*
X002803Y013513D01*
X002873Y013503D01*
X002942Y013489D01*
X003011Y013471D01*
X003079Y013449D01*
X003145Y013424D01*
X003210Y013395D01*
X003273Y013362D01*
X003334Y013326D01*
X003393Y013287D01*
X003450Y013245D01*
X003505Y013200D01*
X003557Y013151D01*
X003606Y013100D01*
X003653Y013047D01*
X003696Y012990D01*
X003736Y012932D01*
X003773Y012871D01*
X003807Y012809D01*
X003837Y012745D01*
X003864Y012679D01*
X003887Y012612D01*
X003906Y012543D01*
X003921Y012474D01*
X003933Y012404D01*
X003941Y012333D01*
X003945Y012262D01*
X003945Y012192D01*
X003941Y012121D01*
X003933Y012050D01*
X003921Y011980D01*
X003906Y011911D01*
X003887Y011842D01*
X003864Y011775D01*
X003837Y011709D01*
X003807Y011645D01*
X003773Y011583D01*
X003736Y011522D01*
X003696Y011464D01*
X003653Y011407D01*
X003606Y011354D01*
X003557Y011303D01*
X003505Y011254D01*
X003450Y011209D01*
X003393Y011167D01*
X003334Y011128D01*
X003273Y011092D01*
X003210Y011059D01*
X003145Y011030D01*
X003079Y011005D01*
X003011Y010983D01*
X002942Y010965D01*
X002873Y010951D01*
X002803Y010941D01*
X002732Y010935D01*
X002661Y010932D01*
X002590Y010933D01*
X002519Y010939D01*
X002449Y010948D01*
X002379Y010961D01*
X002310Y010977D01*
X002242Y010998D01*
X002175Y011022D01*
X002110Y011050D01*
X002046Y011081D01*
X001985Y011116D01*
X001925Y011154D01*
X001867Y011196D01*
X001812Y011240D01*
X001759Y011287D01*
X001709Y011338D01*
X001661Y011391D01*
X001617Y011446D01*
X001624Y011451D01*
X001669Y011396D01*
X001716Y011343D01*
X001767Y011292D01*
X001820Y011245D01*
X001876Y011200D01*
X001934Y011159D01*
X001994Y011121D01*
X002056Y011086D01*
X002120Y011055D01*
X002186Y011028D01*
X002253Y011004D01*
X002322Y010984D01*
X002391Y010967D01*
X002461Y010955D01*
X002532Y010946D01*
X002603Y010942D01*
X002674Y010941D01*
X002745Y010945D01*
X002816Y010952D01*
X002887Y010963D01*
X002956Y010978D01*
X003025Y010997D01*
X003093Y011020D01*
X003159Y011046D01*
X003224Y011076D01*
X003286Y011110D01*
X003347Y011146D01*
X003406Y011187D01*
X003463Y011230D01*
X003517Y011277D01*
X003568Y011326D01*
X003616Y011379D01*
X003662Y011433D01*
X003704Y011491D01*
X003743Y011550D01*
X003779Y011612D01*
X003812Y011675D01*
X003840Y011740D01*
X003866Y011807D01*
X003887Y011875D01*
X003905Y011944D01*
X003918Y012014D01*
X003928Y012085D01*
X003934Y012156D01*
X003936Y012227D01*
X003934Y012298D01*
X003928Y012369D01*
X003918Y012440D01*
X003905Y012510D01*
X003887Y012579D01*
X003866Y012647D01*
X003840Y012714D01*
X003812Y012779D01*
X003779Y012842D01*
X003743Y012904D01*
X003704Y012963D01*
X003662Y013021D01*
X003616Y013075D01*
X003568Y013128D01*
X003517Y013177D01*
X003463Y013224D01*
X003406Y013267D01*
X003347Y013308D01*
X003286Y013344D01*
X003224Y013378D01*
X003159Y013408D01*
X003093Y013434D01*
X003025Y013457D01*
X002956Y013476D01*
X002887Y013491D01*
X002816Y013502D01*
X002745Y013509D01*
X002674Y013513D01*
X002603Y013512D01*
X002532Y013508D01*
X002461Y013499D01*
X002391Y013487D01*
X002322Y013470D01*
X002253Y013450D01*
X002186Y013426D01*
X002120Y013399D01*
X002056Y013368D01*
X001994Y013333D01*
X001934Y013295D01*
X001876Y013254D01*
X001820Y013209D01*
X001767Y013162D01*
X001716Y013111D01*
X001669Y013058D01*
X001624Y013003D01*
X001631Y012997D01*
X001676Y013052D01*
X001723Y013105D01*
X001773Y013155D01*
X001826Y013202D01*
X001881Y013246D01*
X001939Y013288D01*
X001998Y013325D01*
X002060Y013360D01*
X002124Y013391D01*
X002189Y013418D01*
X002256Y013442D01*
X002324Y013462D01*
X002393Y013478D01*
X002462Y013490D01*
X002533Y013499D01*
X002603Y013503D01*
X002674Y013504D01*
X002745Y013500D01*
X002815Y013493D01*
X002885Y013482D01*
X002954Y013467D01*
X003022Y013448D01*
X003090Y013426D01*
X003155Y013400D01*
X003220Y013370D01*
X003282Y013337D01*
X003342Y013300D01*
X003401Y013260D01*
X003457Y013217D01*
X003511Y013171D01*
X003561Y013121D01*
X003610Y013070D01*
X003655Y013015D01*
X003697Y012958D01*
X003736Y012899D01*
X003771Y012838D01*
X003804Y012775D01*
X003832Y012710D01*
X003857Y012644D01*
X003878Y012576D01*
X003896Y012508D01*
X003909Y012438D01*
X003919Y012368D01*
X003925Y012298D01*
X003927Y012227D01*
X003925Y012156D01*
X003919Y012086D01*
X003909Y012016D01*
X003896Y011946D01*
X003878Y011878D01*
X003857Y011810D01*
X003832Y011744D01*
X003804Y011679D01*
X003771Y011616D01*
X003736Y011555D01*
X003697Y011496D01*
X003655Y011439D01*
X003610Y011384D01*
X003561Y011333D01*
X003511Y011283D01*
X003457Y011237D01*
X003401Y011194D01*
X003342Y011154D01*
X003282Y011117D01*
X003220Y011084D01*
X003155Y011054D01*
X003090Y011028D01*
X003022Y011006D01*
X002954Y010987D01*
X002885Y010972D01*
X002815Y010961D01*
X002745Y010954D01*
X002674Y010950D01*
X002603Y010951D01*
X002533Y010955D01*
X002462Y010964D01*
X002393Y010976D01*
X002324Y010992D01*
X002256Y011012D01*
X002189Y011036D01*
X002124Y011063D01*
X002060Y011094D01*
X001998Y011129D01*
X001939Y011166D01*
X001881Y011208D01*
X001826Y011252D01*
X001773Y011299D01*
X001723Y011349D01*
X001676Y011402D01*
X001631Y011457D01*
X001639Y011462D01*
X001683Y011407D01*
X001731Y011354D01*
X001781Y011304D01*
X001834Y011256D01*
X001890Y011212D01*
X001948Y011171D01*
X002008Y011134D01*
X002070Y011099D01*
X002134Y011069D01*
X002200Y011042D01*
X002267Y011018D01*
X002335Y010999D01*
X002405Y010983D01*
X002475Y010971D01*
X002545Y010963D01*
X002616Y010959D01*
X002687Y010960D01*
X002758Y010964D01*
X002829Y010972D01*
X002899Y010984D01*
X002968Y011000D01*
X003036Y011019D01*
X003104Y011043D01*
X003169Y011070D01*
X003233Y011101D01*
X003295Y011135D01*
X003355Y011173D01*
X003413Y011215D01*
X003469Y011259D01*
X003522Y011306D01*
X003572Y011357D01*
X003619Y011410D01*
X003664Y011465D01*
X003705Y011523D01*
X003742Y011583D01*
X003777Y011646D01*
X003808Y011710D01*
X003835Y011775D01*
X003858Y011842D01*
X003878Y011911D01*
X003894Y011980D01*
X003906Y012050D01*
X003914Y012121D01*
X003918Y012191D01*
X003918Y012263D01*
X003914Y012333D01*
X003906Y012404D01*
X003894Y012474D01*
X003878Y012543D01*
X003858Y012612D01*
X003835Y012679D01*
X003808Y012744D01*
X003777Y012808D01*
X003742Y012871D01*
X003705Y012931D01*
X003664Y012989D01*
X003619Y013044D01*
X003572Y013097D01*
X003522Y013148D01*
X003469Y013195D01*
X003413Y013239D01*
X003355Y013281D01*
X003295Y013319D01*
X003233Y013353D01*
X003169Y013384D01*
X003104Y013411D01*
X003036Y013435D01*
X002968Y013454D01*
X002899Y013470D01*
X002829Y013482D01*
X002758Y013490D01*
X002687Y013494D01*
X002616Y013495D01*
X002545Y013491D01*
X002475Y013483D01*
X002405Y013471D01*
X002335Y013455D01*
X002267Y013436D01*
X002200Y013412D01*
X002134Y013385D01*
X002070Y013355D01*
X002008Y013320D01*
X001948Y013283D01*
X001890Y013242D01*
X001834Y013198D01*
X001781Y013150D01*
X001731Y013100D01*
X001683Y013047D01*
X001639Y012992D01*
X001646Y012986D01*
X001690Y013041D01*
X001737Y013094D01*
X001787Y013144D01*
X001840Y013191D01*
X001895Y013235D01*
X001953Y013275D01*
X002012Y013313D01*
X002074Y013347D01*
X002138Y013377D01*
X002203Y013404D01*
X002270Y013427D01*
X002338Y013447D01*
X002406Y013462D01*
X002476Y013474D01*
X002546Y013482D01*
X002617Y013486D01*
X002687Y013485D01*
X002758Y013481D01*
X002828Y013473D01*
X002897Y013461D01*
X002966Y013446D01*
X003034Y013426D01*
X003100Y013403D01*
X003165Y013376D01*
X003229Y013345D01*
X003291Y013311D01*
X003350Y013273D01*
X003408Y013232D01*
X003463Y013188D01*
X003516Y013141D01*
X003565Y013091D01*
X003612Y013039D01*
X003656Y012983D01*
X003697Y012926D01*
X003735Y012866D01*
X003769Y012804D01*
X003799Y012741D01*
X003826Y012676D01*
X003850Y012609D01*
X003869Y012541D01*
X003885Y012472D01*
X003897Y012403D01*
X003905Y012333D01*
X003909Y012262D01*
X003909Y012192D01*
X003905Y012121D01*
X003897Y012051D01*
X003885Y011982D01*
X003869Y011913D01*
X003850Y011845D01*
X003826Y011778D01*
X003799Y011713D01*
X003769Y011650D01*
X003735Y011588D01*
X003697Y011528D01*
X003656Y011471D01*
X003612Y011415D01*
X003565Y011363D01*
X003516Y011313D01*
X003463Y011266D01*
X003408Y011222D01*
X003350Y011181D01*
X003291Y011143D01*
X003229Y011109D01*
X003165Y011078D01*
X003100Y011051D01*
X003034Y011028D01*
X002966Y011008D01*
X002897Y010993D01*
X002828Y010981D01*
X002758Y010973D01*
X002687Y010969D01*
X002617Y010968D01*
X002546Y010972D01*
X002476Y010980D01*
X002406Y010992D01*
X002338Y011007D01*
X002270Y011027D01*
X002203Y011050D01*
X002138Y011077D01*
X002074Y011107D01*
X002012Y011141D01*
X001953Y011179D01*
X001895Y011219D01*
X001840Y011263D01*
X001787Y011310D01*
X001737Y011360D01*
X001690Y011413D01*
X001646Y011468D01*
X001653Y011473D01*
X001697Y011418D01*
X001744Y011366D01*
X001793Y011317D01*
X001846Y011270D01*
X001900Y011227D01*
X001958Y011186D01*
X002017Y011149D01*
X002078Y011115D01*
X002142Y011085D01*
X002206Y011058D01*
X002273Y011035D01*
X002340Y011016D01*
X002408Y011001D01*
X002477Y010989D01*
X002547Y010981D01*
X002617Y010977D01*
X002687Y010978D01*
X002757Y010982D01*
X002826Y010990D01*
X002895Y011001D01*
X002964Y011017D01*
X003031Y011036D01*
X003097Y011060D01*
X003162Y011087D01*
X003225Y011117D01*
X003286Y011151D01*
X003345Y011188D01*
X003403Y011229D01*
X003457Y011273D01*
X003509Y011319D01*
X003559Y011369D01*
X003606Y011421D01*
X003649Y011476D01*
X003690Y011533D01*
X003727Y011592D01*
X003761Y011654D01*
X003791Y011717D01*
X003818Y011782D01*
X003841Y011848D01*
X003860Y011915D01*
X003876Y011983D01*
X003888Y012052D01*
X003896Y012122D01*
X003900Y012192D01*
X003900Y012262D01*
X003896Y012332D01*
X003888Y012402D01*
X003876Y012471D01*
X003860Y012539D01*
X003841Y012606D01*
X003818Y012672D01*
X003791Y012737D01*
X003761Y012800D01*
X003727Y012862D01*
X003690Y012921D01*
X003649Y012978D01*
X003606Y013033D01*
X003559Y013085D01*
X003509Y013135D01*
X003457Y013181D01*
X003403Y013225D01*
X003345Y013266D01*
X003286Y013303D01*
X003225Y013337D01*
X003162Y013367D01*
X003097Y013394D01*
X003031Y013418D01*
X002964Y013437D01*
X002895Y013453D01*
X002826Y013464D01*
X002757Y013472D01*
X002687Y013476D01*
X002617Y013477D01*
X002547Y013473D01*
X002477Y013465D01*
X002408Y013453D01*
X002340Y013438D01*
X002273Y013419D01*
X002206Y013396D01*
X002142Y013369D01*
X002078Y013339D01*
X002017Y013305D01*
X001958Y013268D01*
X001900Y013227D01*
X001846Y013184D01*
X001793Y013137D01*
X001744Y013088D01*
X001697Y013036D01*
X001653Y012981D01*
X001660Y012976D01*
X001704Y013030D01*
X001750Y013082D01*
X001799Y013131D01*
X001851Y013177D01*
X001906Y013220D01*
X001963Y013260D01*
X002022Y013297D01*
X002083Y013331D01*
X002145Y013361D01*
X002210Y013387D01*
X002275Y013410D01*
X002342Y013429D01*
X002410Y013445D01*
X002479Y013456D01*
X002548Y013464D01*
X002617Y013468D01*
X002687Y013467D01*
X002756Y013463D01*
X002825Y013456D01*
X002894Y013444D01*
X002961Y013428D01*
X003028Y013409D01*
X003094Y013386D01*
X003158Y013359D01*
X003221Y013329D01*
X003282Y013295D01*
X003340Y013258D01*
X003397Y013218D01*
X003451Y013175D01*
X003503Y013128D01*
X003552Y013079D01*
X003599Y013027D01*
X003642Y012973D01*
X003682Y012916D01*
X003719Y012857D01*
X003753Y012796D01*
X003783Y012733D01*
X003810Y012669D01*
X003833Y012604D01*
X003852Y012537D01*
X003867Y012469D01*
X003879Y012400D01*
X003887Y012331D01*
X003891Y012262D01*
X003891Y012192D01*
X003887Y012123D01*
X003879Y012054D01*
X003867Y011985D01*
X003852Y011917D01*
X003833Y011850D01*
X003810Y011785D01*
X003783Y011721D01*
X003753Y011658D01*
X003719Y011597D01*
X003682Y011538D01*
X003642Y011481D01*
X003599Y011427D01*
X003552Y011375D01*
X003503Y011326D01*
X003451Y011279D01*
X003397Y011236D01*
X003340Y011196D01*
X003282Y011159D01*
X003221Y011125D01*
X003158Y011095D01*
X003094Y011068D01*
X003028Y011045D01*
X002961Y011026D01*
X002894Y011010D01*
X002825Y010998D01*
X002756Y010991D01*
X002687Y010987D01*
X002617Y010986D01*
X002548Y010990D01*
X002479Y010998D01*
X002410Y011009D01*
X002342Y011025D01*
X002275Y011044D01*
X002210Y011067D01*
X002145Y011093D01*
X002083Y011123D01*
X002022Y011157D01*
X001963Y011194D01*
X001906Y011234D01*
X001851Y011277D01*
X001799Y011323D01*
X001750Y011372D01*
X001704Y011424D01*
X001660Y011478D01*
X001667Y011484D01*
X001711Y011430D01*
X001757Y011379D01*
X001806Y011330D01*
X001857Y011284D01*
X001911Y011241D01*
X001968Y011201D01*
X002026Y011165D01*
X002087Y011131D01*
X002149Y011101D01*
X002213Y011075D01*
X002278Y011053D01*
X002344Y011034D01*
X002412Y011018D01*
X002480Y011007D01*
X002548Y010999D01*
X002617Y010995D01*
X002686Y010996D01*
X002755Y011000D01*
X002824Y011007D01*
X002892Y011019D01*
X002959Y011034D01*
X003026Y011054D01*
X003091Y011077D01*
X003154Y011103D01*
X003217Y011133D01*
X003277Y011166D01*
X003335Y011203D01*
X003392Y011243D01*
X003446Y011286D01*
X003497Y011332D01*
X003546Y011381D01*
X003592Y011433D01*
X003635Y011487D01*
X003675Y011543D01*
X003711Y011602D01*
X003745Y011662D01*
X003775Y011724D01*
X003801Y011788D01*
X003824Y011853D01*
X003843Y011920D01*
X003858Y011987D01*
X003870Y012055D01*
X003878Y012124D01*
X003882Y012192D01*
X003882Y012262D01*
X003878Y012330D01*
X003870Y012399D01*
X003858Y012467D01*
X003843Y012534D01*
X003824Y012601D01*
X003801Y012666D01*
X003775Y012730D01*
X003745Y012792D01*
X003711Y012852D01*
X003675Y012911D01*
X003635Y012967D01*
X003592Y013021D01*
X003546Y013073D01*
X003497Y013122D01*
X003446Y013168D01*
X003392Y013211D01*
X003335Y013251D01*
X003277Y013288D01*
X003217Y013321D01*
X003154Y013351D01*
X003091Y013377D01*
X003026Y013400D01*
X002959Y013420D01*
X002892Y013435D01*
X002824Y013447D01*
X002755Y013454D01*
X002686Y013458D01*
X002617Y013459D01*
X002548Y013455D01*
X002480Y013447D01*
X002412Y013436D01*
X002344Y013420D01*
X002278Y013401D01*
X002213Y013379D01*
X002149Y013353D01*
X002087Y013323D01*
X002026Y013289D01*
X001968Y013253D01*
X001911Y013213D01*
X001857Y013170D01*
X001806Y013124D01*
X001757Y013075D01*
X001711Y013024D01*
X001667Y012970D01*
X001675Y012965D01*
X001718Y013019D01*
X001764Y013070D01*
X001814Y013119D01*
X001865Y013165D01*
X001920Y013208D01*
X001977Y013248D01*
X002035Y013284D01*
X002096Y013318D01*
X002159Y013347D01*
X002223Y013373D01*
X002289Y013395D01*
X002356Y013414D01*
X002423Y013429D01*
X002492Y013440D01*
X002561Y013447D01*
X002630Y013450D01*
X002699Y013449D01*
X002769Y013444D01*
X002837Y013436D01*
X002905Y013423D01*
X002973Y013407D01*
X003039Y013386D01*
X003104Y013363D01*
X003168Y013335D01*
X003230Y013304D01*
X003290Y013269D01*
X003348Y013231D01*
X003404Y013190D01*
X003457Y013146D01*
X003508Y013099D01*
X003556Y013049D01*
X003601Y012996D01*
X003643Y012941D01*
X003682Y012884D01*
X003717Y012824D01*
X003749Y012763D01*
X003778Y012700D01*
X003803Y012635D01*
X003824Y012569D01*
X003842Y012502D01*
X003855Y012434D01*
X003865Y012365D01*
X003871Y012296D01*
X003873Y012227D01*
X003871Y012158D01*
X003865Y012089D01*
X003855Y012020D01*
X003842Y011952D01*
X003824Y011885D01*
X003803Y011819D01*
X003778Y011754D01*
X003749Y011691D01*
X003717Y011630D01*
X003682Y011570D01*
X003643Y011513D01*
X003601Y011458D01*
X003556Y011405D01*
X003508Y011355D01*
X003457Y011308D01*
X003404Y011264D01*
X003348Y011223D01*
X003290Y011185D01*
X003230Y011150D01*
X003168Y011119D01*
X003104Y011091D01*
X003039Y011068D01*
X002973Y011047D01*
X002905Y011031D01*
X002837Y011018D01*
X002769Y011010D01*
X002699Y011005D01*
X002630Y011004D01*
X002561Y011007D01*
X002492Y011014D01*
X002423Y011025D01*
X002356Y011040D01*
X002289Y011059D01*
X002223Y011081D01*
X002159Y011107D01*
X002096Y011136D01*
X002035Y011170D01*
X001977Y011206D01*
X001920Y011246D01*
X001865Y011289D01*
X001814Y011335D01*
X001764Y011384D01*
X001718Y011435D01*
X001675Y011489D01*
X001682Y011495D01*
X001725Y011441D01*
X001771Y011390D01*
X001820Y011341D01*
X001871Y011296D01*
X001925Y011253D01*
X001982Y011214D01*
X002040Y011177D01*
X002100Y011144D01*
X002163Y011115D01*
X002226Y011089D01*
X002292Y011067D01*
X002358Y011049D01*
X002425Y011034D01*
X002493Y011023D01*
X002562Y011016D01*
X002630Y011013D01*
X002699Y011014D01*
X002768Y011019D01*
X002836Y011027D01*
X002904Y011040D01*
X002970Y011056D01*
X003036Y011076D01*
X003101Y011100D01*
X003164Y011127D01*
X003225Y011158D01*
X003285Y011192D01*
X003343Y011230D01*
X003398Y011271D01*
X003451Y011315D01*
X003501Y011362D01*
X003549Y011411D01*
X003594Y011463D01*
X003636Y011518D01*
X003674Y011575D01*
X003709Y011634D01*
X003741Y011695D01*
X003770Y011758D01*
X003794Y011822D01*
X003816Y011888D01*
X003833Y011954D01*
X003846Y012022D01*
X003856Y012090D01*
X003862Y012158D01*
X003864Y012227D01*
X003862Y012296D01*
X003856Y012364D01*
X003846Y012432D01*
X003833Y012500D01*
X003816Y012566D01*
X003794Y012632D01*
X003770Y012696D01*
X003741Y012759D01*
X003709Y012820D01*
X003674Y012879D01*
X003636Y012936D01*
X003594Y012991D01*
X003549Y013043D01*
X003501Y013092D01*
X003451Y013139D01*
X003398Y013183D01*
X003343Y013224D01*
X003285Y013262D01*
X003225Y013296D01*
X003164Y013327D01*
X003101Y013354D01*
X003036Y013378D01*
X002970Y013398D01*
X002904Y013414D01*
X002836Y013427D01*
X002768Y013435D01*
X002699Y013440D01*
X002630Y013441D01*
X002562Y013438D01*
X002493Y013431D01*
X002425Y013420D01*
X002358Y013405D01*
X002292Y013387D01*
X002226Y013365D01*
X002163Y013339D01*
X002100Y013310D01*
X002040Y013277D01*
X001982Y013240D01*
X001925Y013201D01*
X001871Y013158D01*
X001820Y013113D01*
X001771Y013064D01*
X001725Y013013D01*
X001682Y012959D01*
X001618Y021447D02*
X001690Y021501D01*
X001689Y021500D02*
X001732Y021447D01*
X001777Y021396D01*
X001826Y021348D01*
X001877Y021303D01*
X001931Y021260D01*
X001987Y021221D01*
X002045Y021185D01*
X002105Y021152D01*
X002166Y021123D01*
X002230Y021098D01*
X002294Y021076D01*
X002360Y021057D01*
X002427Y021043D01*
X002494Y021032D01*
X002562Y021025D01*
X002630Y021022D01*
X002699Y021023D01*
X002767Y021028D01*
X002835Y021036D01*
X002902Y021049D01*
X002968Y021065D01*
X003033Y021085D01*
X003098Y021108D01*
X003160Y021135D01*
X003221Y021166D01*
X003280Y021200D01*
X003338Y021237D01*
X003393Y021278D01*
X003445Y021322D01*
X003495Y021368D01*
X003542Y021417D01*
X003587Y021469D01*
X003628Y021523D01*
X003667Y021580D01*
X003702Y021639D01*
X003733Y021699D01*
X003761Y021761D01*
X003786Y021825D01*
X003807Y021890D01*
X003824Y021956D01*
X003838Y022023D01*
X003847Y022091D01*
X003853Y022159D01*
X003855Y022227D01*
X003853Y022295D01*
X003847Y022363D01*
X003838Y022431D01*
X003824Y022498D01*
X003807Y022564D01*
X003786Y022629D01*
X003761Y022693D01*
X003733Y022755D01*
X003702Y022815D01*
X003667Y022874D01*
X003628Y022931D01*
X003587Y022985D01*
X003542Y023037D01*
X003495Y023086D01*
X003445Y023132D01*
X003393Y023176D01*
X003338Y023217D01*
X003280Y023254D01*
X003221Y023288D01*
X003160Y023319D01*
X003098Y023346D01*
X003033Y023369D01*
X002968Y023389D01*
X002902Y023405D01*
X002835Y023418D01*
X002767Y023426D01*
X002699Y023431D01*
X002630Y023432D01*
X002562Y023429D01*
X002494Y023422D01*
X002427Y023411D01*
X002360Y023397D01*
X002294Y023378D01*
X002230Y023356D01*
X002166Y023331D01*
X002105Y023302D01*
X002045Y023269D01*
X001987Y023233D01*
X001931Y023194D01*
X001877Y023151D01*
X001826Y023106D01*
X001777Y023058D01*
X001732Y023007D01*
X001689Y022954D01*
X001618Y023007D01*
X001617Y023008D01*
X001661Y023063D01*
X001709Y023116D01*
X001759Y023167D01*
X001812Y023214D01*
X001867Y023258D01*
X001925Y023300D01*
X001985Y023338D01*
X002046Y023373D01*
X002110Y023404D01*
X002175Y023432D01*
X002242Y023456D01*
X002310Y023477D01*
X002379Y023493D01*
X002449Y023506D01*
X002519Y023515D01*
X002590Y023521D01*
X002661Y023522D01*
X002732Y023519D01*
X002803Y023513D01*
X002873Y023503D01*
X002942Y023489D01*
X003011Y023471D01*
X003079Y023449D01*
X003145Y023424D01*
X003210Y023395D01*
X003273Y023362D01*
X003334Y023326D01*
X003393Y023287D01*
X003450Y023245D01*
X003505Y023200D01*
X003557Y023151D01*
X003606Y023100D01*
X003653Y023047D01*
X003696Y022990D01*
X003736Y022932D01*
X003773Y022871D01*
X003807Y022809D01*
X003837Y022745D01*
X003864Y022679D01*
X003887Y022612D01*
X003906Y022543D01*
X003921Y022474D01*
X003933Y022404D01*
X003941Y022333D01*
X003945Y022262D01*
X003945Y022192D01*
X003941Y022121D01*
X003933Y022050D01*
X003921Y021980D01*
X003906Y021911D01*
X003887Y021842D01*
X003864Y021775D01*
X003837Y021709D01*
X003807Y021645D01*
X003773Y021583D01*
X003736Y021522D01*
X003696Y021464D01*
X003653Y021407D01*
X003606Y021354D01*
X003557Y021303D01*
X003505Y021254D01*
X003450Y021209D01*
X003393Y021167D01*
X003334Y021128D01*
X003273Y021092D01*
X003210Y021059D01*
X003145Y021030D01*
X003079Y021005D01*
X003011Y020983D01*
X002942Y020965D01*
X002873Y020951D01*
X002803Y020941D01*
X002732Y020935D01*
X002661Y020932D01*
X002590Y020933D01*
X002519Y020939D01*
X002449Y020948D01*
X002379Y020961D01*
X002310Y020977D01*
X002242Y020998D01*
X002175Y021022D01*
X002110Y021050D01*
X002046Y021081D01*
X001985Y021116D01*
X001925Y021154D01*
X001867Y021196D01*
X001812Y021240D01*
X001759Y021287D01*
X001709Y021338D01*
X001661Y021391D01*
X001617Y021446D01*
X001624Y021451D01*
X001669Y021396D01*
X001716Y021343D01*
X001767Y021292D01*
X001820Y021245D01*
X001876Y021200D01*
X001934Y021159D01*
X001994Y021121D01*
X002056Y021086D01*
X002120Y021055D01*
X002186Y021028D01*
X002253Y021004D01*
X002322Y020984D01*
X002391Y020967D01*
X002461Y020955D01*
X002532Y020946D01*
X002603Y020942D01*
X002674Y020941D01*
X002745Y020945D01*
X002816Y020952D01*
X002887Y020963D01*
X002956Y020978D01*
X003025Y020997D01*
X003093Y021020D01*
X003159Y021046D01*
X003224Y021076D01*
X003286Y021110D01*
X003347Y021146D01*
X003406Y021187D01*
X003463Y021230D01*
X003517Y021277D01*
X003568Y021326D01*
X003616Y021379D01*
X003662Y021433D01*
X003704Y021491D01*
X003743Y021550D01*
X003779Y021612D01*
X003812Y021675D01*
X003840Y021740D01*
X003866Y021807D01*
X003887Y021875D01*
X003905Y021944D01*
X003918Y022014D01*
X003928Y022085D01*
X003934Y022156D01*
X003936Y022227D01*
X003934Y022298D01*
X003928Y022369D01*
X003918Y022440D01*
X003905Y022510D01*
X003887Y022579D01*
X003866Y022647D01*
X003840Y022714D01*
X003812Y022779D01*
X003779Y022842D01*
X003743Y022904D01*
X003704Y022963D01*
X003662Y023021D01*
X003616Y023075D01*
X003568Y023128D01*
X003517Y023177D01*
X003463Y023224D01*
X003406Y023267D01*
X003347Y023308D01*
X003286Y023344D01*
X003224Y023378D01*
X003159Y023408D01*
X003093Y023434D01*
X003025Y023457D01*
X002956Y023476D01*
X002887Y023491D01*
X002816Y023502D01*
X002745Y023509D01*
X002674Y023513D01*
X002603Y023512D01*
X002532Y023508D01*
X002461Y023499D01*
X002391Y023487D01*
X002322Y023470D01*
X002253Y023450D01*
X002186Y023426D01*
X002120Y023399D01*
X002056Y023368D01*
X001994Y023333D01*
X001934Y023295D01*
X001876Y023254D01*
X001820Y023209D01*
X001767Y023162D01*
X001716Y023111D01*
X001669Y023058D01*
X001624Y023003D01*
X001631Y022997D01*
X001676Y023052D01*
X001723Y023105D01*
X001773Y023155D01*
X001826Y023202D01*
X001881Y023246D01*
X001939Y023288D01*
X001998Y023325D01*
X002060Y023360D01*
X002124Y023391D01*
X002189Y023418D01*
X002256Y023442D01*
X002324Y023462D01*
X002393Y023478D01*
X002462Y023490D01*
X002533Y023499D01*
X002603Y023503D01*
X002674Y023504D01*
X002745Y023500D01*
X002815Y023493D01*
X002885Y023482D01*
X002954Y023467D01*
X003022Y023448D01*
X003090Y023426D01*
X003155Y023400D01*
X003220Y023370D01*
X003282Y023337D01*
X003342Y023300D01*
X003401Y023260D01*
X003457Y023217D01*
X003511Y023171D01*
X003561Y023121D01*
X003610Y023070D01*
X003655Y023015D01*
X003697Y022958D01*
X003736Y022899D01*
X003771Y022838D01*
X003804Y022775D01*
X003832Y022710D01*
X003857Y022644D01*
X003878Y022576D01*
X003896Y022508D01*
X003909Y022438D01*
X003919Y022368D01*
X003925Y022298D01*
X003927Y022227D01*
X003925Y022156D01*
X003919Y022086D01*
X003909Y022016D01*
X003896Y021946D01*
X003878Y021878D01*
X003857Y021810D01*
X003832Y021744D01*
X003804Y021679D01*
X003771Y021616D01*
X003736Y021555D01*
X003697Y021496D01*
X003655Y021439D01*
X003610Y021384D01*
X003561Y021333D01*
X003511Y021283D01*
X003457Y021237D01*
X003401Y021194D01*
X003342Y021154D01*
X003282Y021117D01*
X003220Y021084D01*
X003155Y021054D01*
X003090Y021028D01*
X003022Y021006D01*
X002954Y020987D01*
X002885Y020972D01*
X002815Y020961D01*
X002745Y020954D01*
X002674Y020950D01*
X002603Y020951D01*
X002533Y020955D01*
X002462Y020964D01*
X002393Y020976D01*
X002324Y020992D01*
X002256Y021012D01*
X002189Y021036D01*
X002124Y021063D01*
X002060Y021094D01*
X001998Y021129D01*
X001939Y021166D01*
X001881Y021208D01*
X001826Y021252D01*
X001773Y021299D01*
X001723Y021349D01*
X001676Y021402D01*
X001631Y021457D01*
X001639Y021462D01*
X001683Y021407D01*
X001731Y021354D01*
X001781Y021304D01*
X001834Y021256D01*
X001890Y021212D01*
X001948Y021171D01*
X002008Y021134D01*
X002070Y021099D01*
X002134Y021069D01*
X002200Y021042D01*
X002267Y021018D01*
X002335Y020999D01*
X002405Y020983D01*
X002475Y020971D01*
X002545Y020963D01*
X002616Y020959D01*
X002687Y020960D01*
X002758Y020964D01*
X002829Y020972D01*
X002899Y020984D01*
X002968Y021000D01*
X003036Y021019D01*
X003104Y021043D01*
X003169Y021070D01*
X003233Y021101D01*
X003295Y021135D01*
X003355Y021173D01*
X003413Y021215D01*
X003469Y021259D01*
X003522Y021306D01*
X003572Y021357D01*
X003619Y021410D01*
X003664Y021465D01*
X003705Y021523D01*
X003742Y021583D01*
X003777Y021646D01*
X003808Y021710D01*
X003835Y021775D01*
X003858Y021842D01*
X003878Y021911D01*
X003894Y021980D01*
X003906Y022050D01*
X003914Y022121D01*
X003918Y022191D01*
X003918Y022263D01*
X003914Y022333D01*
X003906Y022404D01*
X003894Y022474D01*
X003878Y022543D01*
X003858Y022612D01*
X003835Y022679D01*
X003808Y022744D01*
X003777Y022808D01*
X003742Y022871D01*
X003705Y022931D01*
X003664Y022989D01*
X003619Y023044D01*
X003572Y023097D01*
X003522Y023148D01*
X003469Y023195D01*
X003413Y023239D01*
X003355Y023281D01*
X003295Y023319D01*
X003233Y023353D01*
X003169Y023384D01*
X003104Y023411D01*
X003036Y023435D01*
X002968Y023454D01*
X002899Y023470D01*
X002829Y023482D01*
X002758Y023490D01*
X002687Y023494D01*
X002616Y023495D01*
X002545Y023491D01*
X002475Y023483D01*
X002405Y023471D01*
X002335Y023455D01*
X002267Y023436D01*
X002200Y023412D01*
X002134Y023385D01*
X002070Y023355D01*
X002008Y023320D01*
X001948Y023283D01*
X001890Y023242D01*
X001834Y023198D01*
X001781Y023150D01*
X001731Y023100D01*
X001683Y023047D01*
X001639Y022992D01*
X001646Y022986D01*
X001690Y023041D01*
X001737Y023094D01*
X001787Y023144D01*
X001840Y023191D01*
X001895Y023235D01*
X001953Y023275D01*
X002012Y023313D01*
X002074Y023347D01*
X002138Y023377D01*
X002203Y023404D01*
X002270Y023427D01*
X002338Y023447D01*
X002406Y023462D01*
X002476Y023474D01*
X002546Y023482D01*
X002617Y023486D01*
X002687Y023485D01*
X002758Y023481D01*
X002828Y023473D01*
X002897Y023461D01*
X002966Y023446D01*
X003034Y023426D01*
X003100Y023403D01*
X003165Y023376D01*
X003229Y023345D01*
X003291Y023311D01*
X003350Y023273D01*
X003408Y023232D01*
X003463Y023188D01*
X003516Y023141D01*
X003565Y023091D01*
X003612Y023039D01*
X003656Y022983D01*
X003697Y022926D01*
X003735Y022866D01*
X003769Y022804D01*
X003799Y022741D01*
X003826Y022676D01*
X003850Y022609D01*
X003869Y022541D01*
X003885Y022472D01*
X003897Y022403D01*
X003905Y022333D01*
X003909Y022262D01*
X003909Y022192D01*
X003905Y022121D01*
X003897Y022051D01*
X003885Y021982D01*
X003869Y021913D01*
X003850Y021845D01*
X003826Y021778D01*
X003799Y021713D01*
X003769Y021650D01*
X003735Y021588D01*
X003697Y021528D01*
X003656Y021471D01*
X003612Y021415D01*
X003565Y021363D01*
X003516Y021313D01*
X003463Y021266D01*
X003408Y021222D01*
X003350Y021181D01*
X003291Y021143D01*
X003229Y021109D01*
X003165Y021078D01*
X003100Y021051D01*
X003034Y021028D01*
X002966Y021008D01*
X002897Y020993D01*
X002828Y020981D01*
X002758Y020973D01*
X002687Y020969D01*
X002617Y020968D01*
X002546Y020972D01*
X002476Y020980D01*
X002406Y020992D01*
X002338Y021007D01*
X002270Y021027D01*
X002203Y021050D01*
X002138Y021077D01*
X002074Y021107D01*
X002012Y021141D01*
X001953Y021179D01*
X001895Y021219D01*
X001840Y021263D01*
X001787Y021310D01*
X001737Y021360D01*
X001690Y021413D01*
X001646Y021468D01*
X001653Y021473D01*
X001697Y021418D01*
X001744Y021366D01*
X001793Y021317D01*
X001846Y021270D01*
X001900Y021227D01*
X001958Y021186D01*
X002017Y021149D01*
X002078Y021115D01*
X002142Y021085D01*
X002206Y021058D01*
X002273Y021035D01*
X002340Y021016D01*
X002408Y021001D01*
X002477Y020989D01*
X002547Y020981D01*
X002617Y020977D01*
X002687Y020978D01*
X002757Y020982D01*
X002826Y020990D01*
X002895Y021001D01*
X002964Y021017D01*
X003031Y021036D01*
X003097Y021060D01*
X003162Y021087D01*
X003225Y021117D01*
X003286Y021151D01*
X003345Y021188D01*
X003403Y021229D01*
X003457Y021273D01*
X003509Y021319D01*
X003559Y021369D01*
X003606Y021421D01*
X003649Y021476D01*
X003690Y021533D01*
X003727Y021592D01*
X003761Y021654D01*
X003791Y021717D01*
X003818Y021782D01*
X003841Y021848D01*
X003860Y021915D01*
X003876Y021983D01*
X003888Y022052D01*
X003896Y022122D01*
X003900Y022192D01*
X003900Y022262D01*
X003896Y022332D01*
X003888Y022402D01*
X003876Y022471D01*
X003860Y022539D01*
X003841Y022606D01*
X003818Y022672D01*
X003791Y022737D01*
X003761Y022800D01*
X003727Y022862D01*
X003690Y022921D01*
X003649Y022978D01*
X003606Y023033D01*
X003559Y023085D01*
X003509Y023135D01*
X003457Y023181D01*
X003403Y023225D01*
X003345Y023266D01*
X003286Y023303D01*
X003225Y023337D01*
X003162Y023367D01*
X003097Y023394D01*
X003031Y023418D01*
X002964Y023437D01*
X002895Y023453D01*
X002826Y023464D01*
X002757Y023472D01*
X002687Y023476D01*
X002617Y023477D01*
X002547Y023473D01*
X002477Y023465D01*
X002408Y023453D01*
X002340Y023438D01*
X002273Y023419D01*
X002206Y023396D01*
X002142Y023369D01*
X002078Y023339D01*
X002017Y023305D01*
X001958Y023268D01*
X001900Y023227D01*
X001846Y023184D01*
X001793Y023137D01*
X001744Y023088D01*
X001697Y023036D01*
X001653Y022981D01*
X001660Y022976D01*
X001704Y023030D01*
X001750Y023082D01*
X001799Y023131D01*
X001851Y023177D01*
X001906Y023220D01*
X001963Y023260D01*
X002022Y023297D01*
X002083Y023331D01*
X002145Y023361D01*
X002210Y023387D01*
X002275Y023410D01*
X002342Y023429D01*
X002410Y023445D01*
X002479Y023456D01*
X002548Y023464D01*
X002617Y023468D01*
X002687Y023467D01*
X002756Y023463D01*
X002825Y023456D01*
X002894Y023444D01*
X002961Y023428D01*
X003028Y023409D01*
X003094Y023386D01*
X003158Y023359D01*
X003221Y023329D01*
X003282Y023295D01*
X003340Y023258D01*
X003397Y023218D01*
X003451Y023175D01*
X003503Y023128D01*
X003552Y023079D01*
X003599Y023027D01*
X003642Y022973D01*
X003682Y022916D01*
X003719Y022857D01*
X003753Y022796D01*
X003783Y022733D01*
X003810Y022669D01*
X003833Y022604D01*
X003852Y022537D01*
X003867Y022469D01*
X003879Y022400D01*
X003887Y022331D01*
X003891Y022262D01*
X003891Y022192D01*
X003887Y022123D01*
X003879Y022054D01*
X003867Y021985D01*
X003852Y021917D01*
X003833Y021850D01*
X003810Y021785D01*
X003783Y021721D01*
X003753Y021658D01*
X003719Y021597D01*
X003682Y021538D01*
X003642Y021481D01*
X003599Y021427D01*
X003552Y021375D01*
X003503Y021326D01*
X003451Y021279D01*
X003397Y021236D01*
X003340Y021196D01*
X003282Y021159D01*
X003221Y021125D01*
X003158Y021095D01*
X003094Y021068D01*
X003028Y021045D01*
X002961Y021026D01*
X002894Y021010D01*
X002825Y020998D01*
X002756Y020991D01*
X002687Y020987D01*
X002617Y020986D01*
X002548Y020990D01*
X002479Y020998D01*
X002410Y021009D01*
X002342Y021025D01*
X002275Y021044D01*
X002210Y021067D01*
X002145Y021093D01*
X002083Y021123D01*
X002022Y021157D01*
X001963Y021194D01*
X001906Y021234D01*
X001851Y021277D01*
X001799Y021323D01*
X001750Y021372D01*
X001704Y021424D01*
X001660Y021478D01*
X001667Y021484D01*
X001711Y021430D01*
X001757Y021379D01*
X001806Y021330D01*
X001857Y021284D01*
X001911Y021241D01*
X001968Y021201D01*
X002026Y021165D01*
X002087Y021131D01*
X002149Y021101D01*
X002213Y021075D01*
X002278Y021053D01*
X002344Y021034D01*
X002412Y021018D01*
X002480Y021007D01*
X002548Y020999D01*
X002617Y020995D01*
X002686Y020996D01*
X002755Y021000D01*
X002824Y021007D01*
X002892Y021019D01*
X002959Y021034D01*
X003026Y021054D01*
X003091Y021077D01*
X003154Y021103D01*
X003217Y021133D01*
X003277Y021166D01*
X003335Y021203D01*
X003392Y021243D01*
X003446Y021286D01*
X003497Y021332D01*
X003546Y021381D01*
X003592Y021433D01*
X003635Y021487D01*
X003675Y021543D01*
X003711Y021602D01*
X003745Y021662D01*
X003775Y021724D01*
X003801Y021788D01*
X003824Y021853D01*
X003843Y021920D01*
X003858Y021987D01*
X003870Y022055D01*
X003878Y022124D01*
X003882Y022192D01*
X003882Y022262D01*
X003878Y022330D01*
X003870Y022399D01*
X003858Y022467D01*
X003843Y022534D01*
X003824Y022601D01*
X003801Y022666D01*
X003775Y022730D01*
X003745Y022792D01*
X003711Y022852D01*
X003675Y022911D01*
X003635Y022967D01*
X003592Y023021D01*
X003546Y023073D01*
X003497Y023122D01*
X003446Y023168D01*
X003392Y023211D01*
X003335Y023251D01*
X003277Y023288D01*
X003217Y023321D01*
X003154Y023351D01*
X003091Y023377D01*
X003026Y023400D01*
X002959Y023420D01*
X002892Y023435D01*
X002824Y023447D01*
X002755Y023454D01*
X002686Y023458D01*
X002617Y023459D01*
X002548Y023455D01*
X002480Y023447D01*
X002412Y023436D01*
X002344Y023420D01*
X002278Y023401D01*
X002213Y023379D01*
X002149Y023353D01*
X002087Y023323D01*
X002026Y023289D01*
X001968Y023253D01*
X001911Y023213D01*
X001857Y023170D01*
X001806Y023124D01*
X001757Y023075D01*
X001711Y023024D01*
X001667Y022970D01*
X001675Y022965D01*
X001718Y023019D01*
X001764Y023070D01*
X001814Y023119D01*
X001865Y023165D01*
X001920Y023208D01*
X001977Y023248D01*
X002035Y023284D01*
X002096Y023318D01*
X002159Y023347D01*
X002223Y023373D01*
X002289Y023395D01*
X002356Y023414D01*
X002423Y023429D01*
X002492Y023440D01*
X002561Y023447D01*
X002630Y023450D01*
X002699Y023449D01*
X002769Y023444D01*
X002837Y023436D01*
X002905Y023423D01*
X002973Y023407D01*
X003039Y023386D01*
X003104Y023363D01*
X003168Y023335D01*
X003230Y023304D01*
X003290Y023269D01*
X003348Y023231D01*
X003404Y023190D01*
X003457Y023146D01*
X003508Y023099D01*
X003556Y023049D01*
X003601Y022996D01*
X003643Y022941D01*
X003682Y022884D01*
X003717Y022824D01*
X003749Y022763D01*
X003778Y022700D01*
X003803Y022635D01*
X003824Y022569D01*
X003842Y022502D01*
X003855Y022434D01*
X003865Y022365D01*
X003871Y022296D01*
X003873Y022227D01*
X003871Y022158D01*
X003865Y022089D01*
X003855Y022020D01*
X003842Y021952D01*
X003824Y021885D01*
X003803Y021819D01*
X003778Y021754D01*
X003749Y021691D01*
X003717Y021630D01*
X003682Y021570D01*
X003643Y021513D01*
X003601Y021458D01*
X003556Y021405D01*
X003508Y021355D01*
X003457Y021308D01*
X003404Y021264D01*
X003348Y021223D01*
X003290Y021185D01*
X003230Y021150D01*
X003168Y021119D01*
X003104Y021091D01*
X003039Y021068D01*
X002973Y021047D01*
X002905Y021031D01*
X002837Y021018D01*
X002769Y021010D01*
X002699Y021005D01*
X002630Y021004D01*
X002561Y021007D01*
X002492Y021014D01*
X002423Y021025D01*
X002356Y021040D01*
X002289Y021059D01*
X002223Y021081D01*
X002159Y021107D01*
X002096Y021136D01*
X002035Y021170D01*
X001977Y021206D01*
X001920Y021246D01*
X001865Y021289D01*
X001814Y021335D01*
X001764Y021384D01*
X001718Y021435D01*
X001675Y021489D01*
X001682Y021495D01*
X001725Y021441D01*
X001771Y021390D01*
X001820Y021341D01*
X001871Y021296D01*
X001925Y021253D01*
X001982Y021214D01*
X002040Y021177D01*
X002100Y021144D01*
X002163Y021115D01*
X002226Y021089D01*
X002292Y021067D01*
X002358Y021049D01*
X002425Y021034D01*
X002493Y021023D01*
X002562Y021016D01*
X002630Y021013D01*
X002699Y021014D01*
X002768Y021019D01*
X002836Y021027D01*
X002904Y021040D01*
X002970Y021056D01*
X003036Y021076D01*
X003101Y021100D01*
X003164Y021127D01*
X003225Y021158D01*
X003285Y021192D01*
X003343Y021230D01*
X003398Y021271D01*
X003451Y021315D01*
X003501Y021362D01*
X003549Y021411D01*
X003594Y021463D01*
X003636Y021518D01*
X003674Y021575D01*
X003709Y021634D01*
X003741Y021695D01*
X003770Y021758D01*
X003794Y021822D01*
X003816Y021888D01*
X003833Y021954D01*
X003846Y022022D01*
X003856Y022090D01*
X003862Y022158D01*
X003864Y022227D01*
X003862Y022296D01*
X003856Y022364D01*
X003846Y022432D01*
X003833Y022500D01*
X003816Y022566D01*
X003794Y022632D01*
X003770Y022696D01*
X003741Y022759D01*
X003709Y022820D01*
X003674Y022879D01*
X003636Y022936D01*
X003594Y022991D01*
X003549Y023043D01*
X003501Y023092D01*
X003451Y023139D01*
X003398Y023183D01*
X003343Y023224D01*
X003285Y023262D01*
X003225Y023296D01*
X003164Y023327D01*
X003101Y023354D01*
X003036Y023378D01*
X002970Y023398D01*
X002904Y023414D01*
X002836Y023427D01*
X002768Y023435D01*
X002699Y023440D01*
X002630Y023441D01*
X002562Y023438D01*
X002493Y023431D01*
X002425Y023420D01*
X002358Y023405D01*
X002292Y023387D01*
X002226Y023365D01*
X002163Y023339D01*
X002100Y023310D01*
X002040Y023277D01*
X001982Y023240D01*
X001925Y023201D01*
X001871Y023158D01*
X001820Y023113D01*
X001771Y023064D01*
X001725Y023013D01*
X001682Y022959D01*
X007655Y023290D02*
X007655Y023365D01*
X007680Y023390D01*
X007730Y023390D01*
X007755Y023365D01*
X007755Y023290D01*
X007755Y023340D02*
X007805Y023390D01*
X007805Y023437D02*
X007805Y023537D01*
X007805Y023584D02*
X007705Y023684D01*
X007680Y023684D01*
X007655Y023659D01*
X007655Y023609D01*
X007680Y023584D01*
X007655Y023487D02*
X007805Y023487D01*
X007805Y023584D02*
X007805Y023684D01*
X007655Y023487D02*
X007705Y023437D01*
X007655Y023290D02*
X007805Y023290D01*
X007780Y013684D02*
X007805Y013659D01*
X007805Y013609D01*
X007780Y013584D01*
X007755Y013584D01*
X007730Y013609D01*
X007730Y013659D01*
X007755Y013684D01*
X007780Y013684D01*
X007730Y013659D02*
X007705Y013684D01*
X007680Y013684D01*
X007655Y013659D01*
X007655Y013609D01*
X007680Y013584D01*
X007705Y013584D01*
X007730Y013609D01*
X007730Y013537D02*
X007755Y013512D01*
X007755Y013437D01*
X007805Y013437D02*
X007655Y013437D01*
X007655Y013512D01*
X007680Y013537D01*
X007730Y013537D01*
X007755Y013487D02*
X007805Y013537D01*
X011155Y007883D02*
X011155Y007973D01*
X011155Y007972D02*
X011209Y007974D01*
X011262Y007980D01*
X011315Y007990D01*
X011367Y008004D01*
X011418Y008021D01*
X011467Y008042D01*
X011515Y008066D01*
X011561Y008094D01*
X011605Y008125D01*
X011647Y008159D01*
X011686Y008195D01*
X011723Y008235D01*
X011756Y008277D01*
X011787Y008321D01*
X011814Y008367D01*
X011893Y008325D01*
X011865Y008276D01*
X011833Y008230D01*
X011798Y008185D01*
X011761Y008143D01*
X011720Y008103D01*
X011677Y008067D01*
X011632Y008033D01*
X011585Y008002D01*
X011535Y007975D01*
X011484Y007951D01*
X011432Y007930D01*
X011378Y007913D01*
X011323Y007900D01*
X011268Y007890D01*
X011211Y007884D01*
X011155Y007882D01*
X011155Y007891D01*
X011211Y007893D01*
X011266Y007899D01*
X011321Y007909D01*
X011376Y007922D01*
X011429Y007939D01*
X011481Y007959D01*
X011531Y007983D01*
X011580Y008010D01*
X011627Y008040D01*
X011672Y008074D01*
X011714Y008110D01*
X011754Y008149D01*
X011791Y008191D01*
X011826Y008235D01*
X011857Y008281D01*
X011885Y008329D01*
X011877Y008333D01*
X011849Y008286D01*
X011818Y008240D01*
X011784Y008197D01*
X011748Y008155D01*
X011708Y008117D01*
X011666Y008081D01*
X011622Y008048D01*
X011576Y008018D01*
X011527Y007991D01*
X011477Y007968D01*
X011426Y007947D01*
X011373Y007931D01*
X011320Y007918D01*
X011265Y007908D01*
X011210Y007902D01*
X011155Y007900D01*
X011155Y007909D01*
X011210Y007911D01*
X011264Y007917D01*
X011318Y007926D01*
X011371Y007939D01*
X011423Y007956D01*
X011474Y007976D01*
X011523Y007999D01*
X011571Y008026D01*
X011617Y008055D01*
X011661Y008088D01*
X011702Y008123D01*
X011741Y008162D01*
X011778Y008202D01*
X011811Y008245D01*
X011842Y008291D01*
X011869Y008338D01*
X011861Y008342D01*
X011834Y008295D01*
X011804Y008251D01*
X011771Y008208D01*
X011735Y008168D01*
X011696Y008130D01*
X011655Y008095D01*
X011612Y008063D01*
X011566Y008033D01*
X011519Y008007D01*
X011470Y007984D01*
X011420Y007964D01*
X011368Y007948D01*
X011316Y007935D01*
X011263Y007926D01*
X011209Y007920D01*
X011155Y007918D01*
X011155Y007927D01*
X011208Y007929D01*
X011261Y007935D01*
X011314Y007944D01*
X011366Y007957D01*
X011417Y007973D01*
X011467Y007992D01*
X011515Y008015D01*
X011562Y008041D01*
X011606Y008070D01*
X011649Y008102D01*
X011690Y008137D01*
X011728Y008174D01*
X011764Y008214D01*
X011797Y008256D01*
X011827Y008300D01*
X011854Y008346D01*
X011846Y008350D01*
X011819Y008305D01*
X011789Y008261D01*
X011757Y008220D01*
X011722Y008180D01*
X011684Y008143D01*
X011644Y008109D01*
X011601Y008077D01*
X011557Y008049D01*
X011511Y008023D01*
X011463Y008001D01*
X011414Y007981D01*
X011364Y007965D01*
X011312Y007953D01*
X011260Y007944D01*
X011208Y007938D01*
X011155Y007936D01*
X011155Y007945D01*
X011211Y007947D01*
X011266Y007954D01*
X011321Y007964D01*
X011375Y007978D01*
X011427Y007996D01*
X011479Y008017D01*
X011528Y008043D01*
X011576Y008071D01*
X011622Y008103D01*
X011665Y008138D01*
X011705Y008176D01*
X011743Y008217D01*
X011778Y008261D01*
X011809Y008307D01*
X011838Y008355D01*
X011830Y008359D01*
X011802Y008311D01*
X011771Y008266D01*
X011736Y008223D01*
X011699Y008183D01*
X011659Y008145D01*
X011616Y008110D01*
X011571Y008079D01*
X011524Y008050D01*
X011475Y008026D01*
X011424Y008004D01*
X011372Y007987D01*
X011319Y007973D01*
X011265Y007963D01*
X011210Y007956D01*
X011155Y007954D01*
X011155Y007963D01*
X011209Y007965D01*
X011263Y007971D01*
X011317Y007981D01*
X011369Y007995D01*
X011421Y008013D01*
X011471Y008034D01*
X011520Y008058D01*
X011566Y008086D01*
X011611Y008118D01*
X011653Y008152D01*
X011692Y008189D01*
X011729Y008229D01*
X011763Y008271D01*
X011794Y008316D01*
X011822Y008363D01*
X011881Y009150D02*
X011803Y009105D01*
X011803Y009106D02*
X011775Y009150D01*
X011744Y009192D01*
X011711Y009232D01*
X011675Y009270D01*
X011636Y009305D01*
X011595Y009337D01*
X011551Y009367D01*
X011506Y009393D01*
X011459Y009416D01*
X011411Y009436D01*
X011361Y009452D01*
X011311Y009465D01*
X011259Y009474D01*
X011207Y009480D01*
X011155Y009482D01*
X011154Y009571D01*
X011155Y009572D01*
X011210Y009570D01*
X011264Y009564D01*
X011319Y009555D01*
X011372Y009542D01*
X011424Y009526D01*
X011476Y009507D01*
X011526Y009484D01*
X011574Y009458D01*
X011621Y009429D01*
X011665Y009397D01*
X011708Y009362D01*
X011748Y009324D01*
X011785Y009284D01*
X011820Y009242D01*
X011852Y009197D01*
X011881Y009151D01*
X011873Y009146D01*
X011845Y009192D01*
X011813Y009236D01*
X011778Y009278D01*
X011741Y009318D01*
X011702Y009355D01*
X011660Y009390D01*
X011616Y009421D01*
X011570Y009450D01*
X011522Y009476D01*
X011472Y009498D01*
X011422Y009518D01*
X011370Y009534D01*
X011317Y009546D01*
X011263Y009555D01*
X011209Y009561D01*
X011155Y009563D01*
X011155Y009554D01*
X011209Y009552D01*
X011262Y009546D01*
X011315Y009537D01*
X011367Y009525D01*
X011419Y009509D01*
X011469Y009490D01*
X011518Y009468D01*
X011565Y009442D01*
X011611Y009414D01*
X011654Y009382D01*
X011696Y009348D01*
X011735Y009312D01*
X011772Y009272D01*
X011806Y009231D01*
X011837Y009187D01*
X011866Y009142D01*
X011858Y009137D01*
X011828Y009185D01*
X011794Y009231D01*
X011758Y009274D01*
X011718Y009315D01*
X011676Y009353D01*
X011632Y009388D01*
X011585Y009420D01*
X011536Y009448D01*
X011485Y009473D01*
X011432Y009495D01*
X011379Y009512D01*
X011324Y009526D01*
X011268Y009536D01*
X011212Y009543D01*
X011155Y009545D01*
X011155Y009536D01*
X011211Y009534D01*
X011267Y009528D01*
X011322Y009518D01*
X011376Y009504D01*
X011429Y009486D01*
X011481Y009465D01*
X011532Y009440D01*
X011580Y009412D01*
X011626Y009381D01*
X011671Y009346D01*
X011712Y009309D01*
X011751Y009268D01*
X011787Y009226D01*
X011820Y009180D01*
X011850Y009133D01*
X011842Y009128D01*
X011813Y009175D01*
X011780Y009220D01*
X011744Y009262D01*
X011706Y009302D01*
X011665Y009339D01*
X011621Y009374D01*
X011575Y009405D01*
X011527Y009432D01*
X011478Y009457D01*
X011426Y009478D01*
X011374Y009495D01*
X011320Y009509D01*
X011265Y009519D01*
X011210Y009525D01*
X011155Y009527D01*
X011155Y009518D01*
X011210Y009516D01*
X011264Y009510D01*
X011318Y009500D01*
X011371Y009486D01*
X011423Y009469D01*
X011474Y009449D01*
X011523Y009424D01*
X011570Y009397D01*
X011616Y009366D01*
X011659Y009333D01*
X011700Y009296D01*
X011738Y009256D01*
X011773Y009214D01*
X011805Y009170D01*
X011834Y009124D01*
X011826Y009119D01*
X011798Y009165D01*
X011766Y009209D01*
X011731Y009250D01*
X011693Y009289D01*
X011653Y009326D01*
X011611Y009359D01*
X011566Y009389D01*
X011519Y009417D01*
X011470Y009440D01*
X011420Y009461D01*
X011369Y009478D01*
X011316Y009491D01*
X011263Y009501D01*
X011209Y009507D01*
X011155Y009509D01*
X011155Y009500D01*
X011208Y009498D01*
X011262Y009492D01*
X011314Y009482D01*
X011366Y009469D01*
X011417Y009452D01*
X011467Y009432D01*
X011515Y009409D01*
X011561Y009382D01*
X011605Y009352D01*
X011647Y009319D01*
X011687Y009283D01*
X011724Y009244D01*
X011759Y009203D01*
X011790Y009160D01*
X011819Y009115D01*
X011811Y009110D01*
X011783Y009155D01*
X011752Y009198D01*
X011718Y009238D01*
X011681Y009276D01*
X011642Y009312D01*
X011600Y009344D01*
X011556Y009374D01*
X011510Y009401D01*
X011463Y009424D01*
X011414Y009444D01*
X011364Y009461D01*
X011312Y009474D01*
X011260Y009483D01*
X011208Y009489D01*
X011155Y009491D01*
X011146Y009571D02*
X011146Y009481D01*
X011145Y009482D02*
X011091Y009480D01*
X011038Y009474D01*
X010985Y009464D01*
X010933Y009450D01*
X010882Y009433D01*
X010832Y009412D01*
X010784Y009388D01*
X010738Y009360D01*
X010694Y009329D01*
X010653Y009295D01*
X010613Y009258D01*
X010577Y009219D01*
X010509Y009276D01*
X010508Y009277D01*
X010546Y009318D01*
X010586Y009356D01*
X010629Y009392D01*
X010674Y009425D01*
X010721Y009455D01*
X010769Y009481D01*
X010820Y009505D01*
X010872Y009525D01*
X010925Y009541D01*
X010979Y009555D01*
X011034Y009564D01*
X011089Y009570D01*
X011145Y009572D01*
X011145Y009563D01*
X011090Y009561D01*
X011035Y009555D01*
X010981Y009546D01*
X010927Y009533D01*
X010875Y009516D01*
X010823Y009497D01*
X010773Y009473D01*
X010725Y009447D01*
X010679Y009417D01*
X010634Y009385D01*
X010592Y009350D01*
X010552Y009311D01*
X010515Y009271D01*
X010522Y009265D01*
X010559Y009305D01*
X010598Y009343D01*
X010640Y009378D01*
X010684Y009410D01*
X010730Y009439D01*
X010778Y009465D01*
X010827Y009488D01*
X010878Y009508D01*
X010930Y009524D01*
X010983Y009537D01*
X011036Y009546D01*
X011091Y009552D01*
X011145Y009554D01*
X011145Y009545D01*
X011091Y009543D01*
X011038Y009537D01*
X010985Y009528D01*
X010932Y009515D01*
X010881Y009499D01*
X010830Y009480D01*
X010782Y009457D01*
X010734Y009432D01*
X010689Y009403D01*
X010645Y009371D01*
X010604Y009336D01*
X010565Y009299D01*
X010529Y009259D01*
X010536Y009253D01*
X010572Y009293D01*
X010610Y009330D01*
X010651Y009364D01*
X010694Y009395D01*
X010739Y009424D01*
X010786Y009449D01*
X010834Y009472D01*
X010884Y009491D01*
X010935Y009507D01*
X010986Y009519D01*
X011039Y009528D01*
X011092Y009534D01*
X011145Y009536D01*
X011145Y009527D01*
X011092Y009525D01*
X011040Y009519D01*
X010988Y009510D01*
X010937Y009498D01*
X010887Y009482D01*
X010837Y009463D01*
X010790Y009441D01*
X010743Y009416D01*
X010699Y009388D01*
X010657Y009357D01*
X010616Y009323D01*
X010578Y009286D01*
X010543Y009248D01*
X010549Y009242D01*
X010585Y009280D01*
X010622Y009316D01*
X010662Y009350D01*
X010704Y009380D01*
X010748Y009408D01*
X010794Y009433D01*
X010841Y009455D01*
X010890Y009474D01*
X010939Y009489D01*
X010990Y009502D01*
X011041Y009510D01*
X011093Y009516D01*
X011145Y009518D01*
X011145Y009509D01*
X011089Y009507D01*
X011034Y009500D01*
X010979Y009490D01*
X010925Y009476D01*
X010872Y009458D01*
X010821Y009436D01*
X010771Y009411D01*
X010723Y009382D01*
X010678Y009350D01*
X010635Y009315D01*
X010594Y009277D01*
X010556Y009236D01*
X010563Y009230D01*
X010600Y009271D01*
X010641Y009308D01*
X010683Y009343D01*
X010728Y009375D01*
X010776Y009403D01*
X010825Y009428D01*
X010876Y009450D01*
X010928Y009467D01*
X010981Y009481D01*
X011035Y009491D01*
X011090Y009498D01*
X011145Y009500D01*
X011145Y009491D01*
X011091Y009489D01*
X011037Y009483D01*
X010983Y009473D01*
X010930Y009459D01*
X010879Y009441D01*
X010829Y009420D01*
X010780Y009395D01*
X010733Y009367D01*
X010689Y009336D01*
X010647Y009302D01*
X010607Y009264D01*
X010570Y009224D01*
X010505Y008183D02*
X010574Y008240D01*
X010573Y008240D02*
X010610Y008200D01*
X010649Y008162D01*
X010691Y008128D01*
X010735Y008096D01*
X010781Y008068D01*
X010830Y008043D01*
X010880Y008022D01*
X010931Y008004D01*
X010984Y007991D01*
X011037Y007981D01*
X011091Y007974D01*
X011145Y007972D01*
X011146Y007883D01*
X011145Y007882D01*
X011089Y007884D01*
X011033Y007890D01*
X010978Y007900D01*
X010923Y007913D01*
X010870Y007930D01*
X010817Y007950D01*
X010766Y007974D01*
X010717Y008001D01*
X010670Y008032D01*
X010625Y008065D01*
X010582Y008101D01*
X010542Y008140D01*
X010504Y008182D01*
X010511Y008188D01*
X010548Y008147D01*
X010588Y008108D01*
X010630Y008072D01*
X010675Y008039D01*
X010722Y008009D01*
X010770Y007982D01*
X010821Y007959D01*
X010873Y007938D01*
X010926Y007922D01*
X010980Y007909D01*
X011034Y007899D01*
X011089Y007893D01*
X011145Y007891D01*
X011145Y007900D01*
X011090Y007902D01*
X011035Y007908D01*
X010981Y007917D01*
X010928Y007930D01*
X010876Y007947D01*
X010824Y007967D01*
X010775Y007990D01*
X010726Y008017D01*
X010680Y008046D01*
X010636Y008079D01*
X010594Y008115D01*
X010555Y008153D01*
X010518Y008194D01*
X010525Y008199D01*
X010561Y008159D01*
X010600Y008121D01*
X010642Y008086D01*
X010685Y008054D01*
X010731Y008024D01*
X010779Y007998D01*
X010828Y007975D01*
X010878Y007955D01*
X010930Y007939D01*
X010983Y007926D01*
X011037Y007917D01*
X011091Y007911D01*
X011145Y007909D01*
X011145Y007918D01*
X011091Y007920D01*
X011038Y007926D01*
X010985Y007935D01*
X010933Y007948D01*
X010881Y007964D01*
X010831Y007983D01*
X010783Y008006D01*
X010736Y008032D01*
X010690Y008061D01*
X010647Y008093D01*
X010606Y008128D01*
X010568Y008165D01*
X010532Y008205D01*
X010539Y008211D01*
X010574Y008172D01*
X010612Y008135D01*
X010653Y008100D01*
X010696Y008069D01*
X010740Y008040D01*
X010787Y008014D01*
X010835Y007992D01*
X010884Y007972D01*
X010935Y007956D01*
X010987Y007944D01*
X011039Y007935D01*
X011092Y007929D01*
X011145Y007927D01*
X011145Y007936D01*
X011093Y007938D01*
X011040Y007944D01*
X010989Y007953D01*
X010938Y007965D01*
X010887Y007981D01*
X010838Y008000D01*
X010791Y008022D01*
X010745Y008048D01*
X010701Y008076D01*
X010659Y008107D01*
X010618Y008141D01*
X010581Y008178D01*
X010546Y008217D01*
X010552Y008223D01*
X010587Y008184D01*
X010625Y008148D01*
X010664Y008114D01*
X010706Y008083D01*
X010750Y008055D01*
X010795Y008030D01*
X010842Y008008D01*
X010890Y007989D01*
X010940Y007974D01*
X010990Y007961D01*
X011042Y007953D01*
X011093Y007947D01*
X011145Y007945D01*
X011145Y007954D01*
X011094Y007956D01*
X011043Y007961D01*
X010992Y007970D01*
X010942Y007982D01*
X010893Y007998D01*
X010846Y008016D01*
X010799Y008038D01*
X010754Y008063D01*
X010711Y008091D01*
X010670Y008121D01*
X010631Y008154D01*
X010594Y008190D01*
X010559Y008228D01*
X010566Y008234D01*
X010603Y008193D01*
X010643Y008155D01*
X010685Y008121D01*
X010730Y008089D01*
X010777Y008060D01*
X010826Y008035D01*
X010877Y008014D01*
X010928Y007996D01*
X010982Y007982D01*
X011036Y007972D01*
X011090Y007965D01*
X011145Y007963D01*
X012713Y005722D02*
X012788Y005722D01*
X012813Y005697D01*
X012813Y005647D01*
X012788Y005622D01*
X012713Y005622D01*
X012763Y005622D02*
X012813Y005572D01*
X012860Y005572D02*
X012960Y005572D01*
X012910Y005572D02*
X012910Y005722D01*
X012860Y005672D01*
X013008Y005697D02*
X013033Y005722D01*
X013083Y005722D01*
X013108Y005697D01*
X013108Y005672D01*
X013083Y005647D01*
X013108Y005622D01*
X013108Y005597D01*
X013083Y005572D01*
X013033Y005572D01*
X013008Y005597D01*
X013058Y005647D02*
X013083Y005647D01*
X012713Y005572D02*
X012713Y005722D01*
X014120Y010232D02*
X014145Y010257D01*
X014145Y010282D01*
X014120Y010307D01*
X013995Y010307D01*
X013995Y010282D02*
X013995Y010332D01*
X014045Y010379D02*
X013995Y010429D01*
X014145Y010429D01*
X014145Y010379D02*
X014145Y010479D01*
X007780Y003684D02*
X007805Y003659D01*
X007805Y003609D01*
X007780Y003584D01*
X007805Y003537D02*
X007755Y003487D01*
X007755Y003512D02*
X007755Y003437D01*
X007805Y003437D02*
X007655Y003437D01*
X007655Y003512D01*
X007680Y003537D01*
X007730Y003537D01*
X007755Y003512D01*
X007680Y003584D02*
X007655Y003609D01*
X007655Y003659D01*
X007680Y003684D01*
X007705Y003684D01*
X007730Y003659D01*
X007755Y003684D01*
X007780Y003684D01*
X007730Y003659D02*
X007730Y003634D01*
D13*
X001650Y002227D02*
X001652Y002290D01*
X001658Y002352D01*
X001668Y002414D01*
X001681Y002476D01*
X001699Y002536D01*
X001720Y002595D01*
X001745Y002653D01*
X001774Y002709D01*
X001806Y002763D01*
X001841Y002815D01*
X001879Y002864D01*
X001921Y002912D01*
X001965Y002956D01*
X002013Y002998D01*
X002062Y003036D01*
X002114Y003071D01*
X002168Y003103D01*
X002224Y003132D01*
X002282Y003157D01*
X002341Y003178D01*
X002401Y003196D01*
X002463Y003209D01*
X002525Y003219D01*
X002587Y003225D01*
X002650Y003227D01*
X002713Y003225D01*
X002775Y003219D01*
X002837Y003209D01*
X002899Y003196D01*
X002959Y003178D01*
X003018Y003157D01*
X003076Y003132D01*
X003132Y003103D01*
X003186Y003071D01*
X003238Y003036D01*
X003287Y002998D01*
X003335Y002956D01*
X003379Y002912D01*
X003421Y002864D01*
X003459Y002815D01*
X003494Y002763D01*
X003526Y002709D01*
X003555Y002653D01*
X003580Y002595D01*
X003601Y002536D01*
X003619Y002476D01*
X003632Y002414D01*
X003642Y002352D01*
X003648Y002290D01*
X003650Y002227D01*
X003648Y002164D01*
X003642Y002102D01*
X003632Y002040D01*
X003619Y001978D01*
X003601Y001918D01*
X003580Y001859D01*
X003555Y001801D01*
X003526Y001745D01*
X003494Y001691D01*
X003459Y001639D01*
X003421Y001590D01*
X003379Y001542D01*
X003335Y001498D01*
X003287Y001456D01*
X003238Y001418D01*
X003186Y001383D01*
X003132Y001351D01*
X003076Y001322D01*
X003018Y001297D01*
X002959Y001276D01*
X002899Y001258D01*
X002837Y001245D01*
X002775Y001235D01*
X002713Y001229D01*
X002650Y001227D01*
X002587Y001229D01*
X002525Y001235D01*
X002463Y001245D01*
X002401Y001258D01*
X002341Y001276D01*
X002282Y001297D01*
X002224Y001322D01*
X002168Y001351D01*
X002114Y001383D01*
X002062Y001418D01*
X002013Y001456D01*
X001965Y001498D01*
X001921Y001542D01*
X001879Y001590D01*
X001841Y001639D01*
X001806Y001691D01*
X001774Y001745D01*
X001745Y001801D01*
X001720Y001859D01*
X001699Y001918D01*
X001681Y001978D01*
X001668Y002040D01*
X001658Y002102D01*
X001652Y002164D01*
X001650Y002227D01*
X001650Y012227D02*
X001652Y012290D01*
X001658Y012352D01*
X001668Y012414D01*
X001681Y012476D01*
X001699Y012536D01*
X001720Y012595D01*
X001745Y012653D01*
X001774Y012709D01*
X001806Y012763D01*
X001841Y012815D01*
X001879Y012864D01*
X001921Y012912D01*
X001965Y012956D01*
X002013Y012998D01*
X002062Y013036D01*
X002114Y013071D01*
X002168Y013103D01*
X002224Y013132D01*
X002282Y013157D01*
X002341Y013178D01*
X002401Y013196D01*
X002463Y013209D01*
X002525Y013219D01*
X002587Y013225D01*
X002650Y013227D01*
X002713Y013225D01*
X002775Y013219D01*
X002837Y013209D01*
X002899Y013196D01*
X002959Y013178D01*
X003018Y013157D01*
X003076Y013132D01*
X003132Y013103D01*
X003186Y013071D01*
X003238Y013036D01*
X003287Y012998D01*
X003335Y012956D01*
X003379Y012912D01*
X003421Y012864D01*
X003459Y012815D01*
X003494Y012763D01*
X003526Y012709D01*
X003555Y012653D01*
X003580Y012595D01*
X003601Y012536D01*
X003619Y012476D01*
X003632Y012414D01*
X003642Y012352D01*
X003648Y012290D01*
X003650Y012227D01*
X003648Y012164D01*
X003642Y012102D01*
X003632Y012040D01*
X003619Y011978D01*
X003601Y011918D01*
X003580Y011859D01*
X003555Y011801D01*
X003526Y011745D01*
X003494Y011691D01*
X003459Y011639D01*
X003421Y011590D01*
X003379Y011542D01*
X003335Y011498D01*
X003287Y011456D01*
X003238Y011418D01*
X003186Y011383D01*
X003132Y011351D01*
X003076Y011322D01*
X003018Y011297D01*
X002959Y011276D01*
X002899Y011258D01*
X002837Y011245D01*
X002775Y011235D01*
X002713Y011229D01*
X002650Y011227D01*
X002587Y011229D01*
X002525Y011235D01*
X002463Y011245D01*
X002401Y011258D01*
X002341Y011276D01*
X002282Y011297D01*
X002224Y011322D01*
X002168Y011351D01*
X002114Y011383D01*
X002062Y011418D01*
X002013Y011456D01*
X001965Y011498D01*
X001921Y011542D01*
X001879Y011590D01*
X001841Y011639D01*
X001806Y011691D01*
X001774Y011745D01*
X001745Y011801D01*
X001720Y011859D01*
X001699Y011918D01*
X001681Y011978D01*
X001668Y012040D01*
X001658Y012102D01*
X001652Y012164D01*
X001650Y012227D01*
X001650Y022227D02*
X001652Y022290D01*
X001658Y022352D01*
X001668Y022414D01*
X001681Y022476D01*
X001699Y022536D01*
X001720Y022595D01*
X001745Y022653D01*
X001774Y022709D01*
X001806Y022763D01*
X001841Y022815D01*
X001879Y022864D01*
X001921Y022912D01*
X001965Y022956D01*
X002013Y022998D01*
X002062Y023036D01*
X002114Y023071D01*
X002168Y023103D01*
X002224Y023132D01*
X002282Y023157D01*
X002341Y023178D01*
X002401Y023196D01*
X002463Y023209D01*
X002525Y023219D01*
X002587Y023225D01*
X002650Y023227D01*
X002713Y023225D01*
X002775Y023219D01*
X002837Y023209D01*
X002899Y023196D01*
X002959Y023178D01*
X003018Y023157D01*
X003076Y023132D01*
X003132Y023103D01*
X003186Y023071D01*
X003238Y023036D01*
X003287Y022998D01*
X003335Y022956D01*
X003379Y022912D01*
X003421Y022864D01*
X003459Y022815D01*
X003494Y022763D01*
X003526Y022709D01*
X003555Y022653D01*
X003580Y022595D01*
X003601Y022536D01*
X003619Y022476D01*
X003632Y022414D01*
X003642Y022352D01*
X003648Y022290D01*
X003650Y022227D01*
X003648Y022164D01*
X003642Y022102D01*
X003632Y022040D01*
X003619Y021978D01*
X003601Y021918D01*
X003580Y021859D01*
X003555Y021801D01*
X003526Y021745D01*
X003494Y021691D01*
X003459Y021639D01*
X003421Y021590D01*
X003379Y021542D01*
X003335Y021498D01*
X003287Y021456D01*
X003238Y021418D01*
X003186Y021383D01*
X003132Y021351D01*
X003076Y021322D01*
X003018Y021297D01*
X002959Y021276D01*
X002899Y021258D01*
X002837Y021245D01*
X002775Y021235D01*
X002713Y021229D01*
X002650Y021227D01*
X002587Y021229D01*
X002525Y021235D01*
X002463Y021245D01*
X002401Y021258D01*
X002341Y021276D01*
X002282Y021297D01*
X002224Y021322D01*
X002168Y021351D01*
X002114Y021383D01*
X002062Y021418D01*
X002013Y021456D01*
X001965Y021498D01*
X001921Y021542D01*
X001879Y021590D01*
X001841Y021639D01*
X001806Y021691D01*
X001774Y021745D01*
X001745Y021801D01*
X001720Y021859D01*
X001699Y021918D01*
X001681Y021978D01*
X001668Y022040D01*
X001658Y022102D01*
X001652Y022164D01*
X001650Y022227D01*
D14*
X010530Y009237D02*
X010530Y009057D01*
X010530Y008417D02*
X010530Y008217D01*
X010867Y026727D02*
X010869Y026760D01*
X010875Y026793D01*
X010885Y026826D01*
X010898Y026856D01*
X010915Y026885D01*
X010936Y026912D01*
X010959Y026936D01*
X010985Y026957D01*
X011013Y026975D01*
X011044Y026989D01*
X011075Y027000D01*
X011108Y027007D01*
X011142Y027010D01*
X011175Y027009D01*
X011208Y027004D01*
X011241Y026995D01*
X011272Y026982D01*
X011301Y026966D01*
X011328Y026947D01*
X011353Y026924D01*
X011375Y026899D01*
X011394Y026871D01*
X011409Y026841D01*
X011421Y026810D01*
X011429Y026777D01*
X011433Y026744D01*
X011433Y026710D01*
X011429Y026677D01*
X011421Y026644D01*
X011409Y026613D01*
X011394Y026583D01*
X011375Y026555D01*
X011353Y026530D01*
X011328Y026507D01*
X011301Y026488D01*
X011272Y026472D01*
X011241Y026459D01*
X011208Y026450D01*
X011175Y026445D01*
X011142Y026444D01*
X011108Y026447D01*
X011075Y026454D01*
X011044Y026465D01*
X011013Y026479D01*
X010985Y026497D01*
X010959Y026518D01*
X010936Y026542D01*
X010915Y026569D01*
X010898Y026598D01*
X010885Y026628D01*
X010875Y026661D01*
X010869Y026694D01*
X010867Y026727D01*
D15*
X011175Y023952D02*
X011175Y023577D01*
X011250Y023502D01*
X011400Y023502D01*
X011475Y023577D01*
X011475Y023952D01*
X011635Y023802D02*
X011786Y023952D01*
X011786Y023502D01*
X011936Y023502D02*
X011635Y023502D01*
D16*
X011689Y028347D02*
X011836Y028347D01*
X011762Y028347D02*
X011762Y028567D01*
X011689Y028493D01*
X011615Y028530D02*
X011578Y028567D01*
X011505Y028567D01*
X011468Y028530D01*
X011468Y028383D01*
X011505Y028347D01*
X011578Y028347D01*
X011615Y028383D01*
D17*
X008300Y028877D02*
X008302Y028927D01*
X008308Y028977D01*
X008318Y029027D01*
X008331Y029075D01*
X008348Y029123D01*
X008369Y029169D01*
X008393Y029213D01*
X008421Y029255D01*
X008452Y029295D01*
X008486Y029332D01*
X008523Y029367D01*
X008562Y029398D01*
X008603Y029427D01*
X008647Y029452D01*
X008693Y029474D01*
X008740Y029492D01*
X008788Y029506D01*
X008837Y029517D01*
X008887Y029524D01*
X008937Y029527D01*
X008988Y029526D01*
X009038Y029521D01*
X009088Y029512D01*
X009136Y029500D01*
X009184Y029483D01*
X009230Y029463D01*
X009275Y029440D01*
X009318Y029413D01*
X009358Y029383D01*
X009396Y029350D01*
X009431Y029314D01*
X009464Y029275D01*
X009493Y029234D01*
X009519Y029191D01*
X009542Y029146D01*
X009561Y029099D01*
X009576Y029051D01*
X009588Y029002D01*
X009596Y028952D01*
X009600Y028902D01*
X009600Y028852D01*
X009596Y028802D01*
X009588Y028752D01*
X009576Y028703D01*
X009561Y028655D01*
X009542Y028608D01*
X009519Y028563D01*
X009493Y028520D01*
X009464Y028479D01*
X009431Y028440D01*
X009396Y028404D01*
X009358Y028371D01*
X009318Y028341D01*
X009275Y028314D01*
X009230Y028291D01*
X009184Y028271D01*
X009136Y028254D01*
X009088Y028242D01*
X009038Y028233D01*
X008988Y028228D01*
X008937Y028227D01*
X008887Y028230D01*
X008837Y028237D01*
X008788Y028248D01*
X008740Y028262D01*
X008693Y028280D01*
X008647Y028302D01*
X008603Y028327D01*
X008562Y028356D01*
X008523Y028387D01*
X008486Y028422D01*
X008452Y028459D01*
X008421Y028499D01*
X008393Y028541D01*
X008369Y028585D01*
X008348Y028631D01*
X008331Y028679D01*
X008318Y028727D01*
X008308Y028777D01*
X008302Y028827D01*
X008300Y028877D01*
X014000Y028727D02*
X014002Y028777D01*
X014008Y028827D01*
X014018Y028877D01*
X014031Y028925D01*
X014048Y028973D01*
X014069Y029019D01*
X014093Y029063D01*
X014121Y029105D01*
X014152Y029145D01*
X014186Y029182D01*
X014223Y029217D01*
X014262Y029248D01*
X014303Y029277D01*
X014347Y029302D01*
X014393Y029324D01*
X014440Y029342D01*
X014488Y029356D01*
X014537Y029367D01*
X014587Y029374D01*
X014637Y029377D01*
X014688Y029376D01*
X014738Y029371D01*
X014788Y029362D01*
X014836Y029350D01*
X014884Y029333D01*
X014930Y029313D01*
X014975Y029290D01*
X015018Y029263D01*
X015058Y029233D01*
X015096Y029200D01*
X015131Y029164D01*
X015164Y029125D01*
X015193Y029084D01*
X015219Y029041D01*
X015242Y028996D01*
X015261Y028949D01*
X015276Y028901D01*
X015288Y028852D01*
X015296Y028802D01*
X015300Y028752D01*
X015300Y028702D01*
X015296Y028652D01*
X015288Y028602D01*
X015276Y028553D01*
X015261Y028505D01*
X015242Y028458D01*
X015219Y028413D01*
X015193Y028370D01*
X015164Y028329D01*
X015131Y028290D01*
X015096Y028254D01*
X015058Y028221D01*
X015018Y028191D01*
X014975Y028164D01*
X014930Y028141D01*
X014884Y028121D01*
X014836Y028104D01*
X014788Y028092D01*
X014738Y028083D01*
X014688Y028078D01*
X014637Y028077D01*
X014587Y028080D01*
X014537Y028087D01*
X014488Y028098D01*
X014440Y028112D01*
X014393Y028130D01*
X014347Y028152D01*
X014303Y028177D01*
X014262Y028206D01*
X014223Y028237D01*
X014186Y028272D01*
X014152Y028309D01*
X014121Y028349D01*
X014093Y028391D01*
X014069Y028435D01*
X014048Y028481D01*
X014031Y028529D01*
X014018Y028577D01*
X014008Y028627D01*
X014002Y028677D01*
X014000Y028727D01*
X008300Y001877D02*
X008302Y001927D01*
X008308Y001977D01*
X008318Y002027D01*
X008331Y002075D01*
X008348Y002123D01*
X008369Y002169D01*
X008393Y002213D01*
X008421Y002255D01*
X008452Y002295D01*
X008486Y002332D01*
X008523Y002367D01*
X008562Y002398D01*
X008603Y002427D01*
X008647Y002452D01*
X008693Y002474D01*
X008740Y002492D01*
X008788Y002506D01*
X008837Y002517D01*
X008887Y002524D01*
X008937Y002527D01*
X008988Y002526D01*
X009038Y002521D01*
X009088Y002512D01*
X009136Y002500D01*
X009184Y002483D01*
X009230Y002463D01*
X009275Y002440D01*
X009318Y002413D01*
X009358Y002383D01*
X009396Y002350D01*
X009431Y002314D01*
X009464Y002275D01*
X009493Y002234D01*
X009519Y002191D01*
X009542Y002146D01*
X009561Y002099D01*
X009576Y002051D01*
X009588Y002002D01*
X009596Y001952D01*
X009600Y001902D01*
X009600Y001852D01*
X009596Y001802D01*
X009588Y001752D01*
X009576Y001703D01*
X009561Y001655D01*
X009542Y001608D01*
X009519Y001563D01*
X009493Y001520D01*
X009464Y001479D01*
X009431Y001440D01*
X009396Y001404D01*
X009358Y001371D01*
X009318Y001341D01*
X009275Y001314D01*
X009230Y001291D01*
X009184Y001271D01*
X009136Y001254D01*
X009088Y001242D01*
X009038Y001233D01*
X008988Y001228D01*
X008937Y001227D01*
X008887Y001230D01*
X008837Y001237D01*
X008788Y001248D01*
X008740Y001262D01*
X008693Y001280D01*
X008647Y001302D01*
X008603Y001327D01*
X008562Y001356D01*
X008523Y001387D01*
X008486Y001422D01*
X008452Y001459D01*
X008421Y001499D01*
X008393Y001541D01*
X008369Y001585D01*
X008348Y001631D01*
X008331Y001679D01*
X008318Y001727D01*
X008308Y001777D01*
X008302Y001827D01*
X008300Y001877D01*
X014000Y001727D02*
X014002Y001777D01*
X014008Y001827D01*
X014018Y001877D01*
X014031Y001925D01*
X014048Y001973D01*
X014069Y002019D01*
X014093Y002063D01*
X014121Y002105D01*
X014152Y002145D01*
X014186Y002182D01*
X014223Y002217D01*
X014262Y002248D01*
X014303Y002277D01*
X014347Y002302D01*
X014393Y002324D01*
X014440Y002342D01*
X014488Y002356D01*
X014537Y002367D01*
X014587Y002374D01*
X014637Y002377D01*
X014688Y002376D01*
X014738Y002371D01*
X014788Y002362D01*
X014836Y002350D01*
X014884Y002333D01*
X014930Y002313D01*
X014975Y002290D01*
X015018Y002263D01*
X015058Y002233D01*
X015096Y002200D01*
X015131Y002164D01*
X015164Y002125D01*
X015193Y002084D01*
X015219Y002041D01*
X015242Y001996D01*
X015261Y001949D01*
X015276Y001901D01*
X015288Y001852D01*
X015296Y001802D01*
X015300Y001752D01*
X015300Y001702D01*
X015296Y001652D01*
X015288Y001602D01*
X015276Y001553D01*
X015261Y001505D01*
X015242Y001458D01*
X015219Y001413D01*
X015193Y001370D01*
X015164Y001329D01*
X015131Y001290D01*
X015096Y001254D01*
X015058Y001221D01*
X015018Y001191D01*
X014975Y001164D01*
X014930Y001141D01*
X014884Y001121D01*
X014836Y001104D01*
X014788Y001092D01*
X014738Y001083D01*
X014688Y001078D01*
X014637Y001077D01*
X014587Y001080D01*
X014537Y001087D01*
X014488Y001098D01*
X014440Y001112D01*
X014393Y001130D01*
X014347Y001152D01*
X014303Y001177D01*
X014262Y001206D01*
X014223Y001237D01*
X014186Y001272D01*
X014152Y001309D01*
X014121Y001349D01*
X014093Y001391D01*
X014069Y001435D01*
X014048Y001481D01*
X014031Y001529D01*
X014018Y001577D01*
X014008Y001627D01*
X014002Y001677D01*
X014000Y001727D01*
D18*
X012627Y001723D02*
X011956Y001723D01*
X011957Y001744D02*
X011954Y001681D01*
X011938Y001620D01*
X011910Y001563D01*
X011872Y001513D01*
X011823Y001473D01*
X011768Y001442D01*
X011909Y001101D01*
X012009Y001153D01*
X012256Y000951D01*
X012426Y001121D01*
X012224Y001368D01*
X012275Y001468D01*
X012309Y001574D01*
X012627Y001607D01*
X012627Y001847D01*
X012309Y001879D01*
X012275Y001986D01*
X012224Y002085D01*
X012426Y002333D01*
X012256Y002502D01*
X012009Y002301D01*
X011909Y002352D01*
X011802Y002386D01*
X011770Y002704D01*
X011530Y002704D01*
X011498Y002386D01*
X011391Y002352D01*
X011291Y002301D01*
X011044Y002502D01*
X010874Y002333D01*
X011076Y002085D01*
X011025Y001986D01*
X010991Y001879D01*
X010673Y001847D01*
X010673Y001607D01*
X010991Y001574D01*
X011025Y001468D01*
X011076Y001368D01*
X010874Y001121D01*
X011044Y000951D01*
X011291Y001153D01*
X011391Y001101D01*
X011532Y001442D01*
X011479Y001471D01*
X011432Y001509D01*
X011394Y001556D01*
X011366Y001609D01*
X011348Y001667D01*
X011342Y001727D01*
X011349Y001789D01*
X011368Y001850D01*
X011399Y001905D01*
X011441Y001952D01*
X011491Y001990D01*
X011548Y002017D01*
X011610Y002032D01*
X011673Y002033D01*
X011735Y002022D01*
X011794Y001999D01*
X011846Y001964D01*
X011890Y001918D01*
X011925Y001865D01*
X011947Y001806D01*
X011957Y001744D01*
X011951Y001781D02*
X012627Y001781D01*
X012627Y001838D02*
X011935Y001838D01*
X011905Y001896D02*
X012304Y001896D01*
X012286Y001953D02*
X011856Y001953D01*
X011763Y002011D02*
X012262Y002011D01*
X012233Y002068D02*
X011067Y002068D01*
X011043Y002126D02*
X012257Y002126D01*
X012304Y002184D02*
X010996Y002184D01*
X010949Y002241D02*
X012351Y002241D01*
X012398Y002299D02*
X010902Y002299D01*
X010898Y002356D02*
X011223Y002356D01*
X011153Y002414D02*
X010956Y002414D01*
X011013Y002471D02*
X011082Y002471D01*
X011405Y002356D02*
X011895Y002356D01*
X011799Y002414D02*
X011501Y002414D01*
X011506Y002471D02*
X011794Y002471D01*
X011788Y002529D02*
X011512Y002529D01*
X011518Y002586D02*
X011782Y002586D01*
X011776Y002644D02*
X011524Y002644D01*
X011530Y002702D02*
X011770Y002702D01*
X012077Y002356D02*
X012402Y002356D01*
X012344Y002414D02*
X012147Y002414D01*
X012218Y002471D02*
X012287Y002471D01*
X011950Y001666D02*
X012627Y001666D01*
X012627Y001608D02*
X011933Y001608D01*
X011901Y001550D02*
X012302Y001550D01*
X012283Y001493D02*
X011847Y001493D01*
X011771Y001435D02*
X012258Y001435D01*
X012229Y001378D02*
X011795Y001378D01*
X011818Y001320D02*
X012263Y001320D01*
X012310Y001263D02*
X011842Y001263D01*
X011866Y001205D02*
X012357Y001205D01*
X012404Y001148D02*
X012015Y001148D01*
X011998Y001148D02*
X011890Y001148D01*
X012086Y001090D02*
X012395Y001090D01*
X012337Y001032D02*
X012156Y001032D01*
X012227Y000975D02*
X012280Y000975D01*
X011505Y001378D02*
X011071Y001378D01*
X011042Y001435D02*
X011529Y001435D01*
X011452Y001493D02*
X011017Y001493D01*
X010998Y001550D02*
X011399Y001550D01*
X011366Y001608D02*
X010673Y001608D01*
X010673Y001666D02*
X011349Y001666D01*
X011343Y001723D02*
X010673Y001723D01*
X010673Y001781D02*
X011348Y001781D01*
X011364Y001838D02*
X010673Y001838D01*
X010996Y001896D02*
X011394Y001896D01*
X011442Y001953D02*
X011014Y001953D01*
X011038Y002011D02*
X011535Y002011D01*
X011482Y001320D02*
X011037Y001320D01*
X010990Y001263D02*
X011458Y001263D01*
X011434Y001205D02*
X010943Y001205D01*
X010896Y001148D02*
X011285Y001148D01*
X011302Y001148D02*
X011410Y001148D01*
X011214Y001090D02*
X010905Y001090D01*
X010963Y001032D02*
X011144Y001032D01*
X011073Y000975D02*
X011020Y000975D01*
M02*
